<?xml version="1.0" standalone="no"?>
<!DOCTYPE svg PUBLIC "-//W3C//DTD SVG 20010904//EN"
 "http://www.w3.org/TR/2001/REC-SVG-20010904/DTD/svg10.dtd">
<svg version="1.0" xmlns="http://www.w3.org/2000/svg"
 width="1024.000000pt" height="701.000000pt" viewBox="0 0 1024.000000 701.000000"
 preserveAspectRatio="xMidYMid meet">

<g transform="translate(0.000000,701.000000) scale(0.100000,-0.100000)"
fill="#000000" stroke="none">
<path d="M532 6988 c10 -15 12 -30 7 -43 -21 -55 0 -86 69 -99 31 -5 32 -5 32
30 0 27 -7 43 -30 64 -16 15 -30 37 -30 49 0 17 -6 21 -31 21 -30 0 -31 -1
-17 -22z"/>
<path d="M2408 6403 c3 -546 -8 -989 -24 -1015 -13 -21 -33 31 -34 87 0 55
-22 231 -36 298 -6 28 -6 28 -31 12 -14 -9 -33 -15 -44 -12 -15 4 -20 -2 -23
-27 -25 -160 -29 -173 -62 -223 -37 -56 -45 -61 -62 -40 -14 17 -32 198 -32
322 0 104 -12 144 -25 83 -7 -31 -20 -47 -37 -48 -5 0 -8 5 -8 10 0 6 -7 27
-15 48 -25 59 -35 23 -35 -131 0 -141 -6 -167 -42 -197 -11 -9 -22 -39 -28
-75 -13 -72 -28 -111 -39 -99 -14 16 -42 95 -52 148 -5 28 -16 179 -24 335 -8
156 -17 286 -20 289 -3 3 -5 0 -5 -6 0 -18 -37 -14 -44 4 -5 12 -8 13 -20 2
-10 -10 -12 -28 -8 -68 4 -30 6 -174 6 -320 0 -225 -2 -274 -18 -324 -36 -122
-80 -146 -125 -70 -17 29 -24 33 -48 28 -26 -5 -30 -1 -46 35 -20 45 -24 47
-63 29 -24 -11 -28 -10 -53 19 -54 64 -60 65 -369 53 -297 -12 -635 -5 -692
14 -24 8 -35 17 -35 31 0 11 -4 30 -8 42 -5 13 -4 30 2 40 7 13 6 22 -4 33
-11 12 -15 57 -16 183 -2 139 -5 167 -17 167 -8 0 -43 -5 -78 -12 -61 -11 -64
-13 -64 -40 0 -16 -7 -45 -15 -65 -13 -30 -15 -118 -15 -579 l0 -543 38 13
c55 19 200 27 342 17 102 -7 177 -4 405 16 453 39 491 42 695 43 107 0 260 7
340 15 80 8 209 20 287 27 l143 12 25 -24 c14 -13 25 -29 25 -36 0 -12 35 -26
44 -16 8 8 7 127 -1 135 -3 4 -5 35 -4 70 2 46 8 71 27 99 13 21 42 82 63 135
58 146 98 224 139 275 20 25 57 71 81 102 51 65 89 90 191 123 111 37 179 49
235 42 28 -3 66 -1 85 4 19 5 60 7 92 5 41 -3 57 -1 54 7 -2 7 6 10 25 7 16
-2 26 -8 23 -13 -5 -9 24 -17 64 -18 53 -1 72 -4 72 -12 0 -5 17 -17 38 -26
85 -36 142 -66 152 -78 6 -7 42 -19 80 -25 55 -9 69 -15 73 -32 4 -15 11 -19
26 -15 16 4 21 0 21 -13 0 -11 5 -22 10 -25 20 -12 50 -95 49 -132 -2 -30 -3
-32 -6 -10 -6 38 -17 34 -38 -13 -10 -22 -22 -40 -27 -40 -4 0 -8 -7 -8 -15 0
-9 -7 -18 -16 -22 -9 -3 -29 -18 -46 -33 l-30 -28 17 -73 c9 -41 27 -93 41
-116 24 -41 24 -43 5 -43 -32 0 -66 -41 -86 -103 -10 -31 -15 -60 -12 -63 3
-4 20 8 37 25 26 25 28 31 13 31 -13 0 -5 13 31 48 30 29 51 42 53 35 3 -7 16
-13 29 -13 33 0 66 -18 58 -31 -3 -6 2 -19 11 -29 24 -26 15 -93 -17 -129 -55
-61 -69 -91 -70 -144 -1 -68 -8 -83 -60 -144 -47 -56 -81 -135 -72 -170 4 -15
29 -31 89 -57 93 -40 96 -41 140 -25 45 17 75 6 134 -47 36 -32 61 -67 81
-111 30 -66 50 -163 34 -163 -5 0 -30 19 -55 43 -37 34 -51 42 -68 35 -26 -9
-26 -13 -2 -46 45 -65 95 -188 80 -198 -5 -3 -9 3 -9 14 0 18 -28 52 -43 52
-4 0 -6 -29 -4 -65 1 -36 -1 -65 -4 -65 -6 0 -18 57 -22 105 -1 11 -6 27 -12
35 -5 8 -8 23 -7 33 2 10 -1 24 -5 30 -5 7 -16 32 -23 57 -19 58 -37 95 -50
96 -5 1 -14 2 -20 3 -5 0 -10 6 -10 12 0 6 8 8 18 5 11 -4 8 2 -8 15 -14 11
-30 27 -36 35 -10 13 -14 13 -27 -1 -21 -21 -44 -21 -27 0 7 9 10 19 6 22 -4
4 -11 1 -16 -7 -8 -12 -13 -13 -30 -2 -11 7 -20 8 -20 3 0 -5 6 -12 13 -14 17
-7 -11 -27 -38 -27 -16 0 -17 2 -5 10 11 7 12 12 4 20 -9 9 -14 9 -18 1 -4 -6
-15 -11 -25 -11 -10 0 -26 -9 -36 -20 -32 -36 -123 -19 -143 26 -7 15 -5 31 9
60 10 21 18 47 19 57 0 9 7 17 15 17 9 0 15 7 13 17 -2 11 7 19 28 25 24 6 37
20 58 59 14 28 26 55 26 61 0 6 -24 8 -57 6 -53 -3 -58 -1 -61 19 -4 31 43 53
112 53 46 0 56 3 61 20 4 11 0 34 -9 51 -8 16 -12 37 -9 45 3 9 1 25 -5 37
-24 48 -42 101 -42 123 0 19 -5 24 -25 24 -14 0 -26 3 -26 8 -1 4 -3 25 -4 46
-1 24 -9 45 -20 52 -14 11 -15 16 -6 27 9 12 4 15 -26 21 -21 3 -57 6 -81 6
l-43 0 7 38 c11 54 9 95 -4 100 -6 2 -9 9 -6 16 3 7 -4 22 -15 35 -11 12 -22
40 -26 62 -7 39 -27 52 -42 26 -14 -24 -131 -105 -169 -117 -20 -7 -73 -13
-118 -13 -60 -1 -84 -5 -93 -17 -11 -13 -12 -13 -13 3 0 23 -20 12 -20 -11 0
-9 -5 -24 -10 -32 -8 -12 -12 -12 -18 -2 -7 9 -13 8 -27 -8 -12 -13 -14 -20
-5 -20 7 0 -13 -29 -44 -64 -31 -35 -56 -67 -56 -70 0 -3 12 -6 26 -6 17 0 23
-4 19 -12 -9 -17 54 49 83 87 19 25 21 26 11 5 -7 -14 -23 -40 -37 -57 -18
-24 -21 -33 -10 -33 16 0 88 73 88 88 0 5 7 15 15 22 8 7 15 21 15 31 0 24 29
25 32 2 0 -10 2 -23 2 -28 1 -6 9 -20 18 -33 12 -18 13 -28 5 -46 -14 -30 -37
-22 -37 13 0 22 -5 19 -33 -29 -18 -30 -36 -53 -39 -50 -3 3 -16 -4 -29 -15
-12 -11 -19 -14 -15 -7 11 19 -6 14 -46 -13 -20 -14 -46 -25 -57 -25 -31 0
-35 -19 -7 -32 14 -6 26 -15 26 -20 0 -4 7 -8 15 -8 20 0 19 -16 -1 -24 -40
-15 -104 0 -90 22 4 7 -8 14 -29 18 -35 6 -35 7 -18 26 17 19 17 19 -12 13
-17 -4 -44 -14 -62 -23 -30 -15 -31 -17 -27 -71 2 -31 7 -66 9 -78 3 -13 1
-23 -4 -23 -5 0 -12 -7 -15 -16 -13 -34 126 -200 182 -218 24 -8 62 -80 69
-135 8 -62 -27 -108 -46 -58 -35 91 -41 100 -57 86 -9 -7 -20 -24 -25 -37 -9
-22 -13 -24 -57 -18 -26 3 -41 3 -34 0 16 -7 6 -25 -11 -18 -7 2 -17 -6 -22
-18 -7 -17 -18 -23 -42 -23 -17 0 -35 -3 -39 -7 -4 -5 -2 -8 5 -8 7 0 9 -5 5
-11 -3 -6 -17 -8 -30 -5 -15 4 -47 -4 -89 -23 -66 -30 -159 -91 -151 -99 3 -2
20 7 38 20 44 32 87 53 94 45 3 -3 -5 -11 -18 -18 -12 -6 -34 -21 -48 -32
l-25 -20 28 5 c29 6 37 -6 12 -16 -8 -3 -15 -12 -15 -19 0 -20 -36 -51 -45
-38 -3 6 -3 16 1 22 5 8 9 8 14 -1 5 -7 9 -2 12 14 7 33 -2 33 -42 -2 -28 -25
-30 -30 -15 -36 10 -3 15 -12 11 -21 -3 -9 0 -15 8 -15 18 0 28 -39 16 -59 -8
-14 -9 -14 -10 2 0 19 -20 24 -20 5 0 -9 -3 -10 -8 -2 -7 11 -25 14 -74 14
-34 0 -80 -41 -82 -74 0 -13 -5 -22 -9 -19 -16 10 -35 -30 -26 -54 10 -27 6
-29 -16 -7 -15 16 -18 16 -33 -1 -16 -17 -16 -17 1 -12 21 8 23 -9 1 -17 -23
-9 -24 -8 -24 14 0 11 -4 20 -10 20 -5 0 -10 -8 -10 -19 0 -10 -7 -24 -16 -32
-8 -7 -13 -21 -11 -30 3 -10 -2 -27 -9 -38 -10 -13 -11 -22 -4 -26 7 -5 8 -11
1 -19 -12 -14 6 -97 23 -108 8 -6 6 -11 -4 -17 -12 -9 -12 -11 4 -17 12 -4 25
0 39 15 12 11 17 21 11 21 -6 0 -8 16 -5 42 7 45 26 63 26 23 0 -14 -4 -25 -9
-25 -5 0 -1 -8 8 -19 15 -16 15 -20 2 -33 -11 -12 -12 -18 -3 -27 8 -8 5 -11
-11 -11 -21 0 -21 -1 -5 -20 11 -13 19 -16 24 -9 4 7 12 8 19 4 8 -5 2 -12
-19 -22 -25 -12 -29 -19 -21 -33 5 -9 6 -20 3 -24 -3 -3 -1 -6 6 -6 8 0 6 -8
-5 -25 -19 -29 -12 -44 11 -25 19 16 19 12 0 -35 -15 -34 -15 -36 2 -33 10 2
17 10 16 16 -4 18 14 15 21 -4 9 -22 8 -24 -9 -24 -10 0 -15 -10 -15 -29 0
-16 7 -34 15 -41 19 -16 19 -25 0 -44 -20 -20 -15 -39 14 -52 l24 -11 -29 -14
c-16 -8 -30 -22 -32 -31 -3 -13 4 -16 33 -13 31 3 34 1 24 -12 -10 -11 -10
-16 0 -23 10 -5 10 -9 1 -15 -8 -5 -6 -11 7 -21 17 -13 17 -13 0 -14 -10 0
-21 -10 -26 -22 -12 -31 -4 -36 15 -10 8 12 23 22 32 21 10 0 12 -3 5 -6 -7
-2 -13 -11 -13 -19 0 -8 -4 -14 -10 -14 -5 0 -10 -4 -10 -10 0 -5 6 -10 13
-10 19 0 14 -70 -7 -85 -15 -12 -15 -13 0 -19 13 -5 14 -9 4 -21 -10 -12 -9
-15 4 -15 9 0 16 4 16 9 0 5 7 11 15 15 12 4 14 0 9 -19 -4 -15 -2 -25 5 -25
6 0 11 -14 11 -31 0 -27 2 -30 15 -19 9 7 19 9 23 5 4 -4 1 -10 -5 -12 -7 -3
-13 -11 -13 -19 0 -10 7 -13 24 -8 21 5 24 3 19 -15 -7 -27 -23 -38 -23 -16 0
9 -5 13 -10 10 -8 -5 -7 -11 0 -21 10 -11 16 -11 37 3 25 17 26 17 15 -4 -13
-24 -4 -37 15 -22 10 9 9 5 -2 -17 -17 -34 -19 -60 -5 -69 9 -6 11 0 14 44 1
8 6 16 12 18 7 2 9 -8 6 -29 -5 -30 -3 -32 12 -19 9 7 15 21 14 30 -2 11 5 17
22 18 14 1 19 0 13 -3 -16 -7 -17 -40 -2 -50 7 -4 25 -7 41 -6 18 0 26 -3 22
-10 -5 -8 4 -9 27 -5 30 6 32 5 17 -7 -10 -7 -14 -17 -10 -21 4 -4 -3 -2 -16
4 -18 10 -23 9 -28 -3 -3 -8 -12 -12 -20 -9 -8 3 -14 -1 -14 -11 0 -19 -16
-21 -23 -3 -4 9 -8 9 -15 -2 -9 -12 -13 -12 -26 -2 -14 11 -16 11 -16 -3 0 -9
-12 -28 -27 -41 -16 -13 -25 -27 -20 -31 4 -4 14 1 22 12 8 10 15 14 15 7 0
-6 -5 -15 -11 -18 -6 -4 -8 -14 -5 -22 4 -10 2 -13 -8 -10 -8 3 -17 -1 -20 -9
-3 -8 1 -14 9 -14 19 0 19 -15 0 -34 -19 -19 -19 -26 1 -26 8 0 13 -4 10 -8
-6 -10 13 -81 27 -99 15 -20 30 -15 24 7 -3 11 -1 23 4 26 5 3 9 14 9 25 0 27
30 70 43 62 6 -4 8 0 4 11 -7 17 8 29 146 117 26 17 45 35 41 40 -10 18 21 44
56 46 56 4 64 5 75 13 13 11 65 1 65 -12 0 -6 -7 -8 -15 -5 -8 4 -17 2 -20 -4
-4 -5 -11 -6 -17 -3 -6 4 -14 1 -18 -7 -7 -10 -12 -10 -26 2 -16 13 -17 12
-12 -13 3 -15 2 -25 -3 -23 -4 3 -20 -6 -35 -20 -15 -14 -33 -25 -40 -25 -8 0
-14 -7 -14 -15 0 -8 -5 -15 -11 -15 -14 0 -139 -125 -139 -138 0 -5 -6 -12
-14 -15 -7 -3 -16 -17 -18 -31 -5 -23 -3 -25 26 -20 17 3 64 15 105 25 40 11
75 18 77 16 7 -7 -56 -57 -72 -57 -9 0 -23 -8 -30 -17 -8 -11 -13 -13 -14 -5
0 17 -20 15 -20 -3 0 -8 -8 -15 -17 -15 -24 -1 -53 -24 -53 -43 0 -8 -7 -17
-15 -21 -8 -3 -15 -13 -15 -21 0 -10 5 -13 12 -9 7 5 8 3 3 -6 -13 -21 -15
-63 -3 -78 8 -9 8 -16 1 -23 -14 -14 -60 62 -69 112 -4 19 -29 81 -56 139
-107 225 -125 266 -137 308 -14 51 -46 86 -71 79 -14 -3 -16 0 -12 17 5 21 5
21 -16 2 -15 -13 -22 -15 -22 -6 0 10 -3 10 -16 -1 -14 -11 -18 -11 -29 4 -6
9 -15 13 -19 9 -4 -4 -11 -7 -15 -7 -11 0 -41 -32 -41 -43 0 -6 15 -13 33 -17
45 -10 169 -69 186 -88 19 -24 -10 -33 -52 -16 -17 8 -38 12 -46 11 -8 -2 -18
2 -22 10 -7 11 -11 10 -19 -2 -7 -10 -12 -12 -17 -4 -5 6 -15 11 -23 12 -8 0
-28 4 -45 7 -16 4 -54 9 -82 12 -48 4 -53 3 -53 -15 0 -14 15 -26 55 -43 30
-13 55 -27 55 -31 0 -5 9 -8 19 -8 11 0 22 -4 25 -9 3 -5 18 -12 33 -15 39
-10 123 -49 123 -58 0 -9 -1 -9 -50 -14 -132 -11 -165 -20 -136 -36 9 -5 13
-14 10 -20 -5 -8 -1 -9 10 -5 10 4 19 1 22 -8 4 -8 12 -15 20 -15 8 0 14 -4
14 -8 0 -5 16 -9 35 -10 20 -1 40 -4 45 -7 5 -3 12 -1 15 5 5 8 11 8 20 0 7
-6 20 -8 29 -4 9 3 16 1 16 -6 0 -7 8 -9 20 -5 18 6 20 3 15 -22 -3 -15 -2
-22 1 -15 6 14 34 17 34 3 0 -5 -8 -12 -17 -15 -11 -5 -13 -10 -6 -17 14 -14
-19 -49 -46 -49 -10 0 -21 -7 -25 -15 -3 -8 -11 -15 -18 -15 -9 0 -9 3 0 12
21 21 13 31 -13 14 -30 -20 -39 -20 -32 -2 5 12 1 13 -24 4 -22 -7 -34 -7 -41
0 -8 8 -18 6 -34 -5 -22 -14 -24 -14 -24 1 0 9 -7 16 -15 16 -8 0 -15 -4 -15
-9 0 -5 -7 -11 -14 -14 -10 -4 -13 -1 -10 7 8 21 -63 19 -76 -2 -8 -12 -13
-14 -16 -4 -7 15 -34 16 -34 1 0 -15 31 -38 52 -39 11 0 15 -6 11 -20 -4 -15
0 -20 15 -20 12 0 24 -4 27 -10 3 -5 22 -10 41 -10 22 0 34 -5 34 -14 0 -9 7
-12 21 -9 12 4 25 0 30 -8 7 -12 12 -12 29 -1 17 10 21 10 26 -3 7 -18 18 -19
36 -2 17 16 38 20 38 7 0 -6 -4 -10 -10 -10 -5 0 -10 -4 -10 -9 0 -4 11 -6 25
-3 14 2 25 8 25 13 0 5 4 9 10 9 5 0 7 -7 3 -16 -5 -14 -3 -15 15 -5 18 10 22
9 22 -4 0 -15 35 -22 43 -7 2 4 2 1 1 -5 -2 -7 4 -13 14 -14 11 0 12 -2 4 -6
-10 -4 -10 -8 -2 -18 6 -8 18 -11 25 -9 20 8 62 -33 48 -47 -8 -8 -13 -8 -17
0 -10 15 -27 14 -23 -1 1 -6 -6 -14 -15 -16 -12 -2 -18 3 -18 14 0 16 -2 15
-21 -2 -16 -14 -23 -15 -26 -7 -3 9 -17 11 -44 7 -26 -4 -39 -3 -39 5 0 6 -13
11 -30 11 -16 0 -30 4 -30 8 0 8 -14 12 -52 13 -10 0 -18 4 -18 8 0 11 -81 8
-98 -2 -7 -5 -14 -2 -18 8 -6 14 -8 14 -25 -1 -17 -15 -19 -15 -25 0 -3 9 -11
13 -17 9 -6 -3 -23 -7 -39 -8 -15 -2 -35 -8 -43 -15 -12 -10 -15 -9 -15 5 0
13 -6 16 -27 12 -15 -3 -65 5 -112 17 -103 26 -136 27 -136 4 0 -9 -4 -20 -8
-24 -4 -4 -7 7 -7 24 0 49 -17 46 -25 -4 -5 -35 -2 -54 15 -89 12 -25 26 -45
31 -45 5 0 9 -4 9 -10 0 -5 -8 -10 -17 -10 -9 0 33 -31 93 -70 60 -38 120 -79
134 -90 l25 -21 -87 6 c-51 4 -88 3 -88 -2 0 -5 -16 -9 -36 -8 -19 1 -53 -1
-75 -5 -22 -4 -42 -3 -45 1 -3 5 0 9 5 9 6 0 11 5 11 10 0 6 -8 5 -20 -2 -17
-11 -22 -10 -29 1 -5 8 -16 11 -25 8 -9 -4 -16 -2 -16 4 0 5 -19 8 -45 5 -25
-2 -48 0 -51 5 -3 5 -12 9 -20 9 -8 0 -13 -4 -9 -10 6 -10 -47 4 -78 21 -9 5
-17 5 -17 0 0 -11 -48 -21 -52 -11 -2 4 -14 3 -28 -3 -14 -5 -34 -10 -45 -11
-13 -1 -19 -7 -19 -19 2 -17 0 -17 -22 -2 -21 14 -24 14 -24 0 0 -17 -45 -21
-69 -6 -15 10 -72 -9 -65 -21 3 -4 1 -8 -5 -8 -5 0 -13 5 -16 10 -11 18 -35
11 -29 -7 4 -12 3 -14 -3 -6 -23 32 -96 36 -107 6 -5 -13 -9 -13 -22 -2 -9 7
-18 9 -22 3 -4 -5 -18 -10 -32 -12 -13 -1 -28 -8 -32 -15 -7 -11 -12 -3 -9 15
0 3 -12 3 -28 -2 -21 -6 -33 -4 -45 8 -15 15 -16 14 -17 -8 0 -14 -3 -19 -6
-12 -7 18 -33 15 -34 -5 0 -15 -2 -15 -9 2 -7 17 -9 17 -9 3 -1 -22 -10 -23
-26 -1 -8 10 -17 13 -25 8 -23 -14 -61 -12 -71 5 -8 13 -11 13 -24 -4 -8 -11
-15 -14 -15 -8 0 7 -7 12 -15 12 -8 0 -15 -4 -15 -10 0 -5 5 -10 12 -10 6 0 9
-3 6 -6 -4 -3 -16 0 -28 6 -18 10 -24 9 -32 -1 -7 -11 -11 -11 -15 -1 -19 47
-23 -30 -23 -429 0 -242 3 -438 8 -435 15 9 953 197 1377 275 241 45 677 79
779 61 64 -12 554 -133 881 -219 105 -28 242 -64 305 -80 132 -35 183 -56 178
-74 -6 -16 -64 -35 -354 -112 -137 -37 -271 -73 -299 -80 -127 -34 -378 -101
-570 -151 -115 -30 -211 -57 -214 -60 -2 -2 840 -4 1872 -4 l1875 0 12 38 c24
74 101 253 141 327 22 42 38 79 35 82 -7 7 -76 -54 -166 -146 -73 -75 -134
-111 -152 -93 -8 8 -12 67 -13 179 -2 195 14 275 89 458 103 249 243 414 431
508 118 59 663 207 763 207 49 0 152 -35 194 -66 18 -13 60 -42 93 -63 67 -45
97 -70 139 -121 25 -30 28 -40 23 -80 -3 -25 -9 -53 -13 -64 -7 -18 -3 -18 61
-11 38 4 74 9 81 12 17 6 24 63 7 63 -7 0 -13 7 -13 15 0 17 16 20 24 6 4 -5
18 -5 35 2 41 15 81 -3 81 -38 0 -28 23 -34 45 -11 12 11 9 21 -18 62 -25 38
-40 50 -70 57 -27 7 -37 14 -35 26 3 12 14 15 48 13 26 -2 72 6 112 19 37 13
70 20 73 17 3 -3 -2 -38 -10 -77 -18 -78 -15 -101 12 -101 16 0 18 -12 18
-132 1 -73 4 -149 8 -169 7 -35 7 -36 -35 -49 -24 -7 -50 -15 -58 -18 -8 -3
-17 -6 -20 -7 -3 0 -18 -8 -35 -16 -16 -9 -58 -26 -92 -39 -35 -12 -63 -26
-63 -31 0 -5 -8 -9 -17 -9 -22 -1 -97 -37 -140 -67 -17 -13 -36 -23 -42 -23
-6 0 -32 -13 -58 -30 -26 -16 -55 -30 -64 -30 -10 0 -47 22 -83 49 -91 69
-160 94 -266 95 -77 1 -92 -2 -152 -32 -77 -38 -128 -91 -167 -172 -23 -49
-25 -66 -24 -161 l1 -107 -39 -28 c-21 -16 -39 -34 -39 -40 0 -7 -6 -14 -13
-17 -8 -3 -35 -34 -61 -69 -26 -34 -56 -74 -67 -88 l-20 -25 331 -3 c289 -2
333 0 347 13 23 24 11 27 -36 10 -46 -16 -97 -11 -105 12 -7 18 2 20 109 26
50 3 82 3 72 0 -22 -6 -12 -23 14 -23 39 0 165 126 203 203 14 30 26 63 26 75
0 11 4 24 10 27 27 17 -3 -120 -39 -179 -30 -48 -90 -102 -151 -135 l-55 -31
1598 0 1597 0 0 1400 c0 770 -2 1400 -5 1400 -2 0 -38 -13 -79 -30 -42 -16
-110 -39 -153 -50 -93 -25 -273 -39 -273 -21 0 17 56 126 72 137 7 6 65 30
128 54 98 36 130 43 213 48 l97 5 0 173 c0 139 -3 174 -13 174 -8 0 -22 9 -31
19 -17 19 -17 20 11 23 l28 3 3 1046 2 1045 -52 14 c-29 7 -72 12 -95 11 -48
-3 -63 15 -63 73 0 31 -3 36 -22 36 -13 0 -36 7 -52 15 -22 12 -37 13 -56 6
-24 -8 -153 -7 -293 3 -43 3 -48 1 -53 -21 -7 -27 -49 -42 -67 -24 -14 14 -15
109 -3 899 l9 572 -1602 0 c-1394 0 -1605 -2 -1624 -15 -30 -19 -157 -37 -210
-29 -23 4 -52 13 -64 20 -12 8 -29 11 -38 8 -8 -4 -21 -1 -29 5 -7 6 -16 8
-19 5 -3 -4 -3 -171 0 -373 5 -328 4 -370 -11 -405 -9 -22 -19 -74 -23 -115
-3 -42 -10 -84 -15 -94 -7 -13 -3 -28 12 -53 18 -31 20 -46 14 -117 -6 -88
-35 -200 -58 -232 -14 -20 -14 -20 -36 0 -18 16 -23 17 -30 5 -6 -8 -10 -33
-11 -55 -1 -44 -5 -73 -20 -155 -6 -30 -12 -62 -13 -69 -2 -8 -10 -19 -18 -24
-19 -13 -44 12 -78 77 -14 26 -28 50 -33 52 -12 8 -28 -47 -40 -141 -13 -101
-19 -115 -45 -109 -9 3 -30 -7 -46 -21 -35 -30 -39 -31 -76 -4 -26 20 -32 20
-79 9 -40 -9 -55 -19 -66 -40 -8 -15 -23 -30 -35 -33 -34 -9 -27 -62 10 -84
38 -22 49 -57 25 -83 -14 -16 -15 -20 -4 -24 8 -2 57 -18 110 -35 82 -26 102
-29 134 -20 l37 11 -20 21 c-11 12 -22 31 -24 42 -4 24 -35 22 -90 -6 -37 -19
-37 -19 -52 3 -25 36 -20 82 13 117 33 35 68 40 111 15 27 -16 29 -16 62 10
19 14 46 26 60 26 17 0 27 7 31 19 2 10 17 27 32 37 25 16 30 16 54 3 51 -29
29 -79 -35 -79 l-35 0 16 -30 c8 -16 15 -40 15 -53 0 -13 9 -32 20 -42 11 -10
20 -28 20 -40 0 -15 8 -25 23 -29 36 -10 127 -7 149 5 28 15 208 1 208 -16 0
-7 -14 -18 -31 -25 -22 -10 -27 -15 -17 -21 9 -6 6 -9 -11 -9 -16 0 -21 4 -18
14 8 21 -15 26 -36 8 -42 -37 -318 -36 -1207 4 -179 8 -345 14 -369 14 -43 0
-43 0 -37 30 6 30 -11 83 -24 75 -4 -2 -14 1 -23 8 -18 13 -19 26 -37 297 -15
217 -27 344 -39 405 -5 28 -12 161 -15 297 -3 136 -10 256 -14 268 -5 13 -13
-115 -20 -302 -12 -325 -25 -477 -41 -507 -16 -27 -31 31 -42 154 -11 124 -29
674 -35 1050 -2 138 -6 278 -9 313 l-7 62 -816 0 -817 0 3 -607z m1315 487 c4
-16 2 -40 -3 -52 -9 -24 -10 -21 -16 45 -4 44 11 50 19 7z m2368 -27 c13 -11
15 -22 8 -51 -4 -20 -7 -46 -5 -57 2 -11 -1 -28 -6 -38 -6 -12 -5 -23 3 -33 9
-11 10 -17 1 -22 -7 -5 -10 -56 -7 -168 l3 -160 -29 -16 c-22 -13 -29 -24 -29
-47 0 -38 -16 -48 -31 -19 -18 33 -7 617 12 629 17 10 59 1 80 -18z m2639 -50
c175 -54 261 -133 243 -225 -7 -38 -19 -45 -88 -53 -123 -13 -190 -37 -251
-88 -16 -14 -44 -28 -61 -31 -18 -4 -33 -11 -33 -16 0 -14 -254 -19 -640 -12
-342 6 -389 9 -412 24 -27 18 -27 18 -83 -34 -67 -61 -173 -194 -210 -263 -50
-94 -70 -245 -52 -395 6 -44 5 -50 -4 -30 -6 14 -13 79 -16 145 -5 104 -3 131
16 200 41 149 115 256 266 387 125 109 219 170 370 243 149 72 271 115 411
144 142 29 143 29 319 26 125 -2 174 -7 225 -22z m-5013 -45 c-3 -8 -6 -5 -6
6 -1 11 2 17 5 13 3 -3 4 -12 1 -19z m5404 -285 c34 -50 73 -157 66 -184 -3
-10 0 -20 6 -22 7 -2 12 -50 13 -133 2 -117 1 -121 -5 -44 -9 104 -36 250 -56
296 -7 18 -30 62 -50 96 -40 67 -22 61 26 -9z m-498 -90 c-7 -2 -19 -2 -25 0
-7 3 -2 5 12 5 14 0 19 -2 13 -5z m248 -81 c24 -11 50 -26 57 -35 14 -17 15
-17 -97 -32 -109 -14 -220 -101 -257 -202 -9 -27 -24 -56 -33 -66 -11 -14 -17
-47 -19 -122 l-4 -104 26 12 c25 12 26 15 26 100 0 80 3 94 36 162 59 126 160
201 286 212 143 14 260 -124 262 -307 1 -122 -28 -186 -132 -289 -58 -58 -80
-86 -71 -91 19 -12 -43 -46 -136 -75 -76 -23 -151 -67 -231 -134 -125 -105
-357 -243 -499 -296 -80 -30 -327 -75 -405 -74 l-55 1 78 19 c75 18 165 61
254 121 23 15 52 32 65 37 26 10 295 189 404 269 39 29 77 65 84 80 21 45 21
122 0 152 -42 60 -91 174 -102 240 -33 191 74 392 231 437 60 17 175 9 232
-15z m-7160 -187 c1 -17 -18 -17 -25 0 -4 11 -1 15 10 13 8 -2 15 -7 15 -13z
m5803 -53 c3 -5 -18 -39 -46 -75 l-51 -67 -93 0 c-51 0 -99 -3 -108 -6 -25 -9
-31 24 -10 47 22 24 120 76 179 95 46 15 121 18 129 6z m-197 -224 c38 -41 58
-95 42 -114 -6 -8 -15 -14 -18 -14 -9 0 -91 124 -91 137 0 10 14 20 31 22 3 1
19 -14 36 -31z m-4787 -34 c0 -21 -4 -33 -10 -29 -17 10 -11 65 7 65 2 0 3
-16 3 -36z m0 -104 c0 -16 -4 -30 -10 -30 -11 0 -14 43 -3 53 11 12 13 8 13
-23z m3579 -12 c35 -38 38 -54 14 -81 -15 -16 -18 -41 -19 -161 -1 -102 -6
-157 -18 -198 -20 -67 -27 -74 -58 -54 -13 8 -51 18 -86 22 -59 6 -64 5 -87
-20 -30 -33 -43 -33 -55 0 -13 33 2 62 38 70 15 3 38 10 52 14 14 5 41 11 60
12 l35 3 0 175 c0 147 3 181 18 213 24 49 63 51 106 5z m1064 -115 c7 -39 1
-40 -11 -4 -6 17 -7 31 -3 31 5 0 11 -12 14 -27z m867 -63 c-8 -5 -19 -10 -25
-10 -5 0 -3 5 5 10 8 5 20 10 25 10 6 0 3 -5 -5 -10z m-830 -35 c0 -5 -5 -3
-10 5 -5 8 -10 20 -10 25 0 6 5 3 10 -5 5 -8 10 -19 10 -25z m210 -6 c0 -5 -7
-9 -15 -9 -9 0 -15 9 -15 21 0 18 2 19 15 9 8 -7 15 -16 15 -21z m566 18 c-11
-7 -37 -28 -60 -47 -22 -19 -36 -28 -31 -20 10 17 48 49 79 67 27 16 37 16 12
0z m2008 -7 c8 -8 2 -19 -23 -42 -30 -27 -39 -30 -80 -25 -25 3 -86 1 -135 -4
-97 -10 -116 -4 -116 37 0 13 1 24 3 25 1 1 54 7 117 14 126 14 217 12 234 -5z
m-3226 -47 c2 -7 -2 -15 -10 -17 -7 -2 -30 -9 -52 -16 -32 -10 -41 -10 -53 3
-20 20 -7 40 23 34 12 -2 29 0 36 5 18 11 50 6 56 -9z m2092 -19 c0 -31 -23
-28 -28 4 -2 15 2 22 12 22 11 0 16 -9 16 -26z m-2372 -15 c-2 -6 -8 -10 -13
-10 -5 0 -11 4 -13 10 -2 6 4 11 13 11 9 0 15 -5 13 -11z m772 -9 c6 -11 8
-20 6 -20 -3 0 -10 9 -16 20 -6 11 -8 20 -6 20 3 0 10 -9 16 -20z m50 -77 c0
-24 -25 -9 -28 17 -3 21 -2 22 12 11 9 -7 16 -20 16 -28z m-683 -8 c45 -13 51
-19 57 -48 3 -18 2 -47 -3 -64 -11 -38 -4 -73 14 -73 20 0 36 26 42 69 5 34 9
40 35 45 109 22 128 2 129 -139 0 -55 6 -120 12 -145 12 -44 13 -45 54 -48 46
-3 141 9 245 32 64 14 156 10 186 -8 27 -16 11 -36 -40 -49 -49 -13 -237 -46
-386 -68 -35 -5 -73 -14 -85 -21 -21 -11 -21 -11 -2 -22 57 -33 78 -97 43
-132 -13 -13 -174 -45 -183 -36 -9 9 -5 133 5 152 7 14 6 19 -9 23 -23 6 -221
-10 -284 -23 -62 -13 -233 -13 -256 0 -23 12 -18 46 13 85 l22 27 80 -10 c43
-6 114 -8 156 -5 76 6 78 6 103 44 30 46 30 45 5 76 -17 22 -19 35 -14 92 3
36 0 88 -6 116 -23 101 -24 118 -4 132 21 16 11 16 71 -2z m2348 -25 c-3 -5
-15 -10 -26 -10 -11 0 -17 5 -14 10 3 6 15 10 26 10 11 0 17 -4 14 -10z m-65
-20 c-19 -13 -30 -13 -30 0 0 6 10 10 23 10 18 0 19 -2 7 -10z m138 -39 c10
-6 8 -10 -10 -14 -36 -10 -42 -8 -28 8 14 17 20 18 38 6z m172 5 c0 -11 -19
-15 -25 -6 -3 5 1 10 9 10 9 0 16 -2 16 -4z m202 -31 c11 -14 24 -25 29 -25
26 0 302 -197 294 -210 -4 -7 39 -50 79 -81 13 -9 17 -10 12 -1 -15 26 13 10
43 -23 45 -52 70 -106 77 -170 6 -52 9 -56 29 -51 13 3 27 0 33 -7 14 -17 45
-126 47 -167 2 -19 15 -71 31 -115 15 -44 29 -86 31 -94 2 -8 6 -11 10 -7 14
14 1 98 -22 149 -32 67 -31 81 3 106 15 12 32 25 39 31 7 5 19 10 28 10 18 0
21 -78 4 -161 -6 -30 -10 -85 -10 -123 1 -38 -3 -83 -8 -100 -6 -17 -13 -44
-17 -61 -6 -27 -8 -23 -20 34 -7 35 -25 98 -38 140 -14 42 -30 96 -36 120 -7
25 -39 83 -71 129 -33 46 -58 89 -56 95 7 22 -248 149 -343 171 -215 48 -394
22 -666 -97 -106 -47 -305 -180 -420 -282 -189 -167 -304 -397 -304 -611 0
-151 31 -241 118 -334 l48 -53 123 139 c68 76 149 165 179 197 73 78 122 173
122 241 0 89 32 154 96 196 13 9 35 33 49 54 36 52 75 85 158 128 105 55 194
73 367 73 110 0 158 -4 199 -18 66 -21 75 -21 68 -3 -14 35 62 -12 126 -78
133 -138 177 -209 211 -342 18 -68 22 -289 7 -299 -15 -9 -23 13 -31 86 -6 50
-15 78 -33 102 -14 18 -32 50 -41 70 -22 53 -62 103 -99 122 -18 9 -43 23 -57
31 -14 7 -39 14 -56 14 -31 0 -95 -18 -104 -30 -3 -3 -21 -16 -40 -27 -19 -12
-57 -48 -85 -80 -27 -32 -57 -67 -68 -78 -32 -35 -112 -138 -162 -210 -27 -38
-54 -73 -59 -77 -22 -15 -73 -7 -121 19 -60 32 -152 37 -200 11 -22 -12 -26
-18 -15 -21 8 -3 53 -18 100 -32 85 -27 140 -64 140 -94 0 -9 -31 -45 -69 -81
-63 -60 -252 -291 -448 -547 -12 -15 -34 -44 -50 -65 -15 -20 -36 -49 -45 -65
-31 -50 -43 -67 -70 -98 -16 -16 -28 -34 -28 -38 0 -5 -27 -48 -60 -96 -33
-48 -60 -93 -60 -99 0 -5 -4 -12 -9 -14 -11 -4 -71 -123 -71 -142 0 -8 -3 -16
-7 -18 -5 -1 -16 -20 -26 -41 -20 -44 -29 -43 -107 1 -215 121 -279 155 -307
159 -43 7 -42 0 7 -112 22 -49 40 -95 40 -102 0 -7 -11 -19 -25 -25 -14 -6
-25 -15 -25 -20 0 -16 -22 -7 -46 20 -13 15 -40 53 -59 85 -20 32 -70 103
-113 158 -42 54 -102 145 -133 202 -49 92 -54 106 -42 123 11 17 10 29 -3 75
-9 30 -20 59 -25 65 -5 6 -6 13 -3 16 3 4 -1 19 -9 35 -23 45 -59 239 -64 349
-12 229 101 611 251 849 17 28 66 120 109 205 72 145 102 193 251 402 76 106
198 227 309 303 57 40 87 67 87 80 l1 20 8 -20 c5 -11 11 -34 15 -51 6 -26 4
-32 -13 -37 -11 -3 -21 -1 -23 4 -5 15 -178 -121 -204 -161 -30 -45 -29 -84 2
-88 20 -3 189 47 249 73 17 8 73 31 125 53 169 70 274 114 308 128 18 8 45 14
60 14 22 0 24 2 12 11 -11 8 -6 9 18 4 121 -24 405 -35 417 -16 3 6 15 11 26
11 10 0 19 4 19 9 0 13 -56 54 -102 75 -21 9 -38 21 -38 26 0 6 3 9 8 9 11 -3
66 20 140 57 37 18 71 33 76 34 4 0 17 -11 28 -25z m-2964 -22 c2 -14 -4 -26
-17 -33 -29 -15 -26 -47 9 -100 45 -68 37 -133 -15 -114 -16 7 -19 14 -35 98
-11 54 -7 146 7 168 10 18 48 3 51 -19z m1142 -41 c-1 -21 -19 -33 -43 -27
-30 8 -27 22 7 35 21 8 36 5 36 -8z m-1720 -43 c0 -10 -7 -19 -15 -19 -15 0
-21 31 -9 43 11 10 24 -3 24 -24z m3277 25 c-3 -3 -12 -4 -19 -1 -8 3 -5 6 6
6 11 1 17 -2 13 -5z m-3246 -98 c24 -53 -41 -92 -75 -45 -8 12 -19 18 -24 15
-15 -9 -42 4 -42 20 0 20 27 29 45 14 11 -9 19 -8 37 4 31 22 47 20 59 -8z
m-2306 -43 c2 -8 -5 -17 -18 -22 -12 -5 -39 -21 -60 -35 -46 -32 -62 -34 -47
-6 8 15 8 20 -1 20 -7 0 -2 11 11 25 12 13 26 23 29 21 3 -2 14 -1 24 3 29 11
56 8 62 -6z m4745 -47 c0 -6 -7 -2 -15 8 -8 11 -15 25 -15 30 0 6 7 2 15 -8 8
-11 15 -25 15 -30z m-4765 -26 c3 -5 -1 -10 -9 -10 -9 0 -16 5 -16 10 0 6 4
10 9 10 6 0 13 -4 16 -10z m65 -50 c0 -6 -17 -21 -37 -33 -34 -20 -36 -22 -15
-25 12 -2 22 -10 22 -18 0 -8 5 -14 11 -14 6 0 9 -7 6 -15 -4 -8 -2 -17 3 -20
12 -8 -59 -116 -112 -171 -37 -39 -41 -41 -57 -25 -19 19 -29 145 -12 156 20
12 11 22 -14 17 -35 -6 -31 5 8 22 l32 14 -28 11 c-16 6 -26 15 -22 21 3 5 12
7 20 4 9 -4 30 9 52 32 34 33 44 37 86 37 26 0 47 4 47 8 0 5 2 9 5 9 3 0 5
-5 5 -10z m2518 -370 c3 -167 -1 -210 -17 -210 -14 0 -29 91 -36 215 -7 121 2
169 33 163 15 -3 17 -20 20 -168z m3315 83 c-7 -2 -19 -2 -25 0 -7 3 -2 5 12
5 14 0 19 -2 13 -5z m-2808 -43 c9 -14 -23 -62 -35 -55 -14 9 -12 39 2 53 15
15 25 15 33 2z m2350 -32 c-16 -12 -45 -38 -63 -58 -18 -19 -59 -62 -91 -95
-32 -33 -77 -88 -101 -123 -47 -68 -63 -76 -32 -15 33 63 171 233 190 233 5 0
17 9 28 21 17 19 80 58 94 58 3 0 -8 -9 -25 -21z m-6151 -33 c9 -14 13 -25 8
-25 -5 0 -14 11 -20 25 -6 14 -10 25 -8 25 2 0 11 -11 20 -25z m836 4 c-7 -11
-18 -18 -25 -15 -8 3 -17 1 -20 -4 -9 -15 -27 -12 -22 3 2 6 9 12 15 12 6 0
17 6 24 13 6 6 18 12 25 12 11 0 11 -5 3 -21z m-295 -79 c8 -16 15 -44 14 -62
0 -29 -3 -25 -19 27 -22 68 -22 65 -15 65 2 0 11 -13 20 -30z m-505 -10 c0 -5
-4 -10 -9 -10 -6 0 -13 5 -16 10 -3 6 1 10 9 10 9 0 16 -4 16 -10z m4292 -1
c-4 -4 -57 -18 -118 -33 -161 -38 -246 -33 -157 9 24 12 68 19 131 21 52 2 96
5 99 7 2 3 15 4 28 3 13 0 21 -4 17 -7z m-3795 -101 c-3 -8 -6 -5 -6 6 -1 11
2 17 5 13 3 -3 4 -12 1 -19z m2800 -64 c-3 -3 -12 -4 -19 -1 -8 3 -5 6 6 6 11
1 17 -2 13 -5z m-3680 -50 c-3 -3 -12 -4 -19 -1 -8 3 -5 6 6 6 11 1 17 -2 13
-5z m1323 -9 c0 -8 6 -15 13 -15 8 0 7 -3 -3 -9 -8 -6 -18 -7 -22 -5 -12 7
-10 44 2 44 6 0 10 -7 10 -15z m-1375 -15 c3 -5 -1 -10 -9 -10 -9 0 -16 5 -16
10 0 6 4 10 9 10 6 0 13 -4 16 -10z m1105 -20 c0 -5 -4 -10 -10 -10 -5 0 -10
5 -10 10 0 6 5 10 10 10 6 0 10 -4 10 -10z m-20 -15 c17 -20 7 -29 -36 -31
-20 0 -40 -7 -44 -15 -5 -7 -12 -10 -17 -6 -4 5 -1 12 6 16 7 5 11 13 7 19 -3
5 2 13 11 16 9 4 20 2 23 -4 5 -8 9 -6 13 4 8 20 21 20 37 1z m320 -17 c0 -15
4 -18 18 -14 16 7 16 6 -1 -11 -15 -16 -19 -16 -27 -3 -13 20 -13 63 0 55 6
-3 10 -15 10 -27z m1298 -64 c213 -37 246 -55 228 -129 -5 -20 -13 -25 -36
-25 -16 0 -32 -5 -35 -11 -4 -5 -28 -20 -53 -32 -46 -22 -47 -24 -50 -71 -3
-45 0 -52 36 -90 52 -54 124 -171 120 -193 -2 -10 -13 -19 -26 -21 -12 -2 -22
-7 -22 -12 0 -12 96 -79 125 -86 18 -5 25 -13 25 -31 0 -22 -3 -24 -22 -18
-13 4 -59 12 -103 19 -44 6 -86 15 -94 20 -13 8 -45 14 -96 19 -52 4 -150 87
-102 87 8 0 21 8 30 18 15 17 15 20 -13 44 -16 14 -41 29 -55 32 -22 6 -30 21
-26 49 0 4 -5 8 -11 9 -58 7 -77 8 -105 8 -32 0 -43 12 -23 25 6 3 10 12 10
20 0 9 -19 16 -57 21 -69 8 -113 41 -198 144 -47 58 -69 75 -136 107 -135 65
-103 89 156 119 147 17 355 8 533 -22z m-1617 7 c4 -3 9 -17 12 -31 6 -22 5
-21 -6 3 -8 19 -17 27 -29 24 -9 -3 -23 2 -29 10 -11 12 -8 13 17 7 16 -3 32
-9 35 -13z m-46 -16 c16 -13 26 -27 22 -31 -4 -4 -2 -13 5 -21 9 -11 8 -13 -3
-11 -9 2 -13 -4 -11 -14 2 -11 -3 -18 -13 -18 -20 0 -19 -10 2 -25 15 -11 14
-14 -6 -34 -17 -17 -26 -20 -34 -12 -18 18 -29 13 -18 -8 9 -16 8 -18 -8 -14
-13 3 -21 -2 -26 -16 -3 -12 -14 -21 -23 -21 -12 0 -13 3 -4 12 20 20 14 38
-13 38 -16 0 -25 -6 -25 -15 0 -8 -4 -15 -10 -15 -36 0 17 50 54 51 17 0 25 3
19 6 -7 2 -13 8 -13 13 0 14 63 80 76 80 10 0 10 8 -1 40 -16 46 -11 49 30 15z
m392 -7 c-3 -8 -6 -5 -6 6 -1 11 2 17 5 13 3 -3 4 -12 1 -19z m6251 -54 c17
-59 15 -88 -8 -109 -20 -18 -20 -17 -20 75 0 97 8 106 28 34z m-6792 -1 c-8
-15 -15 -22 -16 -15 0 17 20 55 27 49 2 -3 -2 -18 -11 -34z m974 8 c0 -27 -19
-36 -37 -18 -18 18 -9 37 18 37 12 0 19 -7 19 -19z m-1980 -81 c0 -5 -5 -10
-11 -10 -5 0 -7 5 -4 10 3 6 8 10 11 10 2 0 4 -4 4 -10z m1842 -182 c-9 -9
-12 -7 -12 12 0 19 3 21 12 12 9 -9 9 -15 0 -24z m-2132 -8 c-6 -12 -14 -20
-17 -17 -2 3 1 14 8 26 17 26 24 19 9 -9z m40 1 c0 -6 -4 -13 -10 -16 -5 -3
-10 1 -10 9 0 9 5 16 10 16 6 0 10 -4 10 -9z m5203 -34 c-2 -4 -5 -7 -8 -7 -3
0 -9 0 -15 0 -5 0 -10 4 -10 9 0 5 8 8 18 7 9 -2 16 -6 15 -9z m-3036 -218 c3
-61 2 -61 -17 -44 -15 13 -17 22 -10 36 6 10 10 29 10 43 0 14 3 26 8 26 4 0
8 -28 9 -61z m2438 -19 c-3 -5 -21 -10 -40 -10 -19 0 -37 5 -40 10 -4 6 12 10
40 10 28 0 44 -4 40 -10z m-1256 -189 c13 -10 22 -24 20 -30 -3 -9 -13 -6 -31
8 -14 12 -34 21 -43 21 -9 0 -13 5 -10 10 9 15 37 12 64 -9z m-3335 -56 c-4
-8 -10 -15 -15 -15 -4 0 -6 7 -3 15 4 8 10 15 15 15 4 0 6 -7 3 -15z m7956
-51 c9 -9 -25 -24 -57 -24 -35 0 -53 17 -32 31 13 9 78 3 89 -7z m-5660 -94
c0 -5 -2 -10 -4 -10 -3 0 -8 5 -11 10 -3 6 -1 10 4 10 6 0 11 -4 11 -10z
m-2295 -40 c3 -5 -3 -10 -15 -10 -12 0 -18 5 -15 10 3 6 10 10 15 10 5 0 12
-4 15 -10z m4005 -16 c54 -6 68 -10 59 -18 -8 -8 -229 13 -246 24 -18 11 48 9
187 -6z m-710 -30 c0 -22 -42 -60 -62 -56 -19 4 -29 47 -15 61 18 18 77 14 77
-5z m1050 0 c41 -2 130 -9 198 -14 68 -6 164 -10 215 -10 97 0 137 -6 137 -21
0 -18 -48 -28 -176 -38 -167 -13 -297 -1 -383 34 -35 15 -78 28 -95 29 -17 2
-47 8 -66 14 -19 6 -46 13 -60 16 -25 5 84 0 230 -10z m765 -39 c-5 -2 -27 -8
-47 -14 -31 -8 -38 -7 -38 5 0 10 13 14 48 13 26 0 43 -2 37 -4z m-127 -26
c-10 -5 -18 -17 -18 -26 0 -13 -3 -13 -16 -2 -14 12 -14 14 2 26 10 7 25 13
33 13 13 -1 13 -2 -1 -11z m-1870 -24 c-3 -15 -1 -25 6 -25 16 0 66 -24 66
-31 0 -4 -13 -12 -29 -19 -23 -9 -33 -9 -49 1 -21 13 -28 9 -77 -38 -25 -26
-50 -31 -41 -8 7 20 2 19 -44 -10 -22 -14 -50 -25 -63 -25 -20 0 -67 -32 -67
-46 0 -17 79 -34 153 -33 59 1 90 -3 112 -15 17 -9 37 -16 45 -15 10 0 11 2 3
6 -7 2 -13 11 -13 20 0 9 -6 12 -18 9 -13 -4 -28 5 -50 29 -18 19 -32 37 -32
41 0 4 15 4 33 1 17 -3 26 -3 19 0 -8 3 -4 11 13 25 29 23 45 16 28 -11 -10
-15 -5 -21 32 -39 44 -21 67 -64 46 -85 -18 -18 -13 -26 27 -36 54 -16 109
-13 137 5 18 11 25 13 25 4 0 -8 6 -9 18 -5 13 6 250 24 259 20 1 -1 -5 -18
-14 -38 l-17 -37 -97 0 c-55 0 -101 4 -104 10 -8 13 -45 13 -45 1 0 -6 5 -13
11 -17 8 -4 7 -9 -2 -16 -9 -6 3 -8 37 -4 92 11 112 -16 42 -58 -31 -18 -44
-22 -50 -13 -5 9 -11 6 -22 -8 -15 -19 -13 -22 14 -46 17 -14 30 -27 30 -30 0
-2 -33 -5 -72 -5 -40 -1 -97 -5 -125 -9 -40 -6 -53 -4 -53 5 0 8 -9 11 -25 8
-17 -4 -25 -1 -25 9 0 15 37 32 65 30 29 -3 28 20 0 27 -36 9 -62 0 -68 -24
-3 -11 -10 -20 -16 -20 -6 0 -8 7 -5 15 5 12 0 12 -26 5 -26 -7 -36 -5 -52 9
-19 19 -19 19 14 26 18 4 43 14 56 22 13 8 30 12 37 9 8 -3 12 0 9 7 -2 7 6
17 18 22 28 13 33 29 13 49 -9 9 -12 16 -5 16 22 0 -3 23 -48 43 -31 13 -47
16 -50 8 -2 -6 -15 -11 -28 -11 -15 0 -24 -6 -24 -15 0 -8 -7 -15 -15 -15 -8
0 -15 5 -15 10 0 6 -6 10 -13 10 -7 0 -20 9 -30 20 -20 24 -54 26 -92 6 -18
-9 -58 -15 -108 -15 -62 0 -83 -4 -89 -16 -5 -8 -14 -15 -19 -15 -6 0 -24 -9
-41 -21 -33 -24 -48 -19 -27 8 13 17 13 17 -13 0 -15 -9 -40 -19 -56 -20 -16
-2 -39 -11 -52 -20 -27 -19 -55 -23 -45 -7 3 6 2 10 -4 10 -6 0 -15 -9 -21
-20 -6 -11 -15 -18 -20 -15 -12 7 -47 -28 -52 -51 -5 -26 -28 -30 -28 -5 0 12
-4 21 -9 21 -18 0 -41 -12 -41 -22 0 -6 6 -5 15 2 17 14 20 3 6 -19 -5 -8 -21
-15 -36 -17 -15 -2 -36 -12 -47 -23 -22 -25 -28 -26 -28 -6 0 8 16 30 37 50
20 19 33 35 29 35 -18 0 -66 -32 -66 -44 0 -8 -14 -19 -30 -25 -29 -10 -30 -9
-24 17 6 23 3 22 -21 -13 -37 -53 -96 -95 -136 -95 -10 0 -21 -5 -25 -11 -3
-6 -30 -22 -58 -35 l-51 -24 -17 21 c-15 17 -18 18 -18 5 0 -9 -3 -15 -7 -14
-5 1 -23 -6 -41 -16 -19 -9 -36 -15 -39 -13 -3 3 8 12 24 21 20 11 23 15 10
16 -10 0 -15 5 -12 10 4 6 -18 1 -47 -11 -79 -31 -198 -87 -198 -94 0 -3 9 -1
20 5 11 6 20 9 20 6 0 -2 35 13 78 33 42 21 88 41 102 45 14 3 -30 -21 -98
-55 -68 -33 -122 -63 -119 -65 2 -2 20 3 40 11 41 17 72 20 46 5 -10 -6 -57
-24 -105 -41 -49 -17 -97 -37 -108 -44 -13 -10 -26 -11 -44 -4 -18 7 -29 6
-42 -6 -10 -9 -20 -11 -26 -6 -13 13 -63 18 -61 6 1 -5 5 -9 9 -8 4 2 5 -4 2
-12 -4 -8 -10 -12 -16 -9 -13 8 -37 -27 -30 -44 3 -10 0 -13 -9 -10 -7 2 -22
-4 -33 -14 -24 -22 -37 -23 -30 -3 5 11 2 14 -12 8 -11 -3 -23 -11 -27 -17 -5
-6 -6 -2 -1 9 4 11 9 41 10 68 3 37 0 47 -12 47 -8 0 -12 5 -9 11 5 7 -5 8
-32 3 -40 -7 -56 -14 -32 -14 8 0 14 -10 14 -24 0 -13 -4 -22 -8 -19 -5 3 -14
-3 -22 -13 -10 -14 -10 -21 -2 -26 9 -5 9 -10 -1 -20 -6 -6 -12 -21 -13 -33 0
-11 -3 -14 -6 -7 -8 19 -23 14 -23 -8 0 -14 -7 -20 -21 -20 -14 0 -19 5 -16
15 4 8 2 17 -3 20 -5 3 -9 13 -8 23 0 9 -3 54 -6 99 -5 76 -4 84 15 94 12 6
23 8 26 5 3 -3 12 2 21 10 11 12 17 13 22 3 12 -18 117 -7 133 15 15 21 91 34
101 17 12 -19 60 -12 119 18 31 16 58 27 60 25 2 -3 33 4 68 15 35 10 98 27
139 36 78 19 173 56 200 79 21 18 67 28 75 16 9 -14 50 -3 128 36 37 19 79 34
93 34 30 0 229 111 319 179 74 55 104 89 105 118 0 36 22 73 46 79 26 7 114
-48 114 -71 0 -21 -19 -28 -36 -14 -8 6 -30 12 -49 13 -26 1 -36 -4 -44 -21
-9 -20 -8 -23 9 -24 11 -1 23 -2 28 -3 4 -1 48 -6 98 -10 99 -9 114 -5 170 44
18 15 64 40 104 55 39 15 106 51 148 80 43 29 79 54 81 54 2 1 1 -10 -1 -24z
m1625 -28 c4 -10 21 -12 73 -6 140 16 145 15 181 -39 64 -95 112 -308 91 -406
-6 -28 -14 -59 -19 -68 -8 -14 -1 -17 49 -23 154 -17 225 -37 314 -89 48 -28
87 -55 87 -59 1 -12 69 -70 104 -88 19 -10 26 -19 18 -23 -6 -4 -11 -17 -11
-28 l0 -21 -22 20 c-13 11 -38 23 -57 27 -29 5 -33 4 -28 -13 6 -23 -7 -19
-92 24 -28 14 -57 25 -65 25 -8 0 -16 5 -18 11 -3 10 -34 -6 -105 -56 -68 -48
-118 -177 -111 -284 11 -154 120 -277 290 -328 27 -8 48 -19 46 -24 -5 -15 -3
-15 -103 16 -105 32 -150 54 -209 99 -24 18 -147 85 -272 148 -126 64 -287
148 -359 187 -125 69 -310 152 -368 167 -17 4 -32 16 -38 31 -13 35 -10 112 5
156 18 49 12 47 -14 -4 -26 -50 -34 -46 -21 12 l10 44 -50 -52 c-66 -68 -98
-75 -171 -36 -85 45 -133 100 -158 179 -11 38 -28 76 -36 85 -13 14 -15 30 -9
76 10 92 17 97 189 138 56 13 122 35 148 49 53 27 317 94 538 136 169 33 186
34 193 17z m-2353 -27 c0 -5 -4 -10 -10 -10 -5 0 -10 5 -10 10 0 6 5 10 10 10
6 0 10 -4 10 -10z m2745 -10 c-3 -5 -12 -10 -20 -10 -7 0 -21 -7 -29 -16 -16
-16 -22 -8 -8 12 13 20 69 33 57 14z m-5065 -54 c0 -2 -7 -7 -16 -10 -8 -3
-12 -2 -9 4 6 10 25 14 25 6z m7471 -183 c-12 -20 -14 -14 -5 12 4 9 9 14 11
11 3 -2 0 -13 -6 -23z m-7319 -55 c-9 -9 -12 -7 -12 12 0 19 3 21 12 12 9 -9
9 -15 0 -24z m7268 -59 c-52 -104 -122 -219 -133 -219 -4 0 -6 3 -4 8 86 140
112 186 138 239 17 35 33 62 36 60 2 -3 -14 -43 -37 -88z m-4913 -5 c-3 -3
-12 -4 -19 -1 -8 3 -5 6 6 6 11 1 17 -2 13 -5z m-157 -11 c0 -20 -99 -113
-119 -113 -12 0 -19 4 -16 10 4 6 10 8 15 5 4 -3 30 19 57 49 45 52 63 65 63
49z m197 1 c-3 -3 -12 -4 -19 -1 -8 3 -5 6 6 6 11 1 17 -2 13 -5z m393 -34 c0
-5 -12 -12 -27 -16 -16 -3 -34 -7 -40 -10 -15 -4 -15 -2 -7 20 7 18 74 23 74
6z m490 -69 c0 -15 -17 -22 -36 -14 -16 6 -16 7 2 14 27 11 34 10 34 0z
m-3270 -5 c0 -3 -4 -8 -10 -11 -5 -3 -10 -1 -10 4 0 6 5 11 10 11 6 0 10 -2
10 -4z m2924 -35 c3 -5 -1 -11 -9 -15 -9 -3 -15 0 -15 9 0 16 16 20 24 6z
m2616 -51 c-6 -11 -15 -20 -20 -20 -6 0 -5 9 2 20 7 11 16 20 21 20 4 0 3 -9
-3 -20z m-2423 -49 c11 -38 10 -42 -3 -37 -9 3 -22 -1 -30 -9 -11 -11 -27 -13
-62 -8 -26 3 -49 10 -52 14 -3 4 -12 7 -20 6 -32 -4 -138 24 -144 38 -7 20 68
21 115 1 39 -16 101 -14 107 3 2 6 9 11 17 11 7 0 18 7 25 15 19 23 33 13 47
-34z m-1698 -35 c-2 -2 -15 -9 -29 -15 -24 -11 -24 -11 -6 3 16 13 49 24 35
12z m2021 -47 c0 -12 -27 -11 -35 1 -11 17 5 32 21 19 8 -6 14 -15 14 -20z
m2312 -1 c-6 -6 -15 -8 -19 -4 -4 4 -1 11 7 16 19 12 27 3 12 -12z m-5462 8
c0 -3 -4 -8 -10 -11 -5 -3 -10 -1 -10 4 0 6 5 11 10 11 6 0 10 -2 10 -4z
m3257 -42 c-3 -3 -12 -4 -19 -1 -8 3 -5 6 6 6 11 1 17 -2 13 -5z m-150 -48
c26 -8 47 -32 39 -45 -4 -6 -27 2 -57 20 -28 16 -54 27 -59 24 -5 -3 -11 -1
-15 5 -10 17 38 30 55 15 8 -7 25 -16 37 -19z m-126 -7 c11 -11 18 -23 15 -27
-4 -3 -12 0 -18 6 -17 17 -28 15 -36 -9 -7 -17 -10 -18 -20 -7 -9 11 -8 19 4
36 19 27 28 28 55 1z m-2897 -24 c-4 -8 -1 -15 5 -15 21 0 11 -20 -29 -61 -22
-23 -40 -47 -40 -55 0 -7 -8 -18 -17 -23 -10 -6 -15 -11 -10 -11 4 0 -2 -9
-13 -20 -11 -11 -20 -31 -20 -45 0 -14 -5 -25 -12 -25 -9 0 -9 -3 -1 -11 8 -8
7 -18 -3 -37 -8 -15 -14 -39 -14 -54 0 -14 -6 -28 -12 -31 -10 -3 -10 -8 1
-23 7 -10 -12 8 -42 41 -31 33 -62 71 -69 85 -7 14 -23 34 -37 46 -18 15 -22
26 -17 40 7 15 9 16 13 4 3 -8 20 -29 37 -45 18 -17 31 -36 28 -43 -2 -7 3
-12 12 -12 10 0 13 -6 10 -15 -4 -8 -2 -15 3 -15 6 0 15 -12 22 -26 14 -31 33
-27 36 7 8 87 52 242 76 267 10 11 15 22 12 26 -3 3 2 8 11 12 9 3 16 11 16
18 0 6 10 16 23 22 32 16 37 16 31 -1z m776 11 c0 -2 -7 -7 -16 -10 -8 -3 -12
-2 -9 4 6 10 25 14 25 6z m2176 -53 c-7 -7 -26 7 -26 19 0 6 6 6 15 -2 9 -7
13 -15 11 -17z m-3880 -60 c-10 -10 -19 5 -10 18 6 11 8 11 12 0 2 -7 1 -15
-2 -18z m5889 5 c29 -13 28 -35 -1 -30 -34 5 -44 11 -44 27 0 18 11 19 45 3z
m1325 -292 c0 -17 11 -28 43 -44 88 -44 216 -196 243 -288 16 -57 16 -110 -1
-108 -5 1 -19 28 -31 60 -56 162 -155 284 -260 323 -40 15 -60 19 -68 11 -22
-22 -45 -11 -52 25 -3 20 -4 38 -1 41 2 3 24 -2 48 -10 46 -16 59 -14 59 10 0
8 5 12 10 9 6 -3 10 -16 10 -29z m-7350 -66 c-8 -6 -23 -15 -33 -21 -17 -9
-17 -8 -7 10 6 12 21 21 33 21 18 0 19 -2 7 -10z m-1070 -180 c0 -5 -4 -10
-10 -10 -5 0 -10 5 -10 10 0 6 5 10 10 10 6 0 10 -4 10 -10z m160 0 c0 -5 -5
-10 -11 -10 -5 0 -7 5 -4 10 3 6 8 10 11 10 2 0 4 -4 4 -10z m8231 -18 c52
-34 113 -100 136 -147 32 -68 -12 -56 -58 16 -30 48 -122 139 -140 139 -5 0
-9 5 -9 10 0 17 25 11 71 -18z m-1388 11 c2 -5 7 -21 11 -38 l6 -30 -20 24
c-21 24 -27 51 -11 51 6 0 12 -3 14 -7z m-5878 -23 c0 -7 -16 -18 -35 -22 -19
-5 -40 -15 -45 -22 -12 -16 -105 -49 -113 -41 -8 7 29 34 48 35 8 0 38 16 65
35 51 36 80 41 80 15z m6361 -1 c7 -12 -53 -79 -72 -79 -27 0 -23 20 11 54 38
38 50 43 61 25z m28 -60 c-33 -34 -64 -50 -64 -34 0 3 21 27 47 53 30 31 48
42 51 34 2 -8 -13 -31 -34 -53z m1090 -1 c19 -37 21 -45 8 -29 -31 38 -54 81
-44 81 5 0 21 -24 36 -52z m-690 -100 c-4 -13 -12 -26 -18 -30 -17 -12 -46 -9
-46 4 0 19 32 48 52 48 15 0 18 -5 12 -22z m818 -519 c24 -12 71 -41 104 -64
34 -24 93 -60 130 -81 95 -52 198 -117 202 -126 2 -4 8 -8 12 -8 24 0 280
-193 280 -211 0 -5 -24 2 -53 15 -29 12 -76 31 -105 40 -29 10 -58 24 -65 31
-7 7 -33 23 -58 35 -24 12 -53 30 -64 40 -19 17 -274 100 -306 100 -8 0 -36 7
-62 16 -40 13 -53 26 -97 89 -55 82 -59 100 -30 138 23 29 29 28 112 -14z
m-131 -100 l24 -21 -40 7 c-47 9 -49 10 -40 24 10 17 30 13 56 -10z m-11 -86
c0 -5 -30 -15 -66 -24 -75 -19 -74 -8 1 14 60 19 65 19 65 10z m204 -53 c28
-10 35 -35 13 -43 -34 -13 -97 16 -97 45 0 11 53 10 84 -2z"/>
<path d="M8804 6156 c-49 -22 -113 -85 -142 -140 -36 -69 -38 -189 -5 -252 82
-154 275 -164 385 -20 45 60 72 151 63 209 -9 54 -40 125 -68 155 -54 58 -160
79 -233 48z"/>
<path d="M6743 4980 c-13 -10 -23 -21 -23 -24 0 -13 41 -5 46 9 11 26 -1 34
-23 15z"/>
<path d="M10020 4001 c0 -28 15 -49 27 -38 8 8 -7 67 -18 67 -5 0 -9 -13 -9
-29z"/>
<path d="M10040 3926 c0 -21 11 -46 20 -46 10 0 0 49 -11 56 -5 3 -9 -1 -9
-10z"/>
<path d="M8812 3788 c-6 -6 -12 -17 -12 -24 0 -6 -38 -44 -85 -84 -47 -40 -84
-74 -83 -76 2 -1 24 2 49 7 56 12 93 45 126 115 26 55 28 85 5 62z"/>
<path d="M7421 3657 c-22 -45 -28 -97 -11 -97 5 0 14 8 19 18 11 21 26 122 18
122 -3 0 -15 -19 -26 -43z"/>
<path d="M5200 2830 c0 -5 5 -10 10 -10 6 0 10 5 10 10 0 6 -4 10 -10 10 -5 0
-10 -4 -10 -10z"/>
<path d="M5200 2656 c0 -2 7 -6 15 -10 8 -3 15 -1 15 4 0 6 -7 10 -15 10 -8 0
-15 -2 -15 -4z"/>
<path d="M5250 2635 c0 -8 5 -15 10 -15 6 0 10 7 10 15 0 8 -4 15 -10 15 -5 0
-10 -7 -10 -15z"/>
<path d="M4626 2535 c-11 -8 -15 -15 -10 -15 6 0 19 7 30 15 10 8 15 14 9 14
-5 0 -19 -6 -29 -14z"/>
<path d="M5438 2473 c7 -3 16 -2 19 1 4 3 -2 6 -13 5 -11 0 -14 -3 -6 -6z"/>
<path d="M4420 2435 c-11 -13 -10 -14 4 -9 9 3 16 10 16 15 0 13 -6 11 -20 -6z"/>
<path d="M3515 2066 c-16 -6 -25 -14 -20 -17 6 -3 26 3 45 13 40 20 21 24 -25
4z"/>
<path d="M3460 2040 c-9 -6 -10 -10 -3 -10 6 0 15 5 18 10 8 12 4 12 -15 0z"/>
<path d="M3010 1910 c0 -5 5 -10 10 -10 6 0 10 5 10 10 0 6 -4 10 -10 10 -5 0
-10 -4 -10 -10z"/>
<path d="M6588 2419 c-2 -6 -51 -31 -108 -55 -86 -37 -134 -64 -180 -101 -8
-7 25 -23 48 -23 13 0 32 5 42 10 11 6 83 13 161 16 79 3 170 9 203 14 57 7
54 8 -46 9 -60 0 -108 5 -108 9 0 14 35 42 52 42 9 0 18 7 22 15 3 8 2 15 -3
15 -13 0 -51 36 -51 49 0 14 -27 15 -32 0z"/>
<path d="M475 6789 c-213 -18 -235 -21 -235 -38 0 -9 28 -41 62 -72 l62 -56 4
-74 c3 -49 9 -77 18 -82 20 -12 18 -27 -17 -90 l-31 -57 31 -124 c37 -150 78
-275 97 -297 8 -8 14 -21 14 -27 0 -6 14 -21 30 -34 38 -28 38 -49 -1 -72
l-32 -19 23 -17 c14 -10 21 -24 17 -33 -4 -11 9 -19 56 -32 34 -9 76 -19 94
-22 34 -5 32 -8 48 70 2 11 -7 23 -26 32 -15 9 -33 24 -39 35 -9 16 -6 25 14
45 14 14 33 25 42 25 12 0 14 5 8 18 -12 25 -6 119 11 177 25 89 47 247 40
300 -9 71 -24 107 -43 100 -22 -8 -52 4 -52 22 0 8 9 17 20 20 16 4 20 14 20
49 0 61 20 102 69 146 65 58 53 85 -38 87 -30 0 -69 5 -85 10 -49 15 -95 17
-181 10z"/>
<path d="M0 6375 c0 -57 2 -65 18 -65 20 0 52 29 52 47 0 6 -7 16 -15 23 -8 7
-15 23 -15 36 0 17 -6 24 -20 24 -18 0 -20 -7 -20 -65z"/>
<path d="M17 6209 c-10 -6 -17 -22 -17 -40 0 -27 3 -30 28 -27 21 2 28 9 30
29 4 32 -17 51 -41 38z"/>
<path d="M5149 6085 c-1 -6 -1 -98 1 -205 2 -195 2 -196 -23 -225 -20 -25 -25
-44 -29 -110 -4 -57 -15 -110 -42 -185 -54 -152 -55 -146 29 -142 39 2 75 7
80 12 6 4 21 10 35 14 47 11 52 19 34 55 -13 26 -14 37 -4 61 9 21 9 50 2 112
-9 70 -8 88 6 117 17 36 13 43 -44 77 -17 10 -19 28 -22 210 -2 109 -7 203
-13 209 -6 6 -10 6 -10 0z"/>
<path d="M10014 5786 c-9 -23 15 -95 36 -106 13 -7 20 -23 22 -51 l3 -41 28
22 c21 17 27 30 27 59 0 68 -97 166 -116 117z"/>
<path d="M4348 5623 c-36 -6 -35 -18 2 -53 21 -19 47 -31 77 -36 75 -11 273 2
318 21 51 22 49 19 30 49 l-17 26 -192 -1 c-105 -1 -203 -4 -218 -6z"/>
<path d="M5334 5289 c-9 -10 -24 -19 -33 -19 -11 0 -8 -7 11 -27 22 -22 29
-24 42 -14 10 9 32 10 69 6 35 -5 57 -3 61 4 10 16 -30 51 -58 51 -14 0 -36 4
-49 9 -20 8 -29 6 -43 -10z"/>
<path d="M5465 5010 c-7 -23 2 -43 16 -35 12 8 12 55 0 55 -5 0 -12 -9 -16
-20z"/>
<path d="M3816 4986 c-30 -13 -55 -65 -48 -98 3 -18 22 -26 22 -9 0 4 21 14
46 21 38 11 50 11 67 1 17 -11 19 -11 14 3 -4 11 -1 16 11 17 10 0 12 3 5 6
-7 2 -13 18 -13 34 0 18 -4 28 -10 24 -5 -3 -10 -17 -10 -31 0 -14 -4 -22 -10
-19 -5 3 -10 19 -10 36 0 33 -15 36 -64 15z"/>
<path d="M4295 4990 c3 -5 11 -10 16 -10 6 0 7 5 4 10 -3 6 -11 10 -16 10 -6
0 -7 -4 -4 -10z"/>
<path d="M210 4790 c-11 -7 -5 -10 23 -10 23 0 36 4 32 10 -8 13 -35 13 -55 0z"/>
<path d="M235 4721 c-16 -4 -41 -13 -53 -20 -13 -7 -34 -10 -47 -7 -19 5 -25
1 -34 -26 -6 -17 -11 -41 -11 -53 0 -12 -9 -34 -20 -48 -26 -32 -25 -40 5 -73
14 -15 25 -31 25 -35 0 -20 -36 -7 -67 23 l-33 32 0 -855 c0 -737 2 -858 15
-883 8 -15 12 -32 9 -37 -3 -5 -1 -9 3 -9 5 0 14 9 21 21 13 20 13 20 33 -4
10 -14 19 -27 19 -30 0 -3 23 -43 51 -89 28 -46 66 -111 83 -144 20 -37 54
-81 87 -110 62 -55 79 -75 104 -124 10 -19 33 -55 52 -79 18 -24 33 -50 33
-57 0 -24 -27 -15 -57 19 -16 18 -37 36 -46 40 -9 3 -17 16 -17 27 0 11 -4 20
-10 20 -5 0 -10 6 -10 13 0 8 -11 24 -25 37 -19 18 -31 21 -57 16 -21 -4 -28
-3 -19 3 17 11 8 26 -28 44 -22 11 -32 12 -41 3 -8 -8 -14 -7 -23 4 -7 9 -20
14 -31 12 -26 -5 -42 13 -27 32 17 20 -3 30 -22 11 -9 -8 -23 -15 -31 -15 -17
0 -22 -15 -7 -24 5 -4 12 0 14 6 3 8 6 5 6 -6 1 -14 -4 -17 -21 -12 -13 3 -29
6 -37 6 -11 0 -11 3 -1 15 12 15 6 35 -11 35 -5 0 -9 -108 -9 -270 0 -148 4
-270 9 -270 4 0 23 11 42 25 136 99 131 98 419 102 134 2 246 6 248 8 2 2 -6
17 -18 33 -13 17 -23 41 -24 54 -1 14 -10 27 -24 33 -12 6 -20 16 -17 23 3 8
5 18 5 23 0 19 59 37 140 43 47 3 175 8 285 11 180 5 306 14 405 31 24 4 48
21 82 57 26 29 48 58 48 66 0 8 21 34 47 58 42 40 45 45 35 69 -23 49 -12 83
37 114 22 15 23 23 27 131 3 77 10 133 22 170 12 34 16 63 12 79 -4 14 -15 49
-24 79 -26 87 -19 164 20 211 7 9 22 66 33 128 12 65 31 135 46 163 20 40 25
66 25 127 2 229 20 272 187 438 63 63 118 114 124 114 5 0 31 16 58 35 27 20
79 51 116 71 37 19 79 43 93 54 13 11 34 20 44 20 11 0 33 10 48 23 15 12 36
27 46 33 19 11 19 12 0 33 -11 11 -24 21 -31 21 -6 0 -29 13 -51 30 -21 16
-44 30 -50 30 -6 0 -22 8 -35 18 -29 23 -69 34 -69 20 0 -7 -27 -9 -77 -6 -90
6 -123 -4 -123 -39 0 -20 -5 -23 -38 -23 -21 0 -42 -3 -45 -6 -3 -4 -21 -8
-39 -9 -34 -3 -66 -10 -98 -20 -11 -3 -28 -2 -38 4 -14 8 -24 4 -45 -15 -15
-14 -27 -29 -27 -34 0 -14 -21 -12 -39 4 -9 8 -51 17 -93 21 -67 6 -79 5 -84
-9 -3 -9 -16 -16 -28 -16 -12 0 -27 -5 -34 -12 -9 -9 -12 -9 -12 4 0 12 -10
15 -42 15 -24 -1 -46 -6 -50 -11 -8 -12 -121 -8 -129 5 -10 17 -59 38 -73 33
-8 -3 -17 -1 -21 5 -3 6 -19 11 -34 11 -15 0 -32 5 -38 11 -7 7 -17 8 -29 1
-33 -17 -164 -3 -231 23 -34 14 -64 25 -67 25 -3 0 -3 -12 -1 -27 6 -34 -19
-73 -36 -56 -8 8 -18 8 -35 1 -19 -9 -28 -8 -43 6 -11 10 -24 15 -30 12 -14
-9 -46 8 -102 55 -67 55 -163 109 -223 125 -56 15 -75 16 -121 5z m-80 -81 c3
-5 19 -10 36 -10 16 0 29 -4 29 -9 0 -13 -90 -62 -101 -55 -10 6 -12 67 -2 77
10 10 31 8 38 -3z m58 -117 c-7 -2 -19 -2 -25 0 -7 3 -2 5 12 5 14 0 19 -2 13
-5z m-27 -63 c8 0 14 -4 14 -10 0 -5 -7 -10 -15 -10 -24 0 -29 -29 -10 -50 10
-11 14 -20 10 -20 -4 0 -1 -8 9 -18 15 -18 15 -20 -4 -37 -30 -28 -41 -9 -45
79 -2 65 -1 76 12 72 8 -3 21 -6 29 -6z m-81 -122 c4 -18 15 -57 26 -85 17
-48 17 -83 0 -83 -4 0 -19 12 -33 28 -22 24 -25 35 -23 92 3 80 3 80 14 80 5
0 12 -15 16 -32z m100 -101 c0 -26 -20 -25 -23 2 -3 16 1 22 10 19 7 -3 13
-12 13 -21z m200 -317 c-3 -5 -17 -10 -31 -10 -14 0 -22 4 -19 10 3 6 17 10
31 10 14 0 22 -4 19 -10z m-9 -268 c70 -32 83 -42 78 -57 -10 -24 -58 -17
-102 15 -41 30 -48 40 -35 53 10 10 17 9 59 -11z m-246 -1342 c0 -5 -4 -10
-10 -10 -5 0 -10 5 -10 10 0 6 5 10 10 10 6 0 10 -4 10 -10z"/>
<path d="M600 4613 c54 -57 62 -63 72 -57 19 12 5 34 -42 68 -69 50 -83 45
-30 -11z"/>
<path d="M2600 4230 c0 -5 7 -10 15 -10 8 0 15 5 15 10 0 6 -7 10 -15 10 -8 0
-15 -4 -15 -10z"/>
<path d="M3955 4220 c3 -5 8 -10 11 -10 2 0 4 5 4 10 0 6 -5 10 -11 10 -5 0
-7 -4 -4 -10z"/>
<path d="M2140 3900 c0 -5 5 -10 10 -10 6 0 10 5 10 10 0 6 -4 10 -10 10 -5 0
-10 -4 -10 -10z"/>
<path d="M2110 3850 c0 -5 5 -10 10 -10 6 0 10 5 10 10 0 6 -4 10 -10 10 -5 0
-10 -4 -10 -10z"/>
<path d="M2075 3809 c-4 -6 -5 -12 -2 -15 2 -3 7 2 10 11 7 17 1 20 -8 4z"/>
<path d="M1980 3739 c0 -5 5 -7 10 -4 6 3 10 8 10 11 0 2 -4 4 -10 4 -5 0 -10
-5 -10 -11z"/>
<path d="M2006 3401 c-4 -5 -2 -12 3 -15 5 -4 12 -2 15 3 4 5 2 12 -3 15 -5 4
-12 2 -15 -3z"/>
<path d="M2021 3350 c-1 -21 16 -46 26 -37 4 5 3 11 -3 15 -6 4 -14 14 -17 22
-5 13 -5 13 -6 0z"/>
<path d="M2104 2797 c-2 -7 -1 -23 3 -35 6 -16 12 -19 23 -11 10 7 11 12 4 15
-7 3 -10 14 -7 24 6 22 -15 28 -23 7z"/>
<path d="M1951 2624 c0 -11 3 -14 6 -6 3 7 2 16 -1 19 -3 4 -6 -2 -5 -13z"/>
<path d="M2175 2570 c-3 -5 -1 -10 4 -10 6 0 11 5 11 10 0 6 -2 10 -4 10 -3 0
-8 -4 -11 -10z"/>
<path d="M2050 2490 c0 -5 5 -10 11 -10 5 0 7 5 4 10 -3 6 -8 10 -11 10 -2 0
-4 -4 -4 -10z"/>
<path d="M2605 2360 c3 -5 8 -10 11 -10 2 0 4 5 4 10 0 6 -5 10 -11 10 -5 0
-7 -4 -4 -10z"/>
<path d="M2106 1961 c-4 -7 -5 -15 -2 -18 9 -9 19 4 14 18 -4 11 -6 11 -12 0z"/>
<path d="M6320 1350 c-85 -31 -180 -82 -218 -118 -54 -50 -32 -48 48 4 40 25
113 66 164 90 96 45 99 57 6 24z"/>
<path d="M6196 1135 c-11 -8 -15 -15 -9 -15 6 0 16 7 23 15 16 19 11 19 -14 0z"/>
<path d="M5923 1015 c-39 -61 -90 -169 -98 -210 -4 -16 21 22 55 85 34 63 66
120 72 127 5 7 8 20 6 30 -2 12 -12 3 -35 -32z"/>
<path d="M6376 759 c-25 -22 -46 -45 -46 -49 0 -5 38 9 86 31 47 22 108 43
137 48 49 8 47 9 -39 10 l-91 1 -47 -41z"/>
<path d="M6139 503 c-36 -58 -73 -135 -105 -221 -37 -97 -8 -70 41 38 23 52
58 122 78 155 39 64 43 75 27 75 -6 0 -24 -21 -41 -47z"/>
</g>
</svg>
