<?xml version="1.0" standalone="no"?>
<!DOCTYPE svg PUBLIC "-//W3C//DTD SVG 20010904//EN"
 "http://www.w3.org/TR/2001/REC-SVG-20010904/DTD/svg10.dtd">
<svg version="1.0" xmlns="http://www.w3.org/2000/svg"
 width="414.000000pt" height="230.000000pt" viewBox="0 0 414.000000 230.000000"
 preserveAspectRatio="xMidYMid meet">

<g transform="translate(0.000000,230.000000) scale(0.100000,-0.100000)"
fill="#000000" stroke="none">
<path d="M3576 2003 c-3 -3 -310 -16 -343 -14 -37 1 -53 1 -163 -4 -58 -2
-124 -4 -147 -4 -23 0 -44 -5 -48 -11 -4 -7 112 -9 389 -5 344 4 396 2 396
-10 0 -25 26 -17 39 11 6 15 9 29 6 33 -6 6 -123 9 -129 4z"/>
<path d="M2698 1974 c-4 -3 -69 -6 -146 -7 -77 -1 -144 -5 -148 -9 -9 -10 1
-10 196 -8 85 0 157 3 159 6 7 7 -21 24 -40 24 -9 0 -18 -3 -21 -6z"/>
<path d="M2785 1971 c-7 -13 17 -24 40 -19 9 1 16 8 16 13 0 14 -48 19 -56 6z"/>
<path d="M2320 1957 c0 -26 21 -36 41 -19 10 8 16 19 13 24 -8 13 -54 9 -54
-5z"/>
<path d="M76 1826 c-18 -38 -21 -86 -6 -86 6 0 10 5 10 10 0 14 37 12 43 -2 3
-8 9 -3 15 12 9 24 1 57 -21 88 -15 19 -24 15 -41 -22z"/>
<path d="M5 1810 c3 -5 10 -10 16 -10 5 0 9 5 9 10 0 6 -7 10 -16 10 -8 0 -12
-4 -9 -10z"/>
<path d="M2930 1764 c-46 -20 -88 -61 -106 -103 -16 -39 -18 -65 -2 -36 27 50
84 96 136 111 69 20 125 12 186 -26 53 -34 61 -25 14 16 -66 55 -155 70 -228
38z"/>
<path d="M73 1691 c1 -9 10 -15 20 -15 9 1 17 -3 17 -8 0 -6 6 -5 15 2 23 19
18 27 -20 32 -28 3 -35 1 -32 -11z"/>
<path d="M100 1566 c0 -82 -1 -84 -25 -89 -18 -3 -29 1 -36 14 -5 11 -16 19
-24 19 -13 0 -15 -47 -15 -330 l0 -330 23 0 24 0 1 182 c1 99 4 183 7 186 3 3
6 -66 7 -154 1 -87 2 -171 2 -186 1 -21 9 -32 39 -47 20 -10 46 -17 56 -14 10
3 22 0 25 -6 8 -13 46 -15 46 -3 0 5 6 17 14 27 12 16 16 17 30 6 17 -15 22
-61 6 -61 -5 0 -10 -9 -10 -20 0 -23 -29 -27 -48 -8 -20 20 -15 -22 5 -44 14
-15 15 -24 6 -47 -6 -16 -8 -52 -5 -80 3 -39 1 -51 -9 -51 -23 0 -37 14 -43
43 -18 86 -18 81 -2 68 20 -17 20 -3 1 37 -13 24 -22 30 -43 29 -23 -2 -28 -8
-30 -35 -2 -18 -7 -30 -12 -27 -11 7 -2 -50 11 -77 16 -30 10 -40 -13 -24 -12
9 -37 16 -55 16 -26 0 -33 -4 -33 -19 0 -11 8 -22 17 -24 17 -4 17 -5 1 -6
-10 0 -18 -7 -18 -15 0 -18 156 -34 173 -17 6 6 21 11 33 11 12 0 27 7 34 15
15 18 68 45 88 45 9 0 12 -6 8 -16 -3 -9 -9 -27 -12 -40 -6 -22 -3 -24 27 -24
32 1 33 1 15 15 -19 14 -18 15 16 15 23 0 38 -6 42 -15 3 -8 13 -15 22 -15 10
0 14 5 10 15 -4 12 7 15 68 15 101 0 136 8 136 31 0 24 16 24 37 0 19 -23 43
-17 43 10 0 15 7 19 40 19 30 0 40 -4 40 -16 0 -11 9 -14 36 -12 42 4 58 27
71 103 7 45 11 50 36 53 21 3 27 -1 27 -15 0 -10 -9 -24 -20 -31 -24 -15 -28
-47 -4 -38 9 3 19 6 22 6 4 0 8 24 10 53 1 30 8 56 16 61 11 8 7 17 -20 43
l-34 33 25 0 c15 0 24 4 21 9 -3 5 1 11 9 15 11 4 15 21 15 63 0 41 3 54 10
43 5 -8 10 -39 10 -67 0 -39 4 -53 14 -53 8 0 18 5 22 11 3 6 15 9 25 6 14 -4
21 1 25 19 9 37 42 54 101 54 55 0 70 -14 31 -30 l-23 -9 24 0 c24 -1 24 -1
17 -83 -4 -46 -7 -94 -7 -107 1 -14 -5 -28 -11 -33 -23 -14 -106 -9 -122 8
-20 19 -21 35 -2 28 8 -3 17 -1 20 4 3 6 -6 13 -21 17 -15 3 -32 13 -37 21 -7
8 -20 11 -33 8 -19 -5 -22 -11 -16 -33 3 -14 10 -27 15 -29 4 -2 8 -10 8 -18
0 -9 -4 -12 -10 -9 -15 9 -12 -7 5 -29 8 -11 15 -27 15 -37 0 -14 11 -17 67
-18 37 -1 69 3 73 8 3 6 11 6 19 1 10 -6 14 -35 15 -107 1 -92 2 -98 22 -101
15 -2 20 -9 17 -21 -3 -11 5 -22 21 -31 24 -12 26 -19 26 -77 l0 -63 -52 0
c-219 0 -375 -5 -385 -13 -9 -6 -15 -4 -19 7 -6 16 -8 16 -24 1 -14 -13 -19
-13 -23 -3 -4 10 -8 10 -17 -2 -9 -11 -13 -12 -17 -2 -2 6 -8 10 -12 7 -5 -2
-36 -5 -70 -6 -34 -1 -64 -6 -67 -10 -5 -8 -12 -7 -49 6 -11 4 -39 7 -62 6
-28 -2 -43 2 -43 10 0 8 -12 10 -40 6 -32 -4 -40 -2 -40 11 0 13 -2 13 -14 -3
-10 -13 -18 -16 -32 -9 -10 5 -48 9 -84 9 -60 0 -64 2 -70 25 -4 16 -19 31
-40 42 -34 16 -34 16 -10 20 14 3 -4 3 -40 0 -36 -2 -67 -5 -70 -7 -3 -2 -6 7
-6 19 -2 21 2 23 43 21 60 -3 80 3 86 26 4 13 14 19 34 19 28 0 115 29 129 43
4 4 -6 7 -22 8 -16 1 -38 2 -49 3 -11 1 -60 4 -110 6 -50 2 -74 5 -55 7 74 9
53 23 -33 23 l-87 0 0 -215 0 -215 174 0 c166 0 174 1 169 19 -3 10 0 22 7 26
8 5 6 11 -7 21 -16 12 -15 13 15 14 28 0 32 -3 32 -26 0 -25 1 -25 39 15 37
39 79 56 68 29 -3 -9 5 -13 24 -13 16 0 29 3 29 8 0 13 45 7 68 -9 20 -14 26
-12 23 9 0 4 6 7 14 7 8 0 15 -6 15 -12 0 -7 5 -5 11 5 10 17 12 17 35 2 23
-15 24 -15 24 11 0 20 4 25 16 20 9 -3 19 -6 22 -6 4 0 0 -5 -8 -10 -11 -7 6
-10 55 -9 131 0 159 -2 168 -14 7 -9 10 -9 14 1 7 17 63 16 63 -2 0 -11 20
-15 92 -15 50 0 94 -5 97 -10 8 -12 504 -6 629 8 56 7 107 9 112 6 6 -3 10 -2
10 4 0 6 12 8 30 4 19 -3 30 -1 30 6 0 6 14 11 30 11 17 0 30 5 30 11 0 5 -4
8 -9 5 -5 -3 -23 2 -41 10 -25 13 -31 21 -27 40 2 13 0 25 -6 27 -6 2 -7 24
-1 62 l8 60 7 -55 c6 -54 6 -53 7 23 2 85 -2 80 60 62 27 -8 30 11 2 20 -11 3
-20 11 -20 16 0 12 17 12 24 0 3 -5 27 -12 52 -16 56 -8 319 -8 383 1 l46 6
-3 44 -4 43 109 3 108 3 3 55 c3 50 2 53 -11 35 -13 -18 -24 -20 -106 -17 -50
2 -91 8 -91 13 0 5 9 9 20 9 13 0 20 7 20 20 0 11 -7 20 -15 20 -10 0 -15 10
-15 30 0 23 4 30 20 30 11 0 20 6 20 14 0 8 -9 18 -20 21 -25 8 -25 27 0 50
11 10 20 28 20 41 0 20 6 23 48 27 l47 3 -47 2 c-27 1 -48 6 -48 11 0 5 -9 11
-19 14 -15 4 -21 18 -26 70 -6 59 -9 65 -22 51 -8 -8 -13 -23 -10 -34 3 -11
-1 -21 -10 -24 -7 -3 -13 -13 -11 -22 3 -16 -35 -47 -74 -60 -10 -4 -18 -14
-19 -23 0 -10 -2 -11 -6 -3 -11 29 -25 10 -20 -28 5 -38 4 -40 -20 -40 -25 0
-26 -2 -20 -50 5 -45 4 -50 -13 -50 -21 0 -27 24 -10 35 21 13 9 21 -30 20
-39 0 -50 -8 -30 -20 12 -7 4 -25 -11 -25 -6 0 -7 5 -3 12 5 8 2 9 -9 5 -18
-7 -24 8 -8 17 5 3 12 22 15 41 8 40 39 55 75 35 31 -16 41 -4 24 30 -13 27
-20 30 -59 30 -34 0 -44 -4 -44 -16 0 -13 -3 -14 -13 -5 -8 6 -17 8 -21 4 -4
-4 -9 2 -12 12 -5 18 -72 75 -88 75 -3 0 -6 -10 -6 -22 0 -13 -4 -30 -9 -37
-8 -12 -11 -9 -17 14 -5 21 -3 31 10 41 10 7 16 22 14 36 -2 15 2 23 12 23 9
0 16 -11 18 -28 2 -15 12 -32 22 -37 17 -9 22 -5 40 30 28 55 58 66 86 32 19
-23 24 -25 38 -13 9 7 16 20 16 27 0 43 93 -20 106 -72 4 -17 11 -23 21 -20 8
3 17 6 19 6 2 0 4 9 4 20 0 11 -10 25 -22 31 -19 8 -23 18 -23 54 0 29 4 45
13 45 6 0 12 5 12 10 0 7 6 7 19 0 27 -14 31 -13 31 10 0 17 6 20 31 18 28 -2
30 -5 27 -35 -2 -18 0 -33 4 -33 4 0 8 16 8 36 0 31 2 35 15 24 33 -28 6 37
-35 82 -13 14 -23 15 -65 7 -27 -5 -74 -7 -103 -3 -28 3 -98 7 -155 8 -56 2
-109 5 -117 7 -12 3 -14 -4 -12 -33 2 -20 -1 -45 -7 -56 -7 -13 -7 -23 2 -32
10 -10 7 -11 -10 -5 -17 5 -23 2 -23 -9 0 -9 5 -16 10 -16 10 0 4 -67 -6 -79
-7 -8 -66 -2 -78 8 -7 6 -16 8 -19 5 -4 -4 -4 4 -1 17 3 13 8 56 10 94 3 39 8
77 11 85 3 8 5 30 4 47 -3 38 7 73 19 73 5 0 12 -41 16 -90 7 -91 24 -135 24
-62 0 60 21 152 35 152 24 0 24 28 -1 51 -13 12 -24 28 -24 34 0 6 -17 19 -39
28 -25 11 -38 24 -37 35 1 14 -8 17 -59 18 -33 0 -71 -2 -85 -5 -23 -4 -23 -5
-5 -13 14 -6 7 -7 -20 -3 -22 2 -122 8 -222 11 -150 6 -183 5 -183 -6 0 -10
-3 -9 -12 3 -9 11 -33 18 -73 20 -33 3 -68 8 -77 11 -10 3 -25 8 -34 11 -20 6
-10 22 30 46 17 10 26 19 19 19 -6 0 -18 3 -27 6 -11 4 -16 1 -16 -11 0 -9 -4
-14 -9 -11 -5 3 -21 -4 -35 -15 -18 -14 -37 -20 -56 -17 l-28 4 29 -43 c28
-41 49 -55 49 -33 0 6 7 10 16 10 11 0 14 -5 10 -16 -3 -9 -6 -17 -6 -19 0 -2
-16 -9 -35 -15 -31 -10 -39 -9 -70 10 -52 32 -158 29 -192 -6 -8 -7 -20 -11
-28 -8 -11 5 -41 -10 -84 -42 -2 -2 4 -10 13 -19 22 -23 21 -55 -3 -55 -11 0
-21 -9 -24 -21 -8 -29 -27 -14 -27 20 0 15 -7 36 -15 47 -13 18 -14 18 -8 -4
7 -30 -26 -99 -52 -107 -30 -10 -79 -5 -90 9 -14 17 -35 9 -28 -11 4 -11 2
-14 -8 -11 -7 2 -16 15 -19 29 -5 19 -15 25 -49 31 -32 5 -47 4 -58 -7 -18
-18 -13 -18 -51 0 -20 10 -29 21 -25 30 6 17 15 19 28 6 12 -11 44 -19 42 -10
-1 4 7 17 18 29 16 18 17 23 5 31 -8 5 -21 7 -29 4 -7 -3 -19 0 -27 6 -10 8
-16 5 -26 -10 -19 -30 -87 -29 -115 2 -11 12 -22 29 -25 37 -7 19 -42 37 -92
45 -26 4 -40 12 -43 26 -3 10 -9 19 -14 19 -4 0 -2 12 6 27 16 30 12 45 -10
36 -13 -4 -15 10 -15 86 0 54 -4 91 -10 91 -6 0 -10 -35 -10 -84z m-43 -178
c-3 -8 -6 -5 -6 6 -1 11 2 17 5 13 3 -3 4 -12 1 -19z m3 -28 c0 -5 -4 -10 -10
-10 -5 0 -10 5 -10 10 0 6 5 10 10 10 6 0 10 -4 10 -10z m1313 -16 c3 -4 2
-16 -4 -26 -13 -24 -35 -9 -26 16 7 17 19 21 30 10z m277 -44 c12 -8 11 -10
-6 -10 -12 0 -34 -10 -48 -21 -25 -19 -29 -20 -43 -7 -13 14 -12 16 6 21 12 3
21 0 21 -6 0 -6 7 -1 16 11 16 24 31 27 54 12z m278 -7 c-26 -29 -38 -89 -25
-123 14 -37 1 -54 -37 -44 -19 4 -25 11 -21 23 3 9 7 44 9 76 3 51 8 62 28 72
12 7 32 13 42 13 17 0 18 -2 4 -17z m-565 -82 c-9 -12 -25 20 -18 36 7 16 9
15 15 -7 4 -14 5 -27 3 -29z m-1263 -56 c0 -8 -4 -15 -10 -15 -5 0 -10 7 -10
15 0 8 5 15 10 15 6 0 10 -7 10 -15z m1949 -32 c0 -21 -3 -56 -7 -77 l-7 -40
-12 27 c-8 16 -9 27 -3 27 13 0 13 47 0 55 -6 4 -10 -5 -10 -19 0 -14 -5 -26
-11 -26 -5 0 -17 -16 -25 -35 -8 -19 -18 -35 -22 -35 -4 0 -15 -7 -25 -14 -16
-13 -16 -17 12 -77 16 -35 32 -77 35 -93 6 -24 4 -27 -9 -22 -9 3 -21 6 -27 6
-6 0 -8 10 -4 25 4 14 2 25 -4 25 -5 0 -10 6 -10 14 0 16 -58 46 -75 40 -7 -3
-16 12 -22 38 l-11 43 -1 -37 c0 -20 -6 -40 -13 -44 -7 -5 -8 -3 -3 6 5 9 4
11 -3 6 -18 -11 -14 -27 4 -24 10 2 19 -2 21 -9 3 -7 -4 -10 -19 -6 -15 3 -19
2 -10 -4 9 -7 6 -15 -13 -33 -14 -13 -25 -20 -25 -16 0 4 -5 4 -11 0 -8 -4 -8
-9 0 -17 21 -21 13 -40 -13 -33 -14 3 -27 2 -31 -3 -3 -6 3 -9 12 -9 10 0 23
0 28 -2 22 -6 55 1 55 11 0 5 -4 7 -10 4 -5 -3 -10 -2 -10 2 0 5 9 14 20 21
19 11 20 10 18 -10 -2 -13 -7 -28 -11 -35 -10 -16 1 -39 26 -51 20 -10 19 -11
-13 -11 -19 -1 -51 3 -70 9 -48 13 -53 13 -56 -5 -1 -8 2 -15 7 -15 5 0 9 -7
9 -15 0 -8 -7 -15 -15 -15 -21 0 -19 -20 3 -21 16 -1 16 -2 -1 -6 -14 -4 -16
-11 -12 -37 9 -45 -13 -63 -51 -43 l-28 14 27 27 c25 24 46 105 39 144 -2 6 3
12 9 12 7 0 9 3 6 6 -4 4 1 20 11 36 16 28 16 30 -3 41 -19 11 -18 12 10 18
17 4 -19 6 -79 6 -97 -2 -110 -4 -120 -22 -23 -40 -34 -47 -41 -25 -4 11 -11
18 -16 15 -5 -4 -9 -1 -9 5 0 6 7 13 15 16 20 8 19 20 -5 44 -25 25 -4 27 23
3 18 -17 20 -17 35 4 10 12 28 40 42 63 14 23 38 51 53 62 32 23 46 16 78 -36
17 -28 17 -28 29 -7 6 12 22 26 36 31 16 6 27 20 31 40 4 23 10 29 23 25 11
-3 20 1 23 10 4 8 13 12 22 9 11 -5 13 -10 5 -19 -7 -9 -3 -15 15 -23 19 -9
25 -9 25 0 0 6 2 9 5 6 6 -6 65 49 65 59 0 9 42 43 54 43 6 0 4 -5 -4 -11 -12
-8 -10 -9 10 -7 14 2 24 9 23 16 -2 6 2 12 7 12 6 0 10 -17 9 -37z m-839 2 c0
-8 -4 -15 -10 -15 -5 0 -10 7 -10 15 0 8 5 15 10 15 6 0 10 -7 10 -15z m40 0
c0 -8 -4 -15 -9 -15 -13 0 -22 16 -14 24 11 11 23 6 23 -9z m-621 -14 c7 -5 9
-11 5 -13 -15 -9 -74 -7 -74 2 0 18 46 25 69 11z m1125 -69 c-4 -12 -12 -22
-19 -22 -11 0 -11 6 -2 30 13 33 30 27 21 -8z m-1194 8 c0 -5 -7 -7 -15 -4 -8
4 -15 8 -15 10 0 2 7 4 15 4 8 0 15 -4 15 -10z m788 -48 l3 -53 -33 17 c-31
17 -32 18 -10 23 l23 6 -21 17 c-30 26 -26 50 8 46 25 -3 27 -6 30 -56z m1106
41 c4 -9 2 -21 -3 -26 -15 -15 -41 0 -41 23 0 25 35 28 44 3z m-244 -23 c0
-16 -4 -30 -10 -30 -11 0 -14 43 -3 53 11 12 13 8 13 -23z m-1566 6 c-4 -9 7
-20 31 -32 40 -19 57 -49 48 -84 -5 -18 -11 -21 -36 -16 -17 4 -40 15 -52 25
-11 10 -28 21 -38 25 -11 3 -21 15 -24 26 -3 11 -9 17 -14 15 -4 -3 -13 4 -19
15 -14 26 5 35 54 26 20 -4 37 -2 41 4 9 15 15 12 9 -4z m41 4 c3 -5 2 -10 -4
-10 -5 0 -13 5 -16 10 -3 6 -2 10 4 10 5 0 13 -4 16 -10z m375 -55 c0 -19 -20
-29 -32 -17 -15 15 -2 43 17 36 8 -3 15 -12 15 -19z m330 -55 c6 -11 8 -20 6
-20 -3 0 -10 9 -16 20 -6 11 -8 20 -6 20 3 0 10 -9 16 -20z m-715 -39 c20 -13
166 -13 182 0 13 11 17 10 28 -4 7 -9 17 -17 22 -17 6 0 17 -7 24 -16 11 -14
11 -18 -1 -28 -10 -7 -16 -32 -17 -70 -2 -36 -9 -66 -18 -76 -8 -9 -15 -26
-15 -38 0 -25 -10 -33 -36 -26 -15 4 -19 13 -17 50 l1 44 -43 0 c-24 0 -47 -5
-51 -11 -5 -8 4 -10 30 -7 32 4 37 1 43 -20 7 -27 -2 -39 -37 -46 -14 -3 -35
-8 -46 -11 -25 -8 -41 20 -23 41 8 10 8 14 0 14 -6 0 -11 15 -12 33 -1 17 -5
43 -9 57 -6 19 -9 9 -11 -40 -1 -36 -1 -73 -1 -84 2 -12 -3 -16 -12 -13 -8 3
-17 -1 -20 -8 -4 -12 -23 -13 -98 -8 -51 3 -96 10 -99 15 -13 21 -16 -32 -3
-57 8 -15 11 -32 8 -37 -9 -14 -33 31 -34 62 -1 41 -27 105 -45 108 -9 2 -22
-2 -30 -8 -22 -18 -43 4 -41 42 1 21 8 34 21 39 17 6 17 8 3 8 -26 1 -22 28 8
58 19 19 28 23 37 14 15 -15 27 -14 27 2 0 27 35 46 90 50 65 4 181 -3 195
-12z m1377 -41 c-6 -43 -12 -37 -12 13 0 25 4 37 8 29 5 -7 7 -26 4 -42z
m-1892 20 c0 -5 -4 -10 -10 -10 -5 0 -10 5 -10 10 0 6 5 10 10 10 6 0 10 -4
10 -10z m1666 -25 c14 -13 13 -15 -10 -15 -25 0 -33 10 -19 23 9 10 13 9 29
-8z m-865 -78 c-13 -13 -26 -3 -16 12 3 6 11 8 17 5 6 -4 6 -10 -1 -17z m667
-10 c48 -44 9 -127 -61 -127 -18 0 -38 5 -45 12 -9 9 -12 7 -12 -9 0 -12 5
-25 10 -28 17 -10 11 -34 -11 -45 -15 -9 -24 -8 -35 1 -16 13 -15 60 1 59 15
-2 26 40 15 61 -13 23 -26 24 -34 3 -9 -23 -8 -27 9 -21 21 9 27 -9 9 -24 -14
-11 -18 -11 -29 4 -12 17 -13 17 -20 0 -5 -10 -7 -22 -6 -26 1 -5 -4 -7 -11
-5 -37 13 7 93 55 100 11 2 22 9 24 15 4 10 -3 10 -26 2 -36 -13 -61 -6 -61
16 0 20 28 31 43 16 15 -15 52 -14 67 3 24 31 80 27 118 -7z m222 3 c16 -14
30 -18 47 -13 23 5 25 3 18 -18 -17 -55 -25 -70 -35 -64 -5 3 -10 1 -10 -6 0
-10 -3 -10 -12 0 -10 11 -10 14 -1 18 18 6 -12 49 -38 56 -13 3 -18 10 -14 17
4 6 14 9 22 5 13 -4 14 -3 3 10 -18 21 -7 19 20 -5z m455 0 c3 -5 -3 -10 -14
-10 -12 0 -21 5 -21 10 0 6 6 10 14 10 8 0 18 -4 21 -10z m265 -16 c-6 -14
-10 -39 -10 -55 0 -20 -4 -29 -12 -26 -8 2 -12 18 -10 41 3 32 0 38 -19 43
-22 6 -22 7 -3 14 10 4 29 8 41 8 20 1 21 -2 13 -25z m-1195 4 c3 -3 2 -37 -1
-77 -6 -58 -10 -71 -24 -71 -14 0 -19 13 -24 71 -6 52 -4 74 5 79 13 8 35 7
44 -2z m791 -103 c-4 -75 -3 -115 4 -115 5 0 10 -4 10 -10 0 -5 -7 -10 -15
-10 -8 0 -15 -4 -15 -10 0 -5 9 -10 21 -10 17 0 20 -5 17 -37 -3 -37 -5 -38
-48 -44 -45 -7 -76 5 -53 19 6 4 14 34 18 67 5 50 33 183 51 248 13 43 17 8
10 -98z m64 101 c0 -8 -4 -17 -9 -20 -5 -3 -7 -15 -4 -25 3 -10 0 -22 -6 -25
-7 -5 -11 8 -11 38 0 34 4 46 15 46 8 0 15 -6 15 -14z m-257 -23 c2 -5 0 -38
-6 -75 -8 -56 -14 -68 -29 -68 -14 0 -18 8 -18 38 0 72 11 112 31 112 10 0 20
-3 22 -7z m-223 -83 c0 -5 -10 -10 -22 -9 -22 0 -22 1 -3 9 11 5 21 9 23 9 1
1 2 -3 2 -9z m-1494 -37 c-10 -10 -19 5 -10 18 6 11 8 11 12 0 2 -7 1 -15 -2
-18z m2112 9 c3 -10 -4 -13 -24 -10 -36 4 -43 25 -8 24 15 -1 29 -7 32 -14z
m34 -44 c-4 -85 -8 -94 -29 -73 -11 11 -13 19 -5 24 6 3 14 30 18 59 9 72 20
65 16 -10z m-845 46 c-3 -3 -12 -4 -19 -1 -8 3 -5 6 6 6 11 1 17 -2 13 -5z
m-897 -24 c0 -5 -2 -10 -4 -10 -3 0 -8 5 -11 10 -3 6 -1 10 4 10 6 0 11 -4 11
-10z m1651 -82 c-8 -18 -10 -12 -9 32 0 50 1 52 9 23 6 -19 5 -40 0 -55z
m-721 22 c11 -7 -3 -10 -48 -10 -35 0 -61 4 -58 8 7 12 89 14 106 2z m65 -42
c-3 -24 -7 -80 -9 -125 -3 -46 -7 -87 -11 -92 -10 -17 -33 -1 -28 20 8 28 -6
23 -17 -6 -14 -36 -42 -22 -38 19 3 27 6 31 29 28 29 -3 39 15 39 74 0 17 3
34 8 38 4 4 7 15 7 24 1 20 15 62 20 62 3 0 3 -19 0 -42z m1025 22 c0 -5 -9
-10 -21 -10 -11 0 -17 5 -14 10 3 6 13 10 21 10 8 0 14 -4 14 -10z m-1180 -41
c0 -5 -7 -9 -15 -9 -9 0 -12 6 -9 15 6 15 24 11 24 -6z m65 -49 c-12 -39 -14
-40 -9 -10 8 49 16 77 21 65 2 -6 -4 -30 -12 -55z m755 23 c0 -32 -1 -33 -39
-33 -46 0 -52 6 -40 39 6 14 15 21 24 17 8 -3 17 -2 19 3 3 4 12 8 21 8 10 0
15 -10 15 -34z m213 12 c31 -6 38 -11 35 -29 -3 -18 -9 -21 -48 -20 -25 1 -70
2 -101 3 -48 1 -58 4 -62 21 -3 13 0 20 9 20 8 0 14 4 14 8 0 10 98 8 153 -3z
m-1041 -95 c-3 -74 -6 -90 -19 -90 -14 0 -15 10 -10 68 4 37 7 77 7 90 0 12 6
22 13 22 9 0 11 -23 9 -90z m-1242 30 c0 -5 -7 -7 -15 -4 -8 4 -15 8 -15 10 0
2 7 4 15 4 8 0 15 -4 15 -10z m1665 -129 c-7 -22 13 -40 25 -22 12 21 40 -16
40 -53 l0 -33 -57 5 c-32 3 -61 10 -65 16 -6 8 -10 8 -16 -1 -8 -13 -102 -11
-144 3 -15 4 -18 3 -13 -6 6 -9 3 -9 -14 -1 -11 6 -32 9 -46 5 -19 -5 -25 -2
-25 10 0 23 36 60 49 51 6 -3 11 -1 11 4 0 7 31 11 82 11 82 0 101 -9 32 -16
-56 -5 -54 -14 4 -14 27 0 57 -3 65 -6 8 -3 17 2 21 11 3 9 2 13 -3 10 -5 -3
-12 -1 -16 5 -4 6 5 10 20 10 14 0 28 7 31 15 9 22 26 18 19 -4z m-425 -20 c0
-38 -15 -71 -31 -71 -19 0 -20 15 -3 68 4 14 34 17 34 3z m96 -38 c-2 -21 -4
-58 -5 -82 -1 -61 -20 -41 -22 24 -2 72 0 87 11 80 6 -3 10 -1 10 4 0 6 2 11
5 11 2 0 3 -17 1 -37z m-1370 2 c-1 -28 -11 -33 -20 -9 -4 10 -13 13 -26 9
-27 -9 -25 3 3 15 36 14 45 11 43 -15z m303 -64 c7 -5 9 -11 5 -14 -5 -3 -15
1 -22 9 -14 16 -5 18 17 5z"/>
<path d="M1923 1044 c-33 -16 -40 -28 -25 -38 5 -3 22 8 37 24 33 34 32 35
-12 14z"/>
<path d="M1600 1000 c0 -5 9 -10 20 -10 11 0 20 5 20 10 0 6 -9 10 -20 10 -11
0 -20 -4 -20 -10z"/>
<path d="M1587 921 c3 -12 -5 -26 -23 -40 l-27 -21 54 1 c30 1 44 4 32 6 -27
5 -29 16 -7 37 14 15 14 16 0 16 -9 0 -16 5 -16 10 0 6 -4 10 -9 10 -5 0 -7
-8 -4 -19z"/>
<path d="M1624 575 c-4 -10 -1 -21 7 -26 20 -12 34 -5 34 17 0 24 -33 31 -41
9z m31 -5 c3 -5 1 -10 -4 -10 -6 0 -11 5 -11 10 0 6 2 10 4 10 3 0 8 -4 11
-10z"/>
<path d="M631 990 c-16 -9 -6 -30 15 -30 15 0 20 25 6 34 -4 2 -14 1 -21 -4z"/>
<path d="M665 930 c-3 -5 -2 -10 4 -10 5 0 13 5 16 10 3 6 2 10 -4 10 -5 0
-13 -4 -16 -10z"/>
<path d="M466 781 c-4 -5 -1 -11 5 -13 19 -6 79 4 79 13 0 12 -77 12 -84 0z"/>
<path d="M460 690 c0 -5 5 -10 10 -10 6 0 10 5 10 10 0 6 -4 10 -10 10 -5 0
-10 -4 -10 -10z"/>
<path d="M408 655 c2 -14 9 -25 14 -25 6 0 7 7 4 16 -3 9 -6 20 -6 25 0 5 -4
9 -9 9 -4 0 -6 -11 -3 -25z"/>
<path d="M720 635 c0 -8 2 -15 4 -15 2 0 6 7 10 15 3 8 1 15 -4 15 -6 0 -10
-7 -10 -15z"/>
<path d="M600 630 c0 -5 5 -10 10 -10 6 0 10 5 10 10 0 6 -4 10 -10 10 -5 0
-10 -4 -10 -10z"/>
<path d="M1473 584 c-3 -8 -1 -20 5 -26 15 -15 43 8 35 28 -7 19 -32 18 -40
-2z"/>
<path d="M1855 720 c3 -5 8 -10 11 -10 2 0 4 5 4 10 0 6 -5 10 -11 10 -5 0 -7
-4 -4 -10z"/>
<path d="M1688 223 c7 -3 16 -2 19 1 4 3 -2 6 -13 5 -11 0 -14 -3 -6 -6z"/>
<path d="M4122 1596 c-14 -33 -8 -66 9 -49 6 6 9 26 7 44 l-4 34 -12 -29z"/>
<path d="M1257 1534 c-3 -4 -20 -7 -38 -8 -37 -2 -44 -13 -25 -39 13 -17 15
-17 42 9 16 14 38 30 49 35 20 8 20 8 -1 8 -11 1 -23 -2 -27 -5z"/>
<path d="M2806 1531 c-4 -7 -5 -15 -2 -18 9 -9 19 4 14 18 -4 11 -6 11 -12 0z"/>
<path d="M1360 1496 c0 -2 7 -6 15 -10 8 -3 15 -1 15 4 0 6 -7 10 -15 10 -8 0
-15 -2 -15 -4z"/>
<path d="M4120 1490 c0 -5 5 -10 10 -10 6 0 10 5 10 10 0 6 -4 10 -10 10 -5 0
-10 -4 -10 -10z"/>
<path d="M1120 1480 c0 -5 5 -10 10 -10 6 0 10 5 10 10 0 6 -4 10 -10 10 -5 0
-10 -4 -10 -10z"/>
<path d="M3855 1310 c-7 -12 2 -30 16 -30 12 0 12 27 0 35 -5 3 -12 1 -16 -5z"/>
<path d="M3070 1240 c-11 -7 -1 -9 34 -8 31 0 43 4 35 9 -18 11 -50 11 -69 -1z"/>
<path d="M3750 1206 c0 -8 5 -18 10 -21 6 -3 10 3 10 14 0 12 -4 21 -10 21 -5
0 -10 -6 -10 -14z"/>
<path d="M3645 1131 c-3 -5 -1 -12 5 -16 5 -3 10 1 10 9 0 18 -6 21 -15 7z"/>
<path d="M3862 1088 c-1 -23 -10 -46 -22 -58 -11 -11 -20 -27 -20 -35 0 -9 -7
-18 -15 -21 -18 -7 -10 -24 11 -24 8 0 14 9 14 20 0 19 7 20 120 20 73 0 120
-4 120 -10 0 -5 16 -10 35 -10 l35 0 0 70 0 70 -36 -17 c-30 -15 -38 -15 -56
-4 -19 12 -23 11 -38 -9 -12 -16 -24 -21 -39 -17 -11 3 -24 1 -27 -4 -3 -5
-16 -9 -30 -9 -13 0 -24 -5 -24 -12 0 -29 -19 10 -23 47 l-4 40 -1 -37z m118
-58 c0 -5 -2 -10 -4 -10 -3 0 -8 5 -11 10 -3 6 -1 10 4 10 6 0 11 -4 11 -10z"/>
<path d="M3790 921 c-5 -11 -10 -35 -9 -53 0 -18 3 -26 6 -18 3 8 13 24 22 34
9 11 10 16 3 12 -10 -6 -11 -1 -6 18 7 31 -1 34 -16 7z"/>
<path d="M2885 920 c-3 -5 -1 -10 4 -10 6 0 11 5 11 10 0 6 -2 10 -4 10 -3 0
-8 -4 -11 -10z"/>
<path d="M3868 851 l-3 -70 29 -5 c16 -3 77 -6 137 -6 l109 0 0 75 c0 60 -3
75 -15 75 -8 0 -15 -7 -15 -15 0 -8 -4 -15 -10 -15 -5 0 -10 -6 -10 -14 0 -16
-30 -26 -86 -26 -43 0 -59 11 -66 45 -2 14 -12 21 -35 23 l-31 3 -4 -70z"/>
<path d="M4040 911 c0 -9 24 -21 41 -21 5 0 9 7 9 15 0 9 -9 15 -25 15 -14 0
-25 -4 -25 -9z"/>
<path d="M3470 884 c0 -9 5 -14 12 -12 18 6 21 28 4 28 -9 0 -16 -7 -16 -16z"/>
<path d="M3682 883 c2 -10 10 -17 16 -15 18 3 14 -18 -5 -25 -9 -4 -19 -1 -21
5 -2 7 -17 12 -33 12 -19 0 -29 5 -29 15 0 8 -9 15 -20 15 -21 0 -27 -15 -10
-25 17 -10 11 -25 -12 -34 -16 -6 3 -10 66 -15 49 -4 92 -4 97 1 4 4 11 25 14
46 l7 37 -37 0 c-30 0 -36 -3 -33 -17z m-47 -43 c3 -5 -1 -10 -10 -10 -9 0
-13 5 -10 10 3 6 8 10 10 10 2 0 7 -4 10 -10z"/>
<path d="M3372 848 c7 -13 14 -25 15 -27 1 -1 6 0 12 3 13 9 -8 46 -26 46 -11
0 -11 -4 -1 -22z"/>
<path d="M3814 855 c-4 -9 -2 -21 3 -26 7 -7 12 -3 16 10 6 25 -11 39 -19 16z"/>
<path d="M3420 836 c0 -3 4 -16 10 -30 6 -17 6 -27 -1 -32 -7 -4 -9 -23 -5
-48 3 -22 2 -63 -2 -91 -6 -41 -11 -51 -30 -53 -15 -2 -22 -11 -23 -25 -1 -17
-2 -18 -6 -4 -4 15 -18 17 -112 17 -189 0 -351 12 -351 25 0 11 -29 24 -52 25
-5 0 -8 -13 -8 -30 0 -25 4 -30 25 -30 18 0 25 -5 25 -19 0 -16 11 -19 92 -25
116 -8 366 -8 407 0 17 4 31 13 31 21 0 21 24 42 46 41 34 -3 74 12 74 27 0 8
5 15 10 15 6 0 10 -13 10 -30 0 -23 4 -30 20 -30 20 0 20 1 4 33 -27 52 -57
89 -80 97 -16 7 -23 21 -28 57 -12 81 -17 93 -37 93 -10 0 -19 -2 -19 -4z m90
-170 c18 -23 0 -45 -28 -35 -20 7 -21 11 -10 29 15 24 22 25 38 6z m-453 -122
c-3 -3 -12 -4 -19 -1 -8 3 -5 6 6 6 11 1 17 -2 13 -5z m249 -2 c-5 -8 -76 -4
-76 4 0 2 18 4 41 4 22 0 38 -4 35 -8z"/>
<path d="M8 803 c7 -3 16 -2 19 1 4 3 -2 6 -13 5 -11 0 -14 -3 -6 -6z"/>
<path d="M40 785 c0 -15 4 -24 10 -20 13 8 13 32 0 40 -6 4 -10 -5 -10 -20z"/>
<path d="M2790 794 c0 -20 13 -24 33 -9 16 12 16 13 -8 17 -16 4 -25 1 -25 -8z"/>
<path d="M2978 803 c6 -2 18 -2 25 0 6 3 1 5 -13 5 -14 0 -19 -2 -12 -5z"/>
<path d="M3068 803 c7 -3 16 -2 19 1 4 3 -2 6 -13 5 -11 0 -14 -3 -6 -6z"/>
<path d="M3170 799 c65 -11 122 -11 115 1 -3 6 -41 9 -83 9 -71 -1 -74 -2 -32
-10z"/>
<path d="M3820 796 c0 -8 -6 -17 -12 -19 -8 -3 -6 -6 5 -6 11 -1 17 6 17 19 0
11 -2 20 -5 20 -3 0 -5 -6 -5 -14z"/>
<path d="M1186 731 c-4 -5 -2 -12 3 -15 5 -4 12 -2 15 3 4 5 2 12 -3 15 -5 4
-12 2 -15 -3z"/>
<path d="M13 690 c1 -18 6 -20 32 -14 36 8 39 10 30 23 -3 6 -19 11 -35 11
-23 0 -28 -4 -27 -20z"/>
<path d="M2850 660 c0 -5 7 -10 15 -10 8 0 15 5 15 10 0 6 -7 10 -15 10 -8 0
-15 -4 -15 -10z"/>
<path d="M4020 650 c0 -5 5 -10 10 -10 6 0 10 5 10 10 0 6 -4 10 -10 10 -5 0
-10 -4 -10 -10z"/>
<path d="M3098 643 c7 -3 16 -2 19 1 4 3 -2 6 -13 5 -11 0 -14 -3 -6 -6z"/>
<path d="M3800 594 c0 -45 -3 -55 -12 -46 -14 14 -128 16 -128 3 0 -6 5 -13
10 -16 29 -18 -5 -64 -47 -65 -17 0 -44 -18 -31 -21 43 -10 206 -21 356 -25
l192 -6 0 35 0 35 -130 4 c-71 2 -134 8 -140 14 -6 6 -19 39 -29 74 -23 84
-41 90 -41 14z m4 -90 c25 -9 19 -24 -9 -24 -16 0 -25 6 -25 15 0 16 9 19 34
9z"/>
<path d="M2994 615 c-13 -9 -14 -14 -4 -20 8 -5 18 -2 25 9 11 14 13 15 19 1
8 -22 166 -22 166 0 0 17 3 17 -107 20 -53 2 -88 -2 -99 -10z"/>
<path d="M3220 600 c0 -5 7 -10 15 -10 8 0 15 5 15 10 0 6 -7 10 -15 10 -8 0
-15 -4 -15 -10z"/>
<path d="M2700 579 c-9 -16 -7 -19 10 -19 11 0 20 5 20 10 0 6 11 10 24 10 14
0 27 4 30 9 3 5 -12 9 -34 9 -30 1 -43 -4 -50 -19z"/>
<path d="M3912 553 c2 -13 14 -19 41 -21 43 -4 50 14 11 28 -38 15 -56 12 -52
-7z"/>
<path d="M4038 563 c-45 -12 -5 -43 54 -43 45 0 48 2 48 25 0 23 -4 25 -42 24
-24 -1 -51 -3 -60 -6z"/>
<path d="M3895 161 c-9 -15 8 -35 24 -30 8 3 7 10 -2 23 -10 14 -16 16 -22 7z"/>
<path d="M3955 110 c3 -5 -1 -10 -9 -10 -9 0 -16 -4 -16 -10 0 -5 6 -10 13
-10 8 0 7 -4 -3 -10 -11 -8 -8 -9 13 -4 17 4 27 2 27 -5 0 -6 6 -10 13 -8 7 1
14 -11 16 -28 4 -30 4 -30 11 -5 8 24 8 24 9 3 1 -21 6 -23 56 -23 30 0 55 5
55 10 0 6 -6 10 -14 10 -7 0 -24 8 -37 19 -33 26 -142 84 -134 71z"/>
<path d="M2278 93 c7 -3 16 -2 19 1 4 3 -2 6 -13 5 -11 0 -14 -3 -6 -6z"/>
</g>
</svg>
