<?xml version="1.0" standalone="no"?>
<!DOCTYPE svg PUBLIC "-//W3C//DTD SVG 20010904//EN"
 "http://www.w3.org/TR/2001/REC-SVG-20010904/DTD/svg10.dtd">
<svg version="1.0" xmlns="http://www.w3.org/2000/svg"
 width="509.000000pt" height="339.000000pt" viewBox="0 0 509.000000 339.000000"
 preserveAspectRatio="xMidYMid meet">

<g transform="translate(0.000000,339.000000) scale(0.100000,-0.100000)"
fill="#000000" stroke="none">
<path d="M0 3075 l0 -315 35 6 c20 3 67 -2 106 -11 39 -8 75 -12 82 -8 7 4 51
8 98 9 48 1 92 4 98 8 6 4 15 5 20 1 6 -3 15 4 21 15 6 11 21 20 33 20 39 0
77 23 77 47 0 22 8 26 70 38 19 4 44 13 55 20 11 7 36 16 55 20 19 4 45 17 58
29 13 11 24 19 25 17 4 -9 47 11 47 21 0 6 3 9 6 5 3 -3 16 5 28 17 11 13 32
27 46 31 14 4 36 14 50 23 35 22 149 63 183 65 15 1 31 8 36 15 4 7 12 12 17
10 5 -1 25 4 44 11 19 8 41 15 49 17 8 1 17 7 20 11 3 5 21 10 40 11 18 1 42
7 53 13 11 6 31 8 44 5 17 -5 23 -2 22 6 -2 7 5 12 14 10 9 -1 58 9 109 23 67
19 94 23 99 15 7 -11 79 -10 170 4 80 12 130 17 222 21 53 2 113 11 132 19 19
8 61 17 92 21 32 3 65 10 74 15 20 11 130 8 130 -3 0 -5 4 -6 9 -3 14 9 41 -4
41 -19 0 -18 26 -26 53 -15 12 4 57 14 99 20 71 10 81 10 115 -9 21 -11 52
-22 68 -25 29 -6 55 -13 65 -16 3 -1 9 -2 13 -1 4 1 18 -4 30 -11 12 -7 24
-13 27 -14 3 0 13 -4 23 -8 11 -5 34 0 62 13 25 12 48 21 52 21 3 0 14 6 22
13 18 15 101 49 176 70 44 13 -149 15 -1682 16 l-1733 1 0 -315z"/>
<path d="M4070 3383 c8 -4 21 -12 28 -20 8 -7 17 -11 22 -8 4 3 10 -1 13 -9 3
-8 21 -17 39 -21 18 -4 40 -13 48 -20 22 -20 70 -36 70 -25 0 6 7 10 15 10 20
0 86 36 79 43 -3 3 -1 8 5 12 6 3 11 1 11 -6 0 -10 3 -10 12 -1 7 7 25 12 40
12 15 0 28 3 28 8 0 9 158 5 180 -4 8 -4 26 -8 40 -9 14 -2 49 -6 78 -10 48
-7 53 -10 48 -29 -3 -14 3 -29 19 -45 14 -13 25 -33 25 -46 0 -31 23 -40 109
-40 84 0 101 -14 52 -42 -17 -10 -31 -22 -31 -27 0 -5 -8 -15 -17 -23 -16 -13
-12 -14 35 -9 29 3 57 8 62 11 6 4 10 69 10 156 l0 149 -517 -1 c-285 0 -511
-3 -503 -6z"/>
<path d="M560 2580 c-12 -8 -10 -10 8 -10 13 0 20 4 17 10 -7 12 -6 12 -25 0z"/>
<path d="M505 2500 l20 -9 -20 -1 c-11 -1 -33 -4 -50 -6 -16 -3 -47 -5 -68 -5
-30 1 -35 -2 -26 -12 7 -7 28 -12 48 -10 35 2 35 2 6 -6 -34 -9 -28 -12 50
-30 99 -22 229 -37 275 -31 37 4 -124 42 -205 49 l-90 7 57 12 c55 13 56 14
40 33 -9 10 -26 19 -37 18 -20 0 -20 0 0 -9z"/>
<path d="M703 2462 c-32 -3 -32 -4 -14 -23 11 -12 25 -17 34 -13 10 3 17 1 17
-5 0 -7 24 -11 66 -11 l66 0 -29 24 c-28 23 -82 34 -140 28z"/>
<path d="M860 2450 c0 -5 10 -10 23 -10 18 0 19 2 7 10 -19 13 -30 13 -30 0z"/>
<path d="M4628 2453 c-25 -4 -45 -29 -33 -41 3 -3 31 -7 63 -9 38 -3 52 -1 43
5 -11 8 -10 12 5 20 10 6 16 13 13 16 -9 9 -61 14 -91 9z"/>
<path d="M150 2331 c-21 -6 -22 -8 -7 -14 9 -3 24 -4 32 -1 8 4 22 1 30 -6 12
-10 18 -10 31 1 15 12 14 14 -7 20 -30 9 -48 9 -79 0z"/>
<path d="M150 1926 c0 -9 -16 -17 -41 -21 -39 -7 -40 -8 -23 -26 10 -11 12
-19 6 -19 -7 0 -12 -6 -12 -14 0 -8 -8 -17 -17 -20 -15 -6 -15 -8 -3 -16 11
-7 5 -10 -22 -10 l-38 0 0 -175 0 -175 106 0 106 0 -14 23 c-39 62 -59 97 -55
97 3 0 22 -27 42 -60 l36 -60 96 0 95 0 -32 43 -32 42 39 -43 39 -43 82 3 81
3 -157 162 c-103 106 -166 164 -182 167 -14 2 20 1 75 -1 55 -3 102 -7 105
-10 3 -3 -18 -3 -47 -2 -45 4 -50 2 -39 -11 8 -8 11 -22 9 -30 -3 -11 -2 -12
4 -3 6 9 52 -31 153 -132 l145 -145 74 0 c68 0 73 1 60 18 -13 16 -12 16 6 0
22 -18 155 -30 155 -14 0 5 6 4 13 -1 6 -6 26 -10 42 -9 17 1 46 -1 65 -5 l35
-8 -35 30 c-41 35 -37 38 8 6 22 -17 47 -24 88 -26 40 -1 54 1 49 9 -6 9 -2 9
13 1 28 -15 116 -15 106 0 -4 8 0 7 15 -1 12 -6 41 -10 64 -8 l42 3 -75 41
c-41 23 -155 87 -252 141 l-178 100 -102 7 c-57 4 -118 9 -137 13 -27 5 -32 3
-26 -8 6 -11 5 -12 -6 -1 -7 6 -33 12 -57 12 -32 0 -41 -3 -36 -12 5 -9 2 -9
-9 1 -18 14 -23 26 -8 16 5 -3 13 -1 16 5 4 6 15 8 25 5 25 -8 34 10 14 29 -8
9 -13 16 -9 16 11 0 -27 34 -53 47 -13 7 -34 13 -46 13 -17 0 -18 2 -6 10 13
9 13 11 0 20 -8 5 -28 10 -45 11 -93 6 -121 5 -133 -4 -9 -7 -17 -4 -28 11
-15 22 -54 31 -54 13 0 -6 -12 -6 -32 0 -46 13 -68 11 -68 -5z m10 -91 c-7 -9
-15 -13 -17 -11 -7 7 7 26 19 26 6 0 6 -6 -2 -15z m16 -45 c-16 -5 -16 -8 4
-35 20 -27 19 -27 -7 3 -16 17 -38 32 -49 33 -14 1 -13 3 6 8 14 4 34 5 44 2
18 -4 18 -5 2 -11z m-136 -40 c6 -11 8 -20 6 -20 -3 0 -10 9 -16 20 -6 11 -8
20 -6 20 3 0 10 -9 16 -20z m467 13 c-33 -3 -45 -8 -40 -16 4 -7 0 -6 -10 2
-9 7 -17 14 -17 16 0 1 26 2 58 2 53 0 54 0 9 -4z m13 -58 c13 -14 21 -25 18
-25 -2 0 -15 11 -28 25 -13 14 -21 25 -18 25 2 0 15 -11 28 -25z m-450 -5 c6
-11 8 -20 6 -20 -3 0 -10 9 -16 20 -6 11 -8 20 -6 20 3 0 10 -9 16 -20z m170
-20 c17 -22 29 -40 27 -40 -3 0 -20 18 -37 40 -17 22 -29 40 -27 40 3 0 20
-18 37 -40z m391 23 c13 -16 12 -17 -3 -4 -10 7 -18 15 -18 17 0 8 8 3 21 -13z
m-531 -53 c6 -11 8 -20 6 -20 -3 0 -10 9 -16 20 -6 11 -8 20 -6 20 3 0 10 -9
16 -20z m621 -17 c13 -16 12 -17 -3 -4 -10 7 -18 15 -18 17 0 8 8 3 21 -13z
m-106 -13 c10 -11 16 -20 13 -20 -3 0 -13 9 -23 20 -10 11 -16 20 -13 20 3 0
13 -9 23 -20z m-320 -10 c10 -11 16 -20 13 -20 -3 0 -13 9 -23 20 -10 11 -16
20 -13 20 3 0 13 -9 23 -20z m-165 -10 c6 -11 8 -20 6 -20 -3 0 -10 9 -16 20
-6 11 -8 20 -6 20 3 0 10 -9 16 -20z m955 2 c-3 -3 -11 0 -18 7 -9 10 -8 11 6
5 10 -3 15 -9 12 -12z m-70 -20 c-3 -3 -11 0 -18 7 -9 10 -8 11 6 5 10 -3 15
-9 12 -12z m-312 -41 c-2 -3 -16 8 -31 24 l-27 28 31 -24 c17 -13 30 -26 27
-28z m-368 19 c10 -11 16 -20 13 -20 -3 0 -13 9 -23 20 -10 11 -16 20 -13 20
3 0 13 -9 23 -20z m775 -36 c0 -2 -9 0 -20 6 -11 6 -20 13 -20 16 0 2 9 0 20
-6 11 -6 20 -13 20 -16z m-360 -19 c13 -14 21 -25 18 -25 -2 0 -15 11 -28 25
-13 14 -21 25 -18 25 2 0 15 -11 28 -25z m515 -5 c3 -6 -1 -7 -9 -4 -18 7 -21
14 -7 14 6 0 13 -4 16 -10z m-81 -29 c-2 -3 -12 3 -22 13 -16 17 -16 18 5 5
12 -7 20 -15 17 -18z m-253 2 c13 -16 12 -17 -3 -4 -10 7 -18 15 -18 17 0 8 8
3 21 -13z m384 -3 c3 -6 -1 -7 -9 -4 -18 7 -21 14 -7 14 6 0 13 -4 16 -10z"/>
<path d="M5051 1724 c-18 -8 -40 -22 -48 -30 -8 -7 -24 -14 -35 -14 -14 0 -18
-5 -14 -16 4 -12 2 -15 -9 -10 -8 3 -15 1 -15 -4 0 -6 -10 -10 -22 -10 -16 0
-19 -3 -11 -11 8 -8 17 -8 34 1 24 11 24 11 -1 -10 -13 -12 -26 -17 -28 -12
-4 13 -52 -9 -52 -24 0 -7 -6 -14 -13 -17 -10 -4 -13 2 -9 19 4 25 -12 34 -21
12 -4 -10 -6 -10 -6 0 -1 6 -8 12 -17 12 -14 0 -14 -3 -4 -15 11 -13 10 -14
-6 -8 -16 6 -17 4 -6 -9 10 -13 10 -17 -4 -22 -10 -4 -21 -1 -26 6 -6 8 -7 4
-2 -12 4 -14 11 -26 15 -28 5 -2 4 -13 -2 -24 -6 -11 -8 -22 -5 -26 3 -3 6 -1
6 4 0 5 12 10 26 11 15 0 30 7 35 15 7 10 9 9 9 -4 0 -10 7 -18 15 -18 12 0
14 9 10 43 l-5 42 13 -43 12 -44 32 31 c38 36 48 39 33 11 -10 -19 -8 -20 45
-20 53 0 55 1 55 26 0 21 4 25 20 21 22 -6 28 8 8 17 -7 3 -3 3 10 0 22 -5 22
-4 22 85 0 50 -1 91 -2 90 -2 0 -18 -7 -37 -15z m-36 -184 c-3 -5 -11 -10 -16
-10 -6 0 -7 5 -4 10 3 6 11 10 16 10 6 0 7 -4 4 -10z"/>
<path d="M1025 1708 c11 -6 23 -15 26 -20 3 -6 10 -10 15 -10 5 0 26 -9 46
-19 21 -10 44 -19 53 -19 9 0 14 -4 11 -8 -3 -5 30 -27 72 -51 42 -23 118 -64
167 -91 l90 -49 253 1 c139 0 251 2 250 3 -2 2 -43 20 -93 40 -49 20 -173 73
-274 117 -103 45 -192 77 -202 75 -11 -3 -17 -2 -14 2 2 5 -8 8 -23 9 -15 0
-106 8 -202 16 -206 19 -201 19 -175 4z m485 -68 c19 -11 31 -19 25 -19 -5 0
-26 8 -45 19 -19 11 -30 19 -25 19 6 0 26 -8 45 -19z m121 -58 c-7 -2 -18 1
-23 6 -8 8 -4 9 13 5 13 -4 18 -8 10 -11z m-54 -38 c-3 -3 -12 -4 -19 -1 -8 3
-5 6 6 6 11 1 17 -2 13 -5z m140 -30 c-3 -3 -12 -4 -19 -1 -8 3 -5 6 6 6 11 1
17 -2 13 -5z m-113 -23 c4 -5 -3 -7 -14 -4 -23 6 -26 13 -6 13 8 0 17 -4 20
-9z m163 3 c-3 -3 -12 -4 -19 -1 -8 3 -5 6 6 6 11 1 17 -2 13 -5z m78 -4 c3
-6 -1 -7 -9 -4 -18 7 -21 14 -7 14 6 0 13 -4 16 -10z m-180 -30 c3 -6 -1 -7
-9 -4 -18 7 -21 14 -7 14 6 0 13 -4 16 -10z m82 4 c-3 -3 -12 -4 -19 -1 -8 3
-5 6 6 6 11 1 17 -2 13 -5z m88 -4 c3 -6 -1 -7 -9 -4 -18 7 -21 14 -7 14 6 0
13 -4 16 -10z m85 0 c18 -12 2 -12 -25 0 -13 6 -15 9 -5 9 8 0 22 -4 30 -9z"/>
<path d="M1545 1661 c25 -13 50 -18 67 -15 14 3 29 1 32 -4 4 -6 -4 -8 -16 -5
-20 4 -20 3 -6 -6 38 -25 231 -100 241 -94 5 3 7 2 4 -3 -3 -6 42 -29 101 -52
106 -41 108 -41 220 -38 62 2 115 6 119 10 3 3 -2 6 -13 7 -18 0 -18 1 1 9
l20 9 -20 1 c-39 3 -117 1 -122 -4 -3 -2 16 -4 42 -4 26 0 51 -4 56 -9 14 -14
-70 -8 -116 8 -56 20 -93 39 -74 39 8 0 19 -4 25 -9 13 -12 72 -25 59 -13 -5
6 -19 12 -30 14 -11 3 3 5 30 5 37 0 43 -2 25 -7 -19 -5 -12 -7 25 -7 l50 -1
-65 26 c-36 13 -81 25 -100 25 -28 -1 -31 1 -15 7 l20 9 -20 2 c-11 1 -31 1
-45 0 -17 -1 -21 1 -12 7 9 6 -5 16 -47 31 -48 17 -65 20 -82 11 -11 -7 -23
-9 -26 -7 -2 3 6 8 18 12 21 7 20 8 -12 22 -33 14 -66 18 -234 29 -44 2 -93 7
-110 10 -27 5 -27 3 10 -15z m207 -28 c-6 -2 -10 -9 -7 -14 4 -5 -1 -6 -10 -2
-13 5 -14 7 -3 14 7 5 18 8 23 8 6 0 4 -3 -3 -6z m-62 -13 c8 -5 11 -10 5 -10
-5 0 -17 5 -25 10 -8 5 -10 10 -5 10 6 0 17 -5 25 -10z m147 -15 l-27 -11 38
-13 c20 -8 43 -16 51 -19 9 -3 12 -1 8 5 -5 7 1 9 15 5 21 -5 21 -6 3 -12 -16
-6 -12 -9 20 -20 22 -7 45 -17 50 -22 11 -11 -82 23 -164 58 -58 26 -76 30
-66 14 3 -5 -7 -5 -25 1 -32 12 -43 24 -11 14 10 -3 28 -2 40 3 13 4 39 8 59
8 36 0 36 0 9 -11z m113 -15 c-8 -5 -19 -10 -25 -10 -5 0 -3 5 5 10 8 5 20 10
25 10 6 0 3 -5 -5 -10z m93 -47 c-7 -2 -19 -2 -25 0 -7 3 -2 5 12 5 14 0 19
-2 13 -5z m-108 -24 c22 -10 29 -16 15 -13 -28 7 -80 33 -65 33 6 0 28 -9 50
-20z m162 5 c-3 -3 -12 -4 -19 -1 -8 3 -5 6 6 6 11 1 17 -2 13 -5z m50 0 c-3
-3 -12 -4 -19 -1 -8 3 -5 6 6 6 11 1 17 -2 13 -5z m-102 -24 c3 -5 15 -10 25
-10 10 0 21 -4 24 -9 7 -11 -30 -2 -64 16 -17 9 -20 13 -8 13 9 0 20 -4 23
-10z m-10 -21 c5 -5 17 -9 26 -9 10 0 20 -4 23 -9 8 -13 -29 -2 -73 21 -24 12
-28 17 -11 12 14 -3 29 -10 35 -15z m115 -19 c18 -12 2 -12 -25 0 -13 6 -15 9
-5 9 8 0 22 -4 30 -9z"/>
<path d="M3306 1663 c-11 -10 -15 -12 -11 -4 6 11 3 13 -16 8 -13 -4 -28 -7
-32 -7 -5 0 -6 -4 -3 -9 8 -12 -37 -8 -46 4 -5 6 -8 5 -8 -4 0 -8 -6 -11 -16
-7 -8 3 -12 2 -9 -4 3 -6 -1 -10 -9 -10 -9 0 -16 -4 -16 -9 0 -5 -16 -4 -35 2
-30 9 -38 8 -53 -8 -16 -17 -16 -17 2 -11 14 5 17 2 12 -10 -5 -12 -2 -15 10
-10 9 4 22 2 28 -3 6 -5 57 -12 114 -16 82 -5 102 -4 102 7 0 10 2 10 8 1 4
-7 13 -9 21 -4 7 5 11 13 7 19 -3 6 2 15 11 21 11 6 13 11 5 11 -7 0 -11 4 -8
9 3 5 -2 15 -11 22 -12 10 -14 10 -9 2 4 -7 5 -13 1 -13 -3 0 -9 9 -13 20 -7
19 -8 19 -26 3z m-71 -52 c3 -5 1 -12 -5 -16 -5 -3 -10 1 -10 9 0 18 6 21 15
7z m92 -7 c-3 -3 -12 -4 -19 -1 -8 3 -5 6 6 6 11 1 17 -2 13 -5z"/>
<path d="M1925 1634 c22 -8 45 -12 53 -9 7 2 11 1 8 -4 -9 -14 29 -20 50 -8
17 9 18 9 5 -6 -8 -10 -9 -17 -3 -17 6 0 14 5 17 10 3 6 11 10 17 10 7 0 7 -5
-1 -14 -16 -19 15 -30 37 -13 49 36 16 52 -123 60 -96 6 -98 5 -60 -9z"/>
<path d="M2133 1615 c0 -8 4 -15 9 -15 5 0 6 -5 2 -11 -5 -8 -1 -8 14 0 29 15
37 14 22 -4 -7 -8 -19 -15 -26 -15 -8 0 -14 -5 -14 -10 0 -14 30 2 54 29 19
21 19 21 0 22 -10 1 -25 1 -31 0 -7 -1 -13 3 -13 9 0 5 -4 10 -8 10 -5 0 -9
-7 -9 -15z"/>
<path d="M2208 1623 c7 -3 16 -2 19 1 4 3 -2 6 -13 5 -11 0 -14 -3 -6 -6z"/>
<path d="M3706 1598 c3 -4 9 -8 15 -8 5 0 9 4 9 8 0 5 -7 9 -15 9 -8 0 -12 -4
-9 -9z"/>
<path d="M3905 1600 c-19 -8 -19 -9 3 -9 12 -1 22 4 22 9 0 6 -1 10 -2 9 -2 0
-12 -4 -23 -9z"/>
<path d="M2210 1580 c-14 -11 -20 -20 -13 -20 11 0 43 26 43 36 0 7 -4 5 -30
-16z"/>
<path d="M4686 1592 c-3 -4 4 -16 15 -25 22 -19 25 -10 5 16 -8 10 -17 14 -20
9z"/>
<path d="M2252 1581 c-10 -6 -7 -10 12 -13 21 -4 24 -3 15 8 -13 16 -11 16
-27 5z"/>
<path d="M3674 1578 c-5 -7 -2 -8 7 -3 8 5 11 4 6 -1 -5 -5 -23 -15 -40 -21
l-32 -12 45 1 c25 1 51 6 58 11 9 7 17 6 25 -2 9 -10 8 -11 -5 -6 -11 4 -18 2
-18 -4 0 -6 12 -11 28 -10 15 0 72 -2 127 -5 65 -4 93 -3 80 3 -16 8 -17 10
-3 10 9 1 20 5 23 11 3 5 0 7 -8 4 -8 -3 -17 2 -21 11 -5 14 -8 14 -28 1 -29
-19 -84 -25 -81 -9 1 6 -5 14 -13 17 -12 4 -15 2 -11 -9 4 -8 2 -17 -3 -20 -6
-4 -10 3 -10 14 0 12 -7 21 -15 21 -8 0 -15 -6 -15 -12 0 -9 -3 -10 -8 -2 -10
16 -80 25 -88 12z"/>
<path d="M3836 1583 c6 -4 14 -15 17 -23 5 -11 6 -9 4 4 -1 11 -9 21 -17 23
-10 3 -11 2 -4 -4z"/>
<path d="M3515 1571 c-6 -5 -21 -11 -35 -14 -21 -4 -20 -4 8 -6 17 0 32 3 32
8 0 5 8 12 18 14 13 4 13 5 2 6 -9 0 -20 -3 -25 -8z"/>
<path d="M3564 1554 c-18 -14 -18 -15 4 -4 12 6 22 13 22 15 0 8 -5 6 -26 -11z"/>
<path d="M4000 1549 c0 -4 6 -10 13 -12 10 -4 10 -6 0 -6 -7 -1 -13 -5 -13
-10 0 -4 29 -11 65 -15 36 -4 70 -8 77 -10 7 -1 9 -1 5 2 -4 2 0 11 10 19 10
8 12 12 6 8 -7 -3 -22 -1 -33 5 -15 8 -26 7 -42 -1 -21 -11 -22 -11 -9 4 12
15 11 17 -3 17 -9 0 -16 -4 -16 -10 0 -5 -5 -10 -11 -10 -5 0 -8 4 -5 9 3 5
-5 11 -19 13 -14 3 -25 2 -25 -3z"/>
<path d="M4137 1549 c7 -7 15 -10 18 -7 3 3 -2 9 -12 12 -14 6 -15 5 -6 -5z"/>
<path d="M4565 1551 c-3 -5 -2 -12 3 -15 5 -3 9 1 9 9 0 17 -3 19 -12 6z"/>
<path d="M2200 1540 c-10 -6 -2 -7 25 -3 49 7 58 13 19 13 -16 0 -36 -5 -44
-10z"/>
<path d="M4613 1536 c-24 -14 -21 -26 7 -26 10 0 23 -7 30 -15 7 -8 17 -12 22
-9 5 3 2 15 -8 25 -17 19 -17 20 2 13 17 -7 17 -6 5 9 -15 20 -27 20 -58 3z"/>
<path d="M550 1531 c0 -6 4 -13 10 -16 6 -3 7 1 4 9 -7 18 -14 21 -14 7z"/>
<path d="M4696 1525 c4 -8 10 -12 15 -9 11 6 2 24 -11 24 -5 0 -7 -7 -4 -15z"/>
<path d="M4545 1520 c-3 -5 1 -10 10 -10 9 0 13 5 10 10 -3 6 -8 10 -10 10 -2
0 -7 -4 -10 -10z"/>
<path d="M4400 1512 c0 -5 7 -9 15 -9 8 0 12 4 9 9 -3 4 -9 8 -15 8 -5 0 -9
-4 -9 -8z"/>
<path d="M4470 1516 c0 -2 8 -10 18 -17 15 -13 16 -12 3 4 -13 16 -21 21 -21
13z"/>
<path d="M5049 1479 c-10 -6 -7 -9 14 -9 29 0 35 5 14 13 -8 3 -20 1 -28 -4z"/>
<path d="M2333 1455 c0 -7 8 -10 19 -7 10 2 18 6 18 7 0 1 -8 5 -18 7 -11 3
-19 0 -19 -7z"/>
<path d="M4895 1434 l-30 -13 30 0 c17 0 45 -3 63 -7 22 -4 32 -3 32 6 0 8 4
9 13 3 6 -5 26 -6 42 -2 17 3 23 8 15 9 -9 1 -4 6 10 10 17 6 4 7 -40 5 -81
-4 -78 -3 -60 -15 13 -8 13 -10 -2 -10 -9 0 -24 3 -34 7 -16 6 -16 7 2 14 12
5 13 8 4 7 -8 0 -28 -6 -45 -14z"/>
<path d="M608 1433 c7 -3 16 -2 19 1 4 3 -2 6 -13 5 -11 0 -14 -3 -6 -6z"/>
<path d="M646 1431 c-4 -5 3 -7 14 -4 23 6 26 13 6 13 -8 0 -17 -4 -20 -9z"/>
<path d="M737 1433 c18 -2 50 -2 70 0 21 2 7 4 -32 4 -38 0 -55 -2 -38 -4z"/>
<path d="M6 1403 c-4 -8 -6 -192 -6 -408 l1 -394 22 -4 22 -4 -22 -2 -22 -1
-1 -295 0 -295 109 0 c78 0 111 4 114 13 4 9 6 9 6 0 1 -8 15 -13 34 -13 41 0
227 61 227 75 0 5 -18 55 -40 110 -34 88 -42 100 -62 98 -15 -1 -17 0 -5 3 9
3 17 9 17 13 0 4 -39 111 -86 237 -95 255 -108 291 -223 619 -45 126 -81 234
-81 240 1 5 21 -46 46 -115 213 -588 229 -630 244 -630 11 0 12 -2 3 -8 -17
-11 36 -152 57 -153 10 0 11 -2 3 -6 -12 -4 9 -73 51 -166 8 -17 29 -70 46
-117 18 -47 36 -95 41 -107 7 -20 11 -20 43 -11 20 6 36 15 36 20 0 5 4 7 9 4
4 -3 85 20 179 52 l171 58 -53 88 c-30 48 -56 90 -59 92 -3 3 -30 -2 -62 -11
-31 -9 -58 -15 -61 -13 -2 3 23 12 56 21 l60 17 -47 75 c-33 54 -52 75 -67 76
-17 0 -18 2 -4 7 14 6 11 16 -23 72 -27 45 -44 64 -57 62 -13 -2 -14 -1 -4 6
11 7 -13 55 -107 216 -130 222 -154 266 -147 266 2 0 26 -37 51 -82 26 -46
108 -185 182 -310 105 -178 138 -226 151 -221 13 4 14 3 4 -5 -19 -13 71 -161
96 -157 9 1 11 0 5 -2 -7 -3 -13 -6 -13 -9 0 -2 25 -44 55 -93 l56 -89 167 55
c92 31 169 57 171 59 2 2 -25 37 -60 79 -61 74 -64 76 -98 71 -32 -5 -33 -4
-11 5 13 5 26 12 28 14 2 2 -63 86 -145 187 -126 155 -402 508 -437 558 -38
54 56 -61 224 -275 107 -137 214 -270 238 -295 24 -25 42 -46 40 -46 -2 -1 19
-29 46 -63 32 -39 57 -61 70 -61 15 0 17 -3 8 -9 -11 -7 35 -72 112 -159 5 -4
276 91 276 97 0 4 -29 35 -64 70 l-64 64 -47 -12 c-26 -7 -49 -10 -52 -8 -2 3
17 10 42 16 l46 12 -113 114 c-62 63 -119 115 -126 115 -7 0 -11 4 -8 9 3 4
-18 31 -47 58 -67 64 -469 480 -495 513 -20 25 -20 25 -216 27 l-196 2 15 -30
c9 -16 13 -29 11 -29 -3 0 -12 13 -20 29 l-15 29 -110 0 c-88 0 -111 -3 -115
-15z m525 -95 c11 -16 18 -28 15 -28 -3 0 -26 28 -51 63 -26 34 -32 46 -15 27
17 -19 40 -47 51 -62z m-226 -8 c9 -16 13 -30 11 -30 -3 0 -12 14 -21 30 -9
17 -13 30 -11 30 3 0 12 -13 21 -30z m40 -70 c9 -16 13 -30 11 -30 -3 0 -12
14 -21 30 -9 17 -13 30 -11 30 3 0 12 -13 21 -30z m572 -246 c-3 -3 -12 -4
-19 -1 -8 3 -5 6 6 6 11 1 17 -2 13 -5z m156 -81 c-7 -2 -21 -2 -30 0 -10 3
-4 5 12 5 17 0 24 -2 18 -5z m-906 -9 c-3 -3 -12 -4 -19 -1 -8 3 -5 6 6 6 11
1 17 -2 13 -5z m840 0 c-3 -3 -12 -4 -19 -1 -8 3 -5 6 6 6 11 1 17 -2 13 -5z
m-914 -11 c-7 -2 -19 -2 -25 0 -7 3 -2 5 12 5 14 0 19 -2 13 -5z m834 1 c-3
-3 -12 -4 -19 -1 -8 3 -5 6 6 6 11 1 17 -2 13 -5z m-510 -80 c-3 -3 -12 -4
-19 -1 -8 3 -5 6 6 6 11 1 17 -2 13 -5z m756 -1 c-7 -2 -21 -2 -30 0 -10 3 -4
5 12 5 17 0 24 -2 18 -5z m-830 -10 c-7 -2 -19 -2 -25 0 -7 3 -2 5 12 5 14 0
19 -2 13 -5z m770 0 c-7 -2 -19 -2 -25 0 -7 3 -2 5 12 5 14 0 19 -2 13 -5z
m-836 -9 c-3 -3 -12 -4 -19 -1 -8 3 -5 6 6 6 11 1 17 -2 13 -5z m786 -1 c-7
-2 -19 -2 -25 0 -7 3 -2 5 12 5 14 0 19 -2 13 -5z m-856 -9 c-3 -3 -12 -4 -19
-1 -8 3 -5 6 6 6 11 1 17 -2 13 -5z m800 0 c-3 -3 -12 -4 -19 -1 -8 3 -5 6 6
6 11 1 17 -2 13 -5z m-864 -11 c-7 -2 -19 -2 -25 0 -7 3 -2 5 12 5 14 0 19 -2
13 -5z m-70 -10 c-7 -2 -21 -2 -30 0 -10 3 -4 5 12 5 17 0 24 -2 18 -5z m830
0 c-7 -2 -19 -2 -25 0 -7 3 -2 5 12 5 14 0 19 -2 13 -5z m-56 -9 c-3 -3 -12
-4 -19 -1 -8 3 -5 6 6 6 11 1 17 -2 13 -5z m-60 -10 c-3 -3 -12 -4 -19 -1 -8
3 -5 6 6 6 11 1 17 -2 13 -5z m-50 -10 c-3 -3 -12 -4 -19 -1 -8 3 -5 6 6 6 11
1 17 -2 13 -5z m-50 -10 c-3 -3 -12 -4 -19 -1 -8 3 -5 6 6 6 11 1 17 -2 13 -5z
m602 -21 c2 -2 -3 -3 -11 -3 -9 0 -19 7 -22 16 -6 15 -4 15 11 3 10 -7 20 -15
22 -16z m-706 0 c-7 -2 -19 -2 -25 0 -7 3 -2 5 12 5 14 0 19 -2 13 -5z m-66
-9 c-3 -3 -12 -4 -19 -1 -8 3 -5 6 6 6 11 1 17 -2 13 -5z m730 0 c-3 -3 -12
-4 -19 -1 -8 3 -5 6 6 6 11 1 17 -2 13 -5z m-774 -11 c-7 -2 -19 -2 -25 0 -7
3 -2 5 12 5 14 0 19 -2 13 -5z m730 0 c-7 -2 -19 -2 -25 0 -7 3 -2 5 12 5 14
0 19 -2 13 -5z m-786 -9 c-3 -3 -12 -4 -19 -1 -8 3 -5 6 6 6 11 1 17 -2 13 -5z
m740 0 c-3 -3 -12 -4 -19 -1 -8 3 -5 6 6 6 11 1 17 -2 13 -5z m-800 -10 c-3
-3 -12 -4 -19 -1 -8 3 -5 6 6 6 11 1 17 -2 13 -5z m760 0 c-3 -3 -12 -4 -19
-1 -8 3 -5 6 6 6 11 1 17 -2 13 -5z m-870 -20 c-3 -3 -12 -4 -19 -1 -8 3 -5 6
6 6 11 1 17 -2 13 -5z m763 -4 c-14 -4 -34 -8 -45 -8 -16 0 -15 2 5 8 14 4 34
8 45 8 16 0 15 -2 -5 -8z m-817 -7 c-7 -2 -19 -2 -25 0 -7 3 -2 5 12 5 14 0
19 -2 13 -5z m-50 -10 c-7 -2 -19 -2 -25 0 -7 3 -2 5 12 5 14 0 19 -2 13 -5z
m794 1 c-3 -3 -12 -4 -19 -1 -8 3 -5 6 6 6 11 1 17 -2 13 -5z m-854 -11 c-7
-2 -19 -2 -25 0 -7 3 -2 5 12 5 14 0 19 -2 13 -5z m814 1 c-3 -3 -12 -4 -19
-1 -8 3 -5 6 6 6 11 1 17 -2 13 -5z m-50 -10 c-3 -3 -12 -4 -19 -1 -8 3 -5 6
6 6 11 1 17 -2 13 -5z m-40 -10 c-3 -3 -12 -4 -19 -1 -8 3 -5 6 6 6 11 1 17
-2 13 -5z m-130 -30 c-3 -3 -12 -4 -19 -1 -8 3 -5 6 6 6 11 1 17 -2 13 -5z
m-50 -10 c-3 -3 -12 -4 -19 -1 -8 3 -5 6 6 6 11 1 17 -2 13 -5z m698 -4 c-11
-5 -27 -9 -35 -9 -9 0 -8 4 5 9 11 5 27 9 35 9 9 0 8 -4 -5 -9z m-738 -6 c-3
-3 -12 -4 -19 -1 -8 3 -5 6 6 6 11 1 17 -2 13 -5z m-44 -11 c-7 -2 -19 -2 -25
0 -7 3 -2 5 12 5 14 0 19 -2 13 -5z m724 1 c-3 -3 -12 -4 -19 -1 -8 3 -5 6 6
6 11 1 17 -2 13 -5z m-770 -10 c-3 -3 -12 -4 -19 -1 -8 3 -5 6 6 6 11 1 17 -2
13 -5z m-40 -10 c-3 -3 -12 -4 -19 -1 -8 3 -5 6 6 6 11 1 17 -2 13 -5z m913
-19 c13 -14 21 -25 18 -25 -2 0 -15 11 -28 25 -13 14 -21 25 -18 25 2 0 15
-11 28 -25z m-957 8 c-7 -2 -19 -2 -25 0 -7 3 -2 5 12 5 14 0 19 -2 13 -5z
m838 -10 c13 -16 12 -17 -3 -4 -10 7 -18 15 -18 17 0 8 8 3 21 -13z m-934 -9
c-3 -3 -12 -4 -19 -1 -8 3 -5 6 6 6 11 1 17 -2 13 -5z m770 0 c-3 -3 -12 -4
-19 -1 -8 3 -5 6 6 6 11 1 17 -2 13 -5z m-814 -11 c-7 -2 -19 -2 -25 0 -7 3
-2 5 12 5 14 0 19 -2 13 -5z m762 -3 c-11 -5 -27 -9 -35 -9 -9 0 -8 4 5 9 11
5 27 9 35 9 9 0 8 -4 -5 -9z m-808 -6 c-3 -3 -12 -4 -19 -1 -8 3 -5 6 6 6 11
1 17 -2 13 -5z m-44 -11 c-7 -2 -19 -2 -25 0 -7 3 -2 5 12 5 14 0 19 -2 13 -5z
m794 1 c-3 -3 -12 -4 -19 -1 -8 3 -5 6 6 6 11 1 17 -2 13 -5z m-840 -10 c-3
-3 -12 -4 -19 -1 -8 3 -5 6 6 6 11 1 17 -2 13 -5z m788 -4 c-26 -11 -45 -12
-45 -2 0 4 15 8 33 9 26 1 28 0 12 -7z m-828 -6 c-3 -3 -12 -4 -19 -1 -8 3 -5
6 6 6 11 1 17 -2 13 -5z m1214 -11 c13 -16 12 -17 -3 -4 -10 7 -18 15 -18 17
0 8 8 3 21 -13z m-1264 1 c-3 -3 -12 -4 -19 -1 -8 3 -5 6 6 6 11 1 17 -2 13
-5z m640 -50 c-3 -3 -12 -4 -19 -1 -8 3 -5 6 6 6 11 1 17 -2 13 -5z m-52 -14
c-11 -5 -27 -9 -35 -9 -9 0 -8 4 5 9 11 5 27 9 35 9 9 0 8 -4 -5 -9z m-58 -16
c-3 -3 -12 -4 -19 -1 -8 3 -5 6 6 6 11 1 17 -2 13 -5z m-52 -14 c-11 -5 -27
-9 -35 -9 -9 0 -8 4 5 9 11 5 27 9 35 9 9 0 8 -4 -5 -9z m-58 -16 c-3 -3 -12
-4 -19 -1 -8 3 -5 6 6 6 11 1 17 -2 13 -5z m-110 -30 c-3 -3 -12 -4 -19 -1 -8
3 -5 6 6 6 11 1 17 -2 13 -5z m-52 -14 c-11 -5 -27 -9 -35 -9 -9 0 -8 4 5 9
11 5 27 9 35 9 9 0 8 -4 -5 -9z m-70 -20 c-11 -5 -27 -9 -35 -9 -9 0 -8 4 5 9
11 5 27 9 35 9 9 0 8 -4 -5 -9z m625 -10 c6 -11 8 -20 6 -20 -3 0 -10 9 -16
20 -6 11 -8 20 -6 20 3 0 10 -9 16 -20z m-683 -6 c-3 -3 -12 -4 -19 -1 -8 3
-5 6 6 6 11 1 17 -2 13 -5z m-52 -14 c-11 -5 -27 -9 -35 -9 -9 0 -8 4 5 9 11
5 27 9 35 9 9 0 8 -4 -5 -9z m-70 -20 c-11 -5 -27 -9 -35 -9 -9 0 -8 4 5 9 11
5 27 9 35 9 9 0 8 -4 -5 -9z m525 -65 c0 -5 -5 -3 -10 5 -5 8 -10 20 -10 25 0
6 5 3 10 -5 5 -8 10 -19 10 -25z"/>
<path d="M690 1412 c0 -4 16 -22 35 -41 19 -19 35 -42 35 -52 0 -10 4 -20 9
-23 5 -4 7 3 4 14 -3 11 106 -89 242 -222 187 -184 255 -245 279 -249 24 -5
26 -7 7 -8 -21 -1 -18 -5 27 -46 28 -25 79 -75 113 -110 34 -36 69 -65 77 -65
9 0 13 -2 10 -5 -3 -3 25 -35 63 -71 l68 -66 112 37 113 38 -25 20 c-13 10
-102 83 -198 160 -132 108 -180 141 -200 140 -22 -1 -23 -1 -3 4 21 4 19 7
-25 44 -26 21 -51 39 -54 39 -4 0 -10 7 -13 16 -6 15 -4 15 11 3 10 -8 20 -17
23 -20 22 -25 206 -169 217 -169 7 0 12 -4 10 -9 -2 -10 107 -101 122 -101 6
0 11 -4 11 -8 0 -5 30 -32 66 -62 l67 -53 71 23 c133 42 128 34 48 90 -53 37
-78 49 -99 46 -15 -2 -20 -1 -10 1 10 3 17 8 15 13 -2 5 -64 52 -138 105 -119
85 -218 164 -133 107 17 -12 42 -22 55 -22 16 0 19 -3 10 -9 -10 -6 0 -18 37
-45 28 -20 55 -36 60 -36 5 0 11 -4 13 -9 2 -5 63 -51 137 -103 l135 -95 78
26 c86 28 85 24 17 74 -24 18 -24 18 6 1 17 -9 38 -23 48 -29 15 -11 30 -9 83
8 35 12 64 25 64 29 0 4 -13 14 -30 23 -17 9 -30 18 -30 21 0 3 19 -5 42 -19
l41 -24 56 19 c31 11 58 21 59 23 2 2 -19 15 -47 29 -28 15 -51 29 -51 32 0 3
26 -9 58 -26 l57 -30 55 18 55 19 -70 35 c-50 25 -76 33 -90 27 -33 -13 -53
-9 -21 4 l28 12 -62 30 c-35 17 -70 29 -78 27 -8 -2 -11 1 -8 6 9 16 -86 61
-119 56 -24 -3 -26 -2 -7 4 21 6 19 9 -30 34 -33 16 -66 24 -84 22 -25 -3 -26
-3 -5 4 22 7 21 9 -25 33 -27 15 -56 24 -64 21 -8 -2 -12 -1 -7 3 9 11 -164
106 -178 98 -5 -4 -7 -3 -3 2 4 4 -67 49 -158 98 -129 70 -178 91 -217 95 -38
4 -48 2 -42 -8 6 -9 3 -10 -12 -2 -28 15 -255 14 -247 -1 5 -8 2 -8 -7 1 -8 7
-39 12 -78 12 l-66 -1 29 -23 c16 -14 34 -23 40 -22 6 2 8 1 3 -1 -4 -3 -4
-10 0 -16 4 -7 -14 5 -39 25 l-46 37 -151 0 c-83 0 -151 -3 -151 -7z m650 -39
c0 -7 -39 17 -46 28 -3 6 5 3 20 -6 14 -10 26 -19 26 -22z m-330 -100 c0 -3
-31 23 -70 57 -38 34 -70 64 -70 67 0 3 32 -23 70 -57 39 -34 70 -64 70 -67z
m460 101 c0 -2 -9 0 -20 6 -11 6 -20 13 -20 16 0 2 9 0 20 -6 11 -6 20 -13 20
-16z m-249 -11 c13 -16 12 -17 -3 -4 -10 7 -18 15 -18 17 0 8 8 3 21 -13z
m179 -30 c0 -7 -39 17 -46 28 -3 6 5 3 20 -6 14 -10 26 -19 26 -22z m-190 -79
c0 -3 -12 4 -26 15 -15 11 -30 18 -35 15 -5 -3 -8 -1 -7 3 2 5 -10 22 -27 37
-16 15 -2 7 33 -19 34 -25 62 -48 62 -51z m76 65 c3 -6 -5 -3 -20 6 -14 10
-26 19 -26 22 0 7 39 -17 46 -28z m249 21 c3 -6 -1 -7 -9 -4 -18 7 -21 14 -7
14 6 0 13 -4 16 -10z m-55 -57 c0 -7 -39 17 -46 28 -3 6 5 3 20 -6 14 -10 26
-19 26 -22z m105 19 c-3 -3 -11 0 -18 7 -9 10 -8 11 6 5 10 -3 15 -9 12 -12z
m-260 -12 c3 -6 -1 -7 -9 -4 -18 7 -21 14 -7 14 6 0 13 -4 16 -10z m345 -36
c0 -2 -9 0 -20 6 -11 6 -20 13 -20 16 0 2 9 0 20 -6 11 -6 20 -13 20 -16z
m-591 -31 c2 -2 2 -5 -1 -8 -2 -3 -18 10 -34 28 l-29 32 30 -25 c17 -14 32
-26 34 -27z m336 25 c5 4 5 2 2 -4 -7 -12 38 -47 59 -47 6 0 11 -6 11 -13 0
-7 -26 5 -59 28 -57 41 -75 58 -39 39 10 -6 22 -7 26 -3z m131 -4 c18 -14 18
-14 -6 -3 -31 14 -36 19 -24 19 6 0 19 -7 30 -16z m-225 -58 c5 3 8 1 7 -5 -5
-15 62 -60 80 -54 12 3 13 2 5 -4 -17 -12 151 -137 181 -136 12 1 15 -1 8 -4
-10 -4 -10 -8 0 -21 15 -20 24 -26 -119 81 -70 52 -108 75 -120 71 -14 -4 -15
-3 -5 4 11 7 -4 22 -62 63 -41 30 -75 58 -75 62 -1 4 20 -8 45 -27 26 -20 51
-33 55 -30z m299 7 c0 -7 -39 17 -46 28 -3 6 5 3 20 -6 14 -10 26 -19 26 -22z
m144 15 c-3 -4 -11 -5 -19 -1 -21 7 -19 12 4 10 11 0 18 -5 15 -9z m-638 -30
l29 -33 -32 29 c-31 28 -38 36 -30 36 2 0 16 -15 33 -32z m728 -12 c3 2 4 1 1
-3 -3 -3 3 -12 13 -20 9 -7 -2 -4 -25 8 -47 23 -57 34 -19 19 13 -5 27 -7 30
-4z m-134 -32 c0 -2 -8 -1 -17 4 -10 5 -25 7 -33 5 -13 -4 -13 -3 -1 6 14 9
51 -2 51 -15z m-501 -31 c2 -2 2 -5 -1 -8 -2 -3 -18 10 -34 28 l-29 32 30 -25
c17 -14 32 -26 34 -27z m356 35 c3 4 5 2 3 -5 -1 -6 6 -19 17 -28 l20 -16 -20
10 c-11 6 -31 20 -45 31 -20 17 -21 19 -4 11 12 -6 25 -7 29 -3z m377 -25 c-6
-2 -9 -9 -6 -15 4 -7 0 -7 -12 0 -11 5 -26 7 -34 5 -11 -3 -11 -2 -3 4 7 5 25
9 40 10 15 1 22 -1 15 -4z m-138 -15 c12 3 18 2 15 -2 -12 -13 -66 -13 -66 0
0 9 5 10 15 5 8 -5 24 -6 36 -3z m-464 -115 c0 -3 -27 18 -60 47 -33 29 -60
54 -60 57 0 3 27 -18 60 -47 33 -29 60 -54 60 -57z m320 94 c12 4 12 2 2 -5
-16 -11 170 -137 202 -135 11 0 15 -1 8 -4 -6 -3 -9 -9 -6 -15 6 -9 -71 37
-130 78 -10 7 -26 10 -35 7 -11 -3 -12 -2 -4 4 9 6 -2 18 -37 39 -27 16 -50
33 -50 37 0 4 8 4 18 -1 9 -5 24 -7 32 -5z m63 6 c-7 -2 -19 -2 -25 0 -7 3 -2
5 12 5 14 0 19 -2 13 -5z m317 -25 c8 2 12 2 9 -2 -4 -4 -24 -9 -45 -11 -29
-3 -34 -2 -19 5 11 5 15 9 9 9 -5 1 -19 8 -30 16 -13 11 -6 10 21 -3 22 -11
47 -17 55 -14z m-200 -4 c0 -2 -9 0 -20 6 -11 6 -20 13 -20 16 0 2 9 0 20 -6
11 -6 20 -13 20 -16z m64 -17 c20 3 20 3 1 -6 -11 -5 -33 -9 -50 -9 -16 0 -22
2 -12 5 9 2 14 9 11 15 -5 7 -1 7 11 1 10 -6 27 -9 39 -6z m176 -23 c0 -2 -9
0 -20 6 -11 6 -20 13 -20 16 0 2 9 0 20 -6 11 -6 20 -13 20 -16z m-267 -1 c-7
-2 -21 -2 -30 0 -10 3 -4 5 12 5 17 0 24 -2 18 -5z m-156 -19 c-3 -3 -12 -4
-19 -1 -8 3 -5 6 6 6 11 1 17 -2 13 -5z m313 -20 c0 -2 -9 0 -20 6 -11 6 -20
13 -20 16 0 2 9 0 20 -6 11 -6 20 -13 20 -16z m192 19 c-23 -4 -23 -5 -5 -19
17 -14 17 -14 -4 -5 -12 6 -32 11 -45 11 -38 0 -3 15 39 16 21 1 28 -1 15 -3z
m-85 -19 c-3 -3 -12 -4 -19 -1 -8 3 -5 6 6 6 11 1 17 -2 13 -5z m-55 -11 c-6
-2 -9 -10 -6 -15 5 -7 2 -8 -7 -3 -7 5 -27 8 -44 8 -29 -1 -29 -1 -5 7 27 9
83 12 62 3z m-714 -20 c-10 -2 -26 -2 -35 0 -10 3 -2 5 17 5 19 0 27 -2 18 -5z
m615 0 c-7 -2 -19 -2 -25 0 -7 3 -2 5 12 5 14 0 19 -2 13 -5z m352 -16 c11 1
14 0 7 -3 -6 -3 -10 -9 -8 -13 3 -4 -9 -5 -25 -3 -16 2 -28 7 -25 10 3 3 -2
11 -12 19 -15 12 -13 12 13 0 17 -7 39 -12 50 -10z m-1042 6 c-7 -2 -21 -2
-30 0 -10 3 -4 5 12 5 17 0 24 -2 18 -5z m857 -29 c0 -2 -13 2 -30 11 -16 9
-30 18 -30 21 0 2 14 -2 30 -11 17 -9 30 -18 30 -21z m237 30 c-3 -3 -12 -4
-19 -1 -8 3 -5 6 6 6 11 1 17 -2 13 -5z m-514 -11 c-7 -2 -19 -2 -25 0 -7 3
-2 5 12 5 14 0 19 -2 13 -5z m-50 -10 c-7 -2 -21 -2 -30 0 -10 3 -4 5 12 5 17
0 24 -2 18 -5z m409 -17 c-24 -6 -41 -14 -37 -17 3 -4 -6 -4 -20 -2 -13 3 -22
9 -19 14 3 5 9 7 13 5 4 -3 21 -1 37 4 16 4 38 8 49 8 11 0 1 -5 -23 -12z
m-529 -3 c-7 -2 -19 -2 -25 0 -7 3 -2 5 12 5 14 0 19 -2 13 -5z m339 -33 c19
0 20 -2 8 -10 -8 -5 -10 -10 -5 -10 6 0 21 -10 35 -21 27 -23 10 -16 -30 12
-14 9 -37 16 -50 14 -14 -1 -16 0 -6 2 19 5 19 6 -5 25 l-24 20 27 -16 c15 -9
38 -16 50 -16z m428 -23 c0 -1 -17 -3 -38 -4 -26 -1 -31 1 -17 6 18 7 17 9
-13 25 -17 9 -32 19 -32 21 0 3 23 -6 50 -20 28 -14 50 -26 50 -28z m-883 37
c-3 -3 -12 -4 -19 -1 -8 3 -5 6 6 6 11 1 17 -2 13 -5z m550 0 c-3 -3 -12 -4
-19 -1 -8 3 -5 6 6 6 11 1 17 -2 13 -5z m-40 -10 c-3 -3 -12 -4 -19 -1 -8 3
-5 6 6 6 11 1 17 -2 13 -5z m153 -20 c0 -2 -9 0 -20 6 -11 6 -20 13 -20 16 0
2 9 0 20 -6 11 -6 20 -13 20 -16z m-777 9 c-7 -2 -21 -2 -30 0 -10 3 -4 5 12
5 17 0 24 -2 18 -5z m-60 -10 c-7 -2 -19 -2 -25 0 -7 3 -2 5 12 5 14 0 19 -2
13 -5z m544 -9 c-3 -3 -12 -4 -19 -1 -8 3 -5 6 6 6 11 1 17 -2 13 -5z m393
-13 c17 6 33 9 36 6 3 -3 -9 -8 -27 -12 l-32 -7 24 -20 c23 -19 23 -19 -16 1
-22 11 -49 27 -60 36 -19 15 -18 15 12 1 25 -12 38 -13 63 -5z m-437 2 c-7 -2
-19 -2 -25 0 -7 3 -2 5 12 5 14 0 19 -2 13 -5z m-90 -20 c-7 -2 -19 -2 -25 0
-7 3 -2 5 12 5 14 0 19 -2 13 -5z m-50 -10 c-7 -2 -19 -2 -25 0 -7 3 -2 5 12
5 14 0 19 -2 13 -5z m428 -13 c23 6 43 9 46 6 3 -2 -11 -8 -31 -11 -41 -8 -43
-12 -18 -32 13 -12 11 -12 -9 0 -24 14 -32 14 -84 1 -31 -8 -59 -13 -62 -10
-2 2 21 10 52 17 l57 13 -24 19 -23 19 28 -16 c23 -14 34 -15 68 -6z m86 14
c-3 -3 -12 -4 -19 -1 -8 3 -5 6 6 6 11 1 17 -2 13 -5z m-560 -10 c-3 -3 -12
-4 -19 -1 -8 3 -5 6 6 6 11 1 17 -2 13 -5z m-90 -20 c-3 -3 -12 -4 -19 -1 -8
3 -5 6 6 6 11 1 17 -2 13 -5z m-62 -14 c-11 -5 -31 -8 -45 -8 -23 0 -22 1 5 8
42 11 65 11 40 0z m-82 -17 c-7 -2 -19 -2 -25 0 -7 3 -2 5 12 5 14 0 19 -2 13
-5z m387 -49 c-25 -7 -49 -13 -55 -13 -18 1 59 27 80 28 11 0 0 -7 -25 -15z
m-125 -33 c-11 -5 -36 -11 -55 -14 -35 -6 -34 -6 5 8 43 14 84 19 50 6z m-98
-27 c-3 -3 -12 -4 -19 -1 -8 3 -5 6 6 6 11 1 17 -2 13 -5z m-40 -10 c-3 -3
-12 -4 -19 -1 -8 3 -5 6 6 6 11 1 17 -2 13 -5z"/>
<path d="M1597 1390 c29 -17 57 -30 62 -30 5 0 11 -3 13 -7 6 -15 150 -83 161
-76 5 3 7 2 4 -4 -8 -13 432 -243 468 -244 17 0 24 -3 17 -6 -9 -3 -3 -12 18
-24 17 -11 35 -17 41 -14 5 4 9 1 9 -4 0 -6 32 -27 72 -47 69 -35 74 -36 118
-25 25 7 64 17 88 22 23 6 42 15 42 21 0 6 7 8 15 4 8 -3 28 0 46 6 23 8 28
13 17 20 -9 6 -6 7 10 3 12 -4 37 -3 54 0 l32 7 -25 14 c-13 7 -20 13 -16 14
5 0 17 -5 28 -11 11 -6 34 -7 51 -3 l32 6 -25 14 c-13 7 -20 13 -16 14 5 0 17
-5 27 -10 11 -6 32 -7 47 -3 27 6 27 7 -22 28 -47 21 -85 23 -85 4 0 -5 5 -9
12 -9 6 0 9 -3 6 -6 -4 -3 -16 -1 -27 5 -11 7 -33 8 -47 5 -26 -7 -26 -8 -8
-22 21 -16 14 -14 -54 13 -24 10 -41 20 -38 22 2 3 14 -1 26 -7 25 -13 91 -3
69 11 -9 5 0 6 22 3 20 -4 39 -2 43 4 8 14 -75 43 -103 35 l-23 -6 23 -14 c17
-10 18 -12 4 -7 -11 4 -32 9 -47 12 -15 2 -25 8 -22 13 3 5 9 7 13 5 4 -3 20
-2 35 2 25 7 10 15 -116 65 -93 37 -152 55 -168 52 -21 -5 -22 -4 -5 3 19 9
19 9 -5 17 -14 4 -45 17 -70 28 -25 11 -58 20 -73 20 -15 0 -23 3 -16 7 6 5
-2 12 -21 19 -18 6 -37 8 -43 4 -5 -3 -7 -2 -4 4 4 6 -35 26 -87 46 l-94 37
-258 0 -259 0 52 -30z m308 -1 c5 -5 -5 -4 -23 2 -17 6 -32 13 -32 16 0 7 43
-8 55 -18z m156 3 c-7 -2 -18 1 -23 6 -8 8 -4 9 13 5 13 -4 18 -8 10 -11z
m-245 -8 c18 -14 18 -14 -6 -3 -31 14 -36 19 -24 19 6 0 19 -7 30 -16z m178 7
c4 -5 -3 -7 -14 -4 -23 6 -26 13 -6 13 8 0 17 -4 20 -9z m-269 -11 c3 -6 -1
-7 -9 -4 -18 7 -21 14 -7 14 6 0 13 -4 16 -10z m363 -30 c3 0 3 -2 0 -5 -5 -6
-78 22 -78 30 0 3 16 -2 36 -10 20 -8 39 -15 42 -15z m49 14 c-3 -3 -12 -4
-19 -1 -8 3 -5 6 6 6 11 1 17 -2 13 -5z m-353 -13 c4 -5 -3 -7 -14 -4 -23 6
-26 13 -6 13 8 0 17 -4 20 -9z m93 3 c-3 -3 -12 -4 -19 -1 -8 3 -5 6 6 6 11 1
17 -2 13 -5z m108 -4 c3 -6 -1 -7 -9 -4 -18 7 -21 14 -7 14 6 0 13 -4 16 -10z
m222 -16 c-3 -3 -12 -4 -19 -1 -8 3 -5 6 6 6 11 1 17 -2 13 -5z m-260 -10 c-3
-3 -12 -4 -19 -1 -8 3 -5 6 6 6 11 1 17 -2 13 -5z m100 0 c-3 -3 -12 -4 -19
-1 -8 3 -5 6 6 6 11 1 17 -2 13 -5z m-190 -10 c-3 -3 -12 -4 -19 -1 -8 3 -5 6
6 6 11 1 17 -2 13 -5z m428 -14 c3 -6 -1 -7 -9 -4 -18 7 -21 14 -7 14 6 0 13
-4 16 -10z m-78 -6 c-3 -3 -12 -4 -19 -1 -8 3 -5 6 6 6 11 1 17 -2 13 -5z
m-277 -19 c0 -2 -9 -3 -19 -2 -11 0 -18 5 -15 9 4 6 34 0 34 -7z m104 6 c4 -5
-3 -7 -14 -4 -23 6 -26 13 -6 13 8 0 17 -4 20 -9z m106 -1 c8 -5 11 -10 5 -10
-5 0 -17 5 -25 10 -8 5 -10 10 -5 10 6 0 17 -5 25 -10z m240 -16 c0 -3 -13 -3
-29 -2 -16 1 -28 5 -26 9 5 6 55 0 55 -7z m-175 -14 c3 -5 -4 -6 -15 -3 -11 3
-22 9 -25 13 -3 5 4 6 15 3 11 -3 22 -9 25 -13z m-185 -16 c0 -2 -12 -4 -26
-4 -14 0 -23 4 -20 9 6 8 46 4 46 -5z m105 5 c-5 -6 -55 0 -55 7 0 3 13 3 29
2 16 -1 28 -5 26 -9z m200 1 c3 -6 -1 -7 -9 -4 -18 7 -21 14 -7 14 6 0 13 -4
16 -10z m115 -4 c0 -2 -7 -7 -16 -10 -8 -3 -12 -2 -9 4 6 10 25 14 25 6z
m-153 -22 c-3 -3 -12 -4 -19 -1 -8 3 -5 6 6 6 11 1 17 -2 13 -5z m-177 -24 c0
-10 -38 -1 -45 10 -2 4 7 5 20 2 14 -2 25 -8 25 -12z m93 13 c-7 -2 -19 -2
-25 0 -7 3 -2 5 12 5 14 0 19 -2 13 -5z m44 1 c-3 -3 -12 -4 -19 -1 -8 3 -5 6
6 6 11 1 17 -2 13 -5z m321 -11 c-10 -2 -26 -2 -35 0 -10 3 -2 5 17 5 19 0 27
-2 18 -5z m-525 -10 c-7 -2 -21 -2 -30 0 -10 3 -4 5 12 5 17 0 24 -2 18 -5z
m464 1 c-3 -3 -12 -4 -19 -1 -8 3 -5 6 6 6 11 1 17 -2 13 -5z m-80 -10 c-3 -3
-12 -4 -19 -1 -8 3 -5 6 6 6 11 1 17 -2 13 -5z m-44 -11 c-7 -2 -19 -2 -25 0
-7 3 -2 5 12 5 14 0 19 -2 13 -5z m-173 -22 c0 -4 -13 -6 -30 -3 -16 2 -28 8
-25 12 5 9 55 1 55 -9z m94 11 c3 -5 -8 -6 -25 -4 -16 2 -29 6 -29 8 0 8 49 4
54 -4z m364 1 c-10 -2 -26 -2 -35 0 -10 3 -2 5 17 5 19 0 27 -2 18 -5z m-61
-9 c-3 -3 -12 -4 -19 -1 -8 3 -5 6 6 6 11 1 17 -2 13 -5z m-44 -11 c-7 -2 -19
-2 -25 0 -7 3 -2 5 12 5 14 0 19 -2 13 -5z m-70 -10 c-7 -2 -19 -2 -25 0 -7 3
-2 5 12 5 14 0 19 -2 13 -5z m-73 -13 c-32 -10 -79 -12 -63 -2 6 4 29 8 50 9
32 1 34 0 13 -7z m-110 -16 c0 -2 -11 -4 -25 -4 -14 0 -25 4 -25 9 0 4 11 6
25 3 14 -2 25 -6 25 -8z m375 -4 c-3 -5 -12 -7 -20 -3 -21 7 -19 13 6 13 11 0
18 -4 14 -10z m-452 -7 c-7 -2 -21 -2 -30 0 -10 3 -4 5 12 5 17 0 24 -2 18 -5z
m404 1 c-3 -3 -12 -4 -19 -1 -8 3 -5 6 6 6 11 1 17 -2 13 -5z m-33 -13 c3 -4
-6 -6 -19 -3 -14 2 -25 6 -25 8 0 8 39 4 44 -5z m-74 -11 c-14 -4 -36 -8 -50
-8 -22 0 -22 1 5 8 17 4 39 8 50 8 16 0 15 -2 -5 -8z m-103 -16 c-3 -3 -23 -8
-44 -10 -29 -3 -33 -2 -18 5 22 11 72 14 62 5z m310 -11 c-9 -3 -14 -9 -11
-15 4 -7 -2 -8 -17 -3 -41 12 -39 20 4 21 23 0 34 -1 24 -3z m-102 -33 c2 -4
-7 -5 -20 -2 -14 2 -27 8 -30 12 -2 4 7 5 20 2 14 -2 27 -8 30 -12z m32 14
c-3 -3 -12 -4 -19 -1 -8 3 -5 6 6 6 11 1 17 -2 13 -5z m-149 -21 c12 -3 22 -9
22 -13 0 -4 14 -13 30 -20 17 -7 28 -15 26 -18 -3 -2 -21 5 -41 16 -20 12 -47
20 -63 18 -15 -2 -18 -1 -7 1 18 5 18 6 -5 20 -16 9 -18 12 -5 7 11 -3 30 -9
43 -11z m59 1 c-3 -3 -12 -4 -19 -1 -8 3 -5 6 6 6 11 1 17 -2 13 -5z m-130
-30 c-3 -3 -12 -4 -19 -1 -8 3 -5 6 6 6 11 1 17 -2 13 -5z"/>
<path d="M2130 1412 c26 -8 84 -33 105 -45 20 -12 281 -19 269 -8 -3 3 -56 7
-117 8 -134 3 -147 4 -142 13 3 4 -9 10 -27 14 -17 3 -28 9 -25 13 4 3 26 -1
49 -10 27 -10 71 -15 120 -14 87 1 96 11 12 13 -30 1 -60 6 -67 11 -6 6 -52
10 -102 10 -49 0 -83 -2 -75 -5z m175 -12 c7 -12 -2 -12 -30 0 -19 8 -19 9 2
9 12 1 25 -3 28 -9z"/>
<path d="M2333 1413 c9 -2 23 -2 30 0 6 3 -1 5 -18 5 -16 0 -22 -2 -12 -5z"/>
<path d="M2398 1413 c7 -3 16 -2 19 1 4 3 -2 6 -13 5 -11 0 -14 -3 -6 -6z"/>
<path d="M4230 1393 c0 -13 -3 -15 -8 -5 -7 10 -16 10 -48 -2 -92 -33 -94 -35
-96 -90 -1 -39 -2 -43 -5 -16 -6 58 -8 61 -43 48 -30 -10 -31 -11 -13 -32 l18
-21 -23 19 c-22 19 -23 19 -110 -22 -48 -23 -99 -44 -114 -48 -16 -3 -28 -10
-28 -16 0 -5 -4 -7 -9 -3 -5 3 -15 0 -23 -7 -7 -7 -22 -15 -33 -16 -11 -2 -23
-8 -26 -14 -3 -5 -9 -9 -13 -9 -3 1 -7 1 -8 0 -2 0 -12 -2 -23 -4 -11 -2 -21
-8 -23 -14 -2 -5 -10 -7 -19 -4 -12 5 -14 3 -8 -6 6 -10 2 -11 -15 -6 -15 5
-20 4 -16 -4 4 -6 1 -12 -6 -12 -7 -1 -20 -3 -28 -4 -8 -1 -21 -3 -28 -4 -7 0
-10 -6 -6 -13 5 -8 2 -9 -9 -5 -21 8 -49 -2 -41 -14 3 -5 -1 -6 -9 -4 -7 3
-67 -15 -133 -40 -586 -225 -802 -304 -1264 -461 -184 -63 -343 -119 -354
-125 -10 -6 -188 -69 -395 -139 -207 -71 -485 -166 -618 -212 l-243 -83 327
-3 c255 -2 328 1 335 10 6 10 8 10 8 1 0 -13 26 -13 48 0 7 5 12 3 12 -3 0 -6
5 -8 10 -5 6 4 8 11 5 16 -4 5 0 16 9 24 11 11 16 12 19 2 3 -6 6 -3 6 8 1 17
3 18 12 5 9 -12 10 -12 5 4 -5 14 -2 17 9 12 9 -3 13 -2 10 4 -3 5 -22 7 -43
5 -24 -3 -32 -2 -23 4 8 5 11 16 8 25 -4 9 -2 16 3 16 6 0 10 -9 10 -20 0 -20
1 -20 30 -5 29 15 30 15 30 -8 0 -13 -9 -32 -20 -42 -10 -9 -18 -22 -17 -28 1
-6 -3 -11 -10 -12 -6 0 -14 -3 -17 -6 -4 -3 14 -5 38 -5 24 1 42 4 39 8 -2 5
1 8 6 8 16 0 26 -4 24 -10 -1 -3 7 -6 18 -6 10 0 19 6 19 13 0 7 -6 10 -13 7
-8 -3 -18 6 -25 21 -7 15 -8 24 -2 20 5 -3 10 3 10 13 0 19 24 37 45 33 6 -1
1 6 -9 14 -19 15 -19 15 5 13 21 -2 24 -7 23 -35 0 -18 3 -33 8 -33 5 0 6 -4
3 -10 -3 -5 -1 -10 5 -10 6 0 10 -6 9 -12 -1 -7 -1 -19 0 -26 1 -10 150 -12
731 -12 l730 0 -1 56 c-1 30 1 58 5 61 3 3 6 -21 6 -55 l0 -62 39 0 c37 0 39
2 43 35 2 19 0 39 -4 43 -5 5 -2 9 6 9 8 0 14 -5 13 -11 -1 -5 6 -12 16 -14
12 -2 17 3 18 20 1 17 3 13 10 -12 6 -26 4 -38 -7 -46 -21 -17 -18 -20 21 -21
32 -1 35 1 29 20 -10 34 -10 39 2 44 7 2 10 -6 7 -24 -4 -27 -4 -28 13 -8 16
20 16 19 10 -6 -5 -24 -3 -26 30 -27 24 -1 34 3 31 11 -2 6 -9 12 -14 12 -22
0 -24 13 -3 18 13 3 20 0 20 -9 0 -17 1 -17 34 -4 21 8 26 7 26 -6 0 -9 -6
-14 -13 -11 -8 3 -20 1 -28 -4 -10 -6 -3 -9 23 -9 31 0 36 3 31 16 -4 12 -2
15 8 12 8 -3 13 -11 11 -17 -3 -14 35 -15 43 -1 4 6 10 8 15 5 12 -8 27 17 32
53 5 37 -7 53 -17 22 -7 -23 -16 -25 -33 -8 -9 9 -12 9 -12 -3 0 -12 -2 -12
-10 1 -8 12 -10 8 -11 -15 -1 -24 -3 -25 -6 -8 -2 13 -9 23 -15 23 -6 0 -8 15
-6 34 2 19 0 32 -4 30 -5 -3 -11 1 -14 10 -3 9 -12 12 -21 9 -11 -4 -14 -2 -9
5 9 16 33 15 39 0 2 -7 8 -10 12 -5 11 9 -27 45 -42 40 -7 -3 -11 5 -10 16 1
24 7 26 27 9 8 -7 7 -4 -3 8 -19 23 -23 69 -6 80 6 3 8 18 5 33 l-6 26 17 -27
c10 -16 21 -28 25 -28 4 0 5 -6 2 -13 -3 -8 3 -20 12 -28 16 -13 17 -12 10 6
-6 16 -5 17 5 8 10 -10 9 -16 -1 -28 -9 -11 -10 -19 -4 -23 11 -8 14 -52 3
-52 -4 0 -5 -9 -2 -20 3 -11 10 -17 15 -14 5 3 7 12 4 20 -3 8 -1 14 4 14 14
0 12 34 -2 48 -9 9 -9 12 -1 12 7 0 14 -9 17 -20 3 -11 9 -30 12 -41 3 -12 2
-19 -2 -16 -5 3 -17 -6 -27 -19 -10 -13 -13 -24 -7 -24 5 0 10 -9 10 -19 0
-35 20 -34 21 1 0 18 3 27 6 20 4 -10 9 -9 20 5 13 17 14 17 8 -4 -3 -12 -2
-24 3 -27 14 -9 12 -58 -4 -83 -8 -13 -10 -23 -5 -23 5 0 13 10 16 21 4 12 10
18 14 13 9 -13 41 -17 41 -4 0 9 -14 14 -32 11 -5 0 -8 6 -8 15 0 8 5 12 10 9
6 -3 10 0 10 7 0 10 2 10 9 -1 7 -11 9 -11 14 0 5 12 7 12 15 0 8 -11 11 -9
17 8 4 13 4 25 1 28 -3 4 -6 -2 -7 -13 0 -11 -5 -5 -10 13 -5 18 -14 33 -19
33 -13 0 -13 -27 0 -33 6 -3 5 -4 -2 -3 -7 2 -18 -4 -24 -12 -9 -13 -12 -12
-17 7 -3 11 -1 19 3 16 5 -3 11 -1 14 4 3 5 -1 11 -9 15 -8 3 -15 16 -14 28 1
22 1 22 9 -2 6 -20 8 -15 9 24 1 46 0 48 -14 30 -8 -10 -15 -25 -15 -31 0 -7
-4 -13 -10 -13 -13 0 -13 17 0 25 6 4 8 15 5 26 -4 11 -2 19 5 19 6 0 8 5 4
13 -6 9 -5 9 7 0 13 -10 16 -10 16 0 1 6 4 48 8 92 3 44 6 105 6 135 0 43 2
50 9 33 5 -13 12 -23 15 -23 4 0 4 4 0 9 -3 5 -1 12 5 16 17 10 11 32 -7 30
-40 -4 -53 -16 -42 -38 10 -21 10 -21 -5 -3 -19 24 -21 42 -3 44 58 5 66 12
68 57 1 24 3 25 6 7 2 -12 8 -20 13 -17 5 3 7 -5 4 -17 -12 -50 -8 -91 8 -82
7 4 8 3 4 -4 -4 -6 -2 -20 4 -31 7 -14 7 -22 -2 -27 -7 -4 -8 -3 -4 4 4 7 3
12 -2 12 -15 0 -33 -27 -36 -55 -2 -14 -6 -29 -10 -32 -4 -4 -5 9 -3 30 2 20
0 34 -5 31 -5 -3 -7 -11 -5 -17 2 -7 1 -19 -4 -28 -6 -11 -4 -21 6 -29 11 -9
16 -6 28 17 7 15 13 35 12 43 -1 11 -1 11 3 1 3 -12 5 -12 13 0 8 12 10 12 8
-1 -1 -8 -1 -23 0 -34 1 -16 3 -17 18 -5 15 13 15 12 4 -8 -6 -13 -10 -23 -9
-24 2 0 10 -2 18 -4 8 -2 27 -8 43 -14 24 -9 27 -15 21 -38 -10 -39 -14 -41
-14 -6 0 31 -18 47 -44 37 -8 -3 -11 -15 -8 -31 3 -18 1 -24 -7 -19 -6 4 -11
3 -11 -3 0 -5 5 -11 11 -13 9 -3 16 -23 19 -58 0 -11 3 -10 12 4 8 14 8 24 0
37 -8 12 -8 20 -2 24 6 3 10 -1 10 -9 0 -10 6 -13 18 -10 10 4 13 2 7 -3 -18
-14 -35 -63 -35 -98 0 -19 -4 -35 -10 -35 -5 0 -6 7 -3 17 5 11 3 14 -6 8 -10
-6 -11 -3 -2 13 9 16 8 24 -5 36 -8 9 -11 16 -5 16 16 0 13 14 -8 37 -11 12
-17 25 -13 29 4 5 -1 2 -10 -5 -11 -8 -18 -9 -18 -3 0 6 -3 18 -7 28 -5 13 -3
15 7 9 9 -6 11 -4 5 5 -4 7 -3 15 3 19 11 7 15 24 13 61 -1 25 -1 25 -17 -5
-8 -16 -21 -33 -27 -37 -9 -6 -9 -8 1 -8 8 0 5 -8 -8 -22 -27 -29 -23 -38 28
-65 2 -1 -1 -10 -7 -20 -9 -16 -10 -16 -11 -1 0 12 -5 15 -16 11 -11 -4 -12
-8 -4 -13 9 -5 9 -9 1 -14 -6 -4 -11 -18 -11 -32 0 -22 2 -24 22 -13 22 12 22
12 3 19 -20 8 -20 8 0 16 26 10 46 30 38 38 -4 3 -1 6 5 6 23 0 23 -22 -2 -46
-21 -21 -23 -29 -13 -44 8 -14 14 -16 24 -8 11 9 11 14 1 27 -12 14 -11 14 5
2 12 -9 14 -17 7 -26 -5 -6 -6 -16 -2 -20 4 -5 1 -5 -5 -1 -17 10 -16 -5 1
-40 11 -19 12 -33 5 -46 -15 -27 -18 -22 -12 19 4 22 2 34 -3 30 -6 -3 -11
-22 -12 -42 l-3 -36 50 2 c28 2 48 6 45 11 -3 4 -1 8 5 8 15 0 72 100 64 113
-13 21 -12 36 2 30 8 -2 11 -11 8 -19 -3 -8 -1 -14 5 -14 6 0 1 -18 -11 -40
-17 -32 -19 -42 -9 -48 7 -5 10 -16 7 -25 -6 -13 2 -16 52 -15 32 1 69 8 83
15 14 7 20 13 13 13 -6 0 -19 3 -29 7 -13 5 -15 3 -9 -8 8 -12 6 -12 -8 0 -11
8 -15 21 -11 36 3 13 1 26 -5 29 -7 5 -11 -6 -11 -29 0 -22 -4 -34 -10 -30 -6
3 -8 18 -6 33 l5 27 -20 -24 c-16 -20 -22 -22 -32 -11 -9 10 -9 11 0 6 8 -4
17 2 24 18 7 14 15 23 20 21 4 -3 14 2 22 10 24 23 50 20 42 -6 -5 -15 -4 -19
5 -14 7 4 9 17 6 31 -4 14 -2 24 4 24 5 0 10 -8 11 -17 0 -16 1 -16 8 1 7 17
8 16 24 -7 17 -26 24 -57 10 -43 -5 4 -8 12 -8 17 0 5 -3 9 -7 9 -5 0 -13 0
-20 0 -7 0 -6 -6 4 -17 9 -10 13 -25 11 -33 -4 -13 -3 -13 6 0 10 13 11 13 11
0 0 -13 1 -13 10 0 5 8 10 12 11 8 13 -69 46 -91 70 -47 9 18 8 20 -9 15 -15
-5 -22 -1 -27 15 -4 11 -2 26 4 32 7 7 9 4 6 -11 -3 -18 1 -22 24 -22 28 0 57
21 45 33 -3 3 1 4 10 3 8 -1 19 -6 23 -11 4 -4 3 -5 -3 -2 -6 3 -19 -8 -29
-25 -10 -17 -13 -28 -6 -24 6 4 11 1 11 -8 0 -11 9 -15 31 -13 26 2 30 5 26
25 -3 17 -1 20 9 11 7 -6 10 -17 7 -25 -3 -8 0 -14 6 -14 6 0 11 6 11 13 0 9
2 9 9 -1 5 -8 25 -12 54 -11 25 2 44 6 41 11 -3 4 -1 8 4 8 14 0 11 33 -4 51
-12 13 -12 16 1 16 8 0 12 -4 9 -9 -3 -4 -1 -8 4 -8 6 0 13 7 16 16 4 10 14
14 25 11 15 -3 17 0 13 17 -7 31 -22 46 -44 46 -14 0 -18 5 -14 16 3 8 2 13
-2 10 -4 -2 -7 15 -7 40 0 24 2 44 4 44 13 0 29 -39 24 -62 -6 -30 5 -36 26
-16 10 9 12 9 7 1 -4 -7 1 -11 13 -10 16 1 18 4 8 16 -10 12 -9 14 6 8 10 -4
20 -7 22 -7 2 0 1 -10 -2 -22 -4 -18 -2 -20 6 -8 5 8 13 11 17 7 4 -4 2 -13
-4 -19 -7 -7 -13 -21 -13 -33 -1 -19 -2 -19 -6 -1 -3 11 -11 26 -18 33 -16 15
-49 18 -40 3 4 -6 10 -8 15 -5 4 3 13 -2 20 -10 9 -11 10 -15 1 -15 -8 0 -10
-8 -6 -21 4 -13 2 -25 -5 -29 -9 -5 -10 -20 -6 -44 9 -47 26 -46 27 2 l2 37 6
-35 c6 -32 9 -35 44 -37 29 -1 37 2 37 15 1 16 1 15 11 0 5 -10 17 -18 26 -18
13 0 13 3 3 15 -7 9 -10 18 -7 21 9 9 27 -6 27 -23 0 -12 3 -13 14 -4 9 7 17
8 20 2 3 -5 64 -9 135 -9 l130 0 16 34 c23 50 27 45 13 -16 -2 -12 13 -15 87
-16 56 -1 93 3 97 10 6 8 8 7 8 -1 0 -7 5 -13 11 -13 8 0 8 4 -1 14 -6 8 -17
13 -25 10 -8 -4 -15 7 -19 31 -4 21 -10 35 -12 32 -3 -3 -1 -21 4 -41 6 -20 7
-36 2 -36 -4 0 -11 15 -14 33 -6 27 -8 30 -17 14 -6 -9 -7 -23 -3 -30 5 -7 0
-6 -10 3 -11 8 -14 16 -7 18 14 5 15 49 1 57 -6 4 -9 14 -8 22 2 9 -3 18 -9
20 -8 3 -13 -3 -13 -14 0 -22 -22 -73 -31 -73 -4 0 -9 9 -12 19 -4 15 -1 18
12 13 14 -5 15 -4 1 14 -14 18 -14 18 3 5 15 -12 17 -10 17 21 0 24 -5 35 -15
35 -8 0 -13 -3 -10 -5 8 -8 -16 -32 -31 -32 -9 0 -14 12 -14 38 -1 35 -2 36
-13 15 -7 -12 -17 -19 -22 -15 -14 9 -13 53 0 50 5 -2 9 -12 7 -23 -2 -17 -1
-17 8 3 12 29 2 54 -20 50 -18 -3 -60 28 -60 44 0 5 7 2 16 -6 8 -9 23 -16 32
-15 11 0 12 2 5 6 -7 2 -13 17 -14 31 l-1 27 -8 -25 c-7 -22 -8 -20 -10 15 -1
22 -4 32 -7 22 -3 -13 -8 -15 -17 -8 -9 7 -20 3 -39 -15 -26 -24 -36 -41 -18
-29 5 3 12 1 16 -5 3 -5 -2 -10 -13 -10 -15 0 -19 7 -18 33 1 17 5 35 10 39 6
4 4 13 -4 23 -12 15 -14 15 -23 0 -5 -9 -7 -36 -5 -58 3 -23 3 -34 1 -24 -3 9
-9 15 -14 12 -16 -10 -10 -53 9 -67 19 -13 40 -54 23 -43 -19 11 -19 -12 0
-28 21 -18 34 -22 25 -9 -8 13 27 11 43 -2 15 -11 14 -4 -4 61 -3 10 6 -4 19
-32 25 -50 30 -51 26 -5 -1 14 2 22 6 17 12 -12 13 -51 0 -66 -8 -11 -8 -13 1
-8 8 5 16 -6 23 -33 6 -23 15 -38 21 -34 6 3 5 -3 -3 -15 -17 -28 -25 -26 -26
7 -2 52 -5 59 -24 54 -23 -6 -32 -19 -18 -27 5 -3 10 -11 10 -16 0 -15 -18 -1
-31 23 -9 16 -8 19 3 13 7 -3 6 -1 -3 7 -8 7 -18 21 -22 31 -4 10 -12 15 -17
12 -6 -4 -17 -2 -24 4 -11 9 -18 8 -30 -4 -9 -9 -16 -13 -16 -8 0 5 5 14 11
20 8 8 8 13 0 17 -16 10 -13 26 4 26 21 0 19 12 -5 33 -13 11 -20 13 -20 4 0
-6 -11 -13 -25 -13 l-26 -2 27 23 c22 19 25 28 20 51 -4 18 -3 24 2 16 7 -11
10 -10 15 3 4 9 3 13 -3 10 -6 -3 -10 0 -10 7 0 8 -3 9 -8 3 -4 -5 -18 -12
-32 -13 -32 -5 -38 -11 -20 -22 9 -6 18 -3 27 8 7 9 13 13 13 7 1 -5 3 -20 6
-32 2 -13 -3 -23 -12 -27 -19 -7 -37 2 -29 15 3 5 -1 6 -9 3 -12 -5 -13 -10
-3 -31 9 -21 8 -27 -8 -39 -10 -8 -21 -11 -24 -8 -3 4 0 9 7 11 6 3 10 9 6 14
-3 5 0 9 6 9 8 0 8 6 0 20 -6 12 -8 30 -4 42 4 14 2 18 -5 14 -6 -4 -11 -18
-11 -32 0 -16 -4 -23 -11 -18 -6 3 -15 0 -20 -7 -6 -11 -10 -11 -19 -1 -5 6
-7 10 -4 8 11 -8 46 32 39 43 -10 18 -25 13 -36 -11 l-10 -23 5 23 c3 17 1 22
-9 18 -21 -8 -26 22 -8 44 21 25 45 27 36 3 -5 -12 -3 -14 7 -8 10 6 12 4 7
-9 -5 -12 -3 -16 5 -14 28 10 14 98 -15 98 -7 0 -6 -4 3 -10 13 -9 13 -10 0
-10 -13 0 -13 -1 0 -10 12 -8 11 -10 -7 -10 -15 0 -21 5 -17 14 8 21 -15 59
-31 52 -8 -3 -17 -1 -20 5 -4 5 -3 9 2 8 31 -5 36 5 24 60 -1 2 -9 -3 -18 -10
-11 -10 -14 -10 -9 -1 4 6 2 12 -3 12 -17 0 -13 -28 7 -40 14 -9 11 -10 -13
-5 l-30 7 24 -26 c13 -14 28 -24 34 -23 17 4 16 -73 -2 -86 -10 -8 -17 -29
-18 -60 -1 -38 1 -46 11 -38 13 11 26 5 26 -11 0 -4 -5 -7 -12 -5 -7 1 -12 -4
-13 -10 0 -7 -4 -12 -10 -10 -5 1 -9 6 -7 10 1 4 -2 16 -8 27 -5 10 -13 36
-16 57 -7 46 -11 52 -20 28 -4 -10 -2 -26 4 -36 17 -26 15 -39 -5 -39 -9 0
-14 3 -11 6 4 3 0 20 -8 39 -7 18 -11 42 -9 54 2 11 -1 21 -7 21 -7 0 -3 7 8
16 10 8 13 13 6 9 -7 -4 -19 -2 -26 4 -19 16 -26 -7 -16 -52 6 -29 5 -34 -7
-30 -10 4 -12 14 -9 29 8 31 -9 31 -30 -1 -12 -19 -20 -23 -34 -15 -9 5 -21 6
-26 2 -5 -4 0 4 11 17 19 22 19 23 1 20 -11 -2 -21 3 -23 11 -3 9 -1 11 4 5
10 -13 36 -13 45 0 4 5 2 15 -4 22 -6 8 -6 13 -1 13 5 0 10 7 10 16 0 11 -7 8
-22 -10 -12 -14 -27 -26 -34 -26 -13 0 -14 2 -1 34 13 35 4 33 -15 -4 -9 -17
-11 -30 -5 -30 5 0 10 -7 10 -15 0 -8 -7 -15 -15 -15 -9 0 -12 6 -9 15 8 20 2
19 -40 -6 -20 -12 -36 -17 -36 -13 0 4 -7 -1 -16 -12 -14 -18 -15 -18 -4 4 6
12 18 22 26 22 12 0 15 7 10 28 l-6 27 15 -25 c15 -26 17 -23 17 25 l-1 30 11
-27 c15 -34 24 -35 30 -4 3 16 1 23 -7 20 -8 -4 -11 3 -8 18 3 15 -2 27 -16
35 -17 11 -19 10 -15 -2 4 -8 2 -15 -4 -15 -15 0 -24 32 -12 44 5 5 10 15 10
21 0 5 -9 -1 -20 -15 -13 -18 -15 -27 -7 -32 8 -5 6 -8 -5 -8 -10 0 -18 8 -19
18 0 11 -2 12 -6 4 -3 -7 2 -21 11 -31 13 -15 14 -20 2 -37 -8 -11 -30 -26
-50 -34 -20 -7 -36 -18 -36 -22 0 -5 5 -6 12 -2 7 4 8 3 4 -4 -4 -7 -18 -12
-32 -12 -17 0 -23 -4 -18 -12 4 -7 4 -10 -1 -6 -4 4 -14 3 -22 -3 -19 -17 -16
-5 7 21 11 13 20 29 20 37 0 7 4 13 9 13 5 0 7 -10 4 -22 -4 -20 -3 -21 7 -6
6 10 18 18 27 18 22 0 8 13 -19 17 -12 2 -25 7 -28 12 -3 4 -13 7 -23 5 -9 -1
-15 2 -11 7 3 5 0 9 -5 9 -6 0 -11 -9 -11 -20 0 -14 5 -18 16 -13 14 5 14 3 3
-16 -8 -11 -20 -21 -27 -21 -7 0 -10 -5 -6 -12 4 -7 3 -8 -4 -4 -6 4 -9 13 -6
21 4 8 11 12 18 8 8 -5 8 -3 -1 8 -6 8 -11 18 -11 22 0 5 -3 11 -6 15 -3 3 -6
-3 -6 -14 0 -10 -5 -26 -11 -34 -8 -11 -9 -3 -6 32 6 64 -7 79 -23 24 -7 -24
-9 -49 -5 -55 3 -6 -1 -21 -9 -33 -18 -25 -21 -17 -6 13 6 11 7 19 1 19 -5 0
-6 14 -1 35 4 19 6 35 3 35 -3 0 1 7 8 17 13 15 11 15 -19 -1 -18 -9 -37 -14
-43 -10 -7 4 -9 -1 -5 -14 5 -15 2 -20 -11 -18 -13 1 -20 -9 -24 -34 -4 -19
-7 -28 -9 -20 -1 8 -1 20 0 25 1 6 2 20 2 32 0 13 4 21 8 18 4 -3 15 7 25 21
14 22 19 23 33 12 13 -11 14 -11 7 1 -6 11 -4 13 9 8 10 -4 15 -3 11 3 -3 6
-3 15 1 21 5 8 9 8 14 -1 6 -10 6 32 1 58 -1 1 -7 -3 -15 -10 -7 -7 -13 -17
-11 -23 1 -5 0 -7 -2 -3 -8 13 -54 -15 -49 -29 8 -19 -24 -29 -35 -12 -16 25
-11 79 7 79 12 0 15 -6 11 -22 -6 -20 -5 -20 10 -5 13 13 14 19 4 31 -8 9 -17
14 -21 11 -10 -6 -7 21 3 31 4 4 7 0 7 -9 0 -15 3 -15 20 -5 18 11 18 14 3 30
-18 20 -4 25 15 6 9 -9 12 -9 12 3 0 23 36 54 43 37 2 -7 8 -10 12 -6 4 4 3
14 -4 22 -9 11 -8 15 5 20 23 9 23 9 36 -21 l12 -28 4 28 c2 15 8 25 13 22 16
-10 10 5 -10 26 -21 23 -20 51 3 74 11 11 16 12 19 2 3 -7 6 -5 6 5 1 9 -3 20
-9 23 -5 3 -9 21 -9 38 l2 32 7 -35 c4 -21 8 -27 9 -15 l2 20 8 -20 c5 -11 6
-27 3 -35 -5 -12 -2 -11 11 2 19 18 23 33 7 23 -5 -3 -10 3 -10 14 0 12 3 20
8 20 19 -3 23 2 12 16 -8 10 -9 15 -2 15 15 0 33 -35 24 -45 -4 -5 -1 -5 6 -1
6 4 12 13 12 19 0 7 9 20 20 30 12 10 17 23 14 34 -5 17 -5 17 9 0 9 -11 21
-15 32 -10 14 5 16 3 10 -8 -8 -12 -6 -12 8 0 9 7 17 10 17 6 0 -5 8 -1 18 8
17 16 21 17 46 17 8 0 17 8 19 18 3 10 5 6 6 -10 1 -21 6 -28 21 -28 11 0 20
4 20 10 0 5 -7 7 -16 3 -12 -4 -15 -2 -12 8 3 8 11 14 19 14 18 0 49 64 43 87
-7 25 24 67 47 63 12 -3 19 2 19 12 0 9 6 13 14 10 17 -7 24 8 18 40 -3 14
-12 23 -22 23 -17 0 -34 23 -24 33 3 3 17 -1 32 -9 24 -12 27 -12 34 6 4 11
12 20 18 20 7 0 9 8 5 20 -4 14 -2 20 6 18 7 -2 18 7 24 20 5 12 17 22 25 22
13 0 13 1 0 10 -24 16 -50 12 -50 -7z m-100 -133 c0 -5 -4 -10 -9 -10 -6 0
-13 5 -16 10 -3 6 1 10 9 10 9 0 16 -4 16 -10z m-142 -236 c-4 -3 -12 5 -18
18 -12 22 -12 22 6 6 10 -10 15 -20 12 -24z m-61 20 c-3 -3 -12 -4 -19 -1 -8
3 -5 6 6 6 11 1 17 -2 13 -5z m13 -26 c0 -4 -5 -8 -11 -8 -5 0 -8 -4 -5 -9 4
-5 -1 -8 -9 -7 -19 3 -28 13 -22 23 7 11 47 11 47 1z m-110 -34 c0 -8 -4 -14
-10 -14 -5 0 -10 9 -10 21 0 11 5 17 10 14 6 -3 10 -13 10 -21z m-610 -4 c-8
-5 -19 -10 -25 -10 -5 0 -3 5 5 10 8 5 20 10 25 10 6 0 3 -5 -5 -10z m440
-107 c0 -8 -5 -13 -12 -11 -18 6 -21 25 -3 25 8 0 15 -7 15 -14z m-800 -38
c-14 -8 -29 -14 -35 -14 -5 0 1 6 15 14 14 8 30 14 35 14 6 0 -1 -6 -15 -14z
m-80 -29 c0 -2 -13 -9 -30 -15 -35 -12 -41 -5 -7 9 25 10 37 12 37 6z m880
-31 c0 -5 -5 -3 -10 5 -5 8 -10 20 -10 25 0 6 5 3 10 -5 5 -8 10 -19 10 -25z
m-70 -39 c0 -2 -8 -10 -17 -17 -16 -13 -17 -12 -4 4 13 16 21 21 21 13z m-283
-98 c-3 -8 -6 -5 -6 6 -1 11 2 17 5 13 3 -3 4 -12 1 -19z m183 -66 c-14 -38
-16 -52 -7 -52 9 0 8 -3 -2 -9 -8 -5 -10 -14 -6 -21 5 -8 4 -11 -3 -6 -5 3
-13 0 -16 -6 -2 -7 -4 2 -3 20 1 17 5 32 10 32 5 0 5 9 2 20 -3 11 -2 20 3 20
6 0 15 14 21 32 6 17 13 29 16 27 2 -3 -4 -29 -15 -57z m-110 34 c0 -2 -8 -10
-17 -17 -16 -13 -17 -12 -4 4 13 16 21 21 21 13z m-82 -107 c-3 -20 -5 -19 -9
9 -3 20 -2 29 4 23 5 -5 7 -19 5 -32z m-13 -29 c3 -5 1 -10 -4 -10 -6 0 -11 5
-11 10 0 6 2 10 4 10 3 0 8 -4 11 -10z m65 -49 c-1 -29 -11 -17 -25 29 -7 22
-6 23 9 11 9 -7 16 -25 16 -40z m-53 4 c-5 -37 -17 -42 -17 -7 0 18 5 32 10
32 6 0 9 -11 7 -25z m295 16 c-8 -4 -13 -11 -12 -15 1 -4 -1 -12 -4 -19 -3 -9
-1 26 3 41 1 1 7 2 14 2 9 0 9 -2 -1 -9z m-347 -88 c-10 -66 -17 -46 -8 23 4
32 9 51 11 40 2 -10 1 -38 -3 -63z m72 55 c-3 -8 -6 -5 -6 6 -1 11 2 17 5 13
3 -3 4 -12 1 -19z m548 12 c-3 -5 -12 -10 -18 -10 -7 0 -6 4 3 10 19 12 23 12
15 0z m-530 -77 c-2 -27 -9 -49 -15 -51 -5 -2 -10 -12 -10 -22 0 -23 -21 -31
-37 -14 -17 16 -16 24 1 24 7 0 20 8 27 17 8 9 9 14 3 10 -7 -4 -14 -1 -17 7
-7 18 1 26 25 26 11 0 16 5 13 10 -4 6 -11 8 -16 5 -5 -4 -9 1 -9 10 0 11 5
15 16 11 8 -3 12 -2 9 4 -3 6 -1 10 4 10 7 0 9 -17 6 -47z m346 23 c-17 -20 3
-58 26 -49 10 4 14 2 10 -4 -4 -6 -2 -13 5 -15 7 -3 2 -7 -10 -10 -14 -4 -20
-2 -15 5 4 6 1 8 -8 5 -24 -9 -40 36 -22 61 8 12 17 21 20 21 3 0 0 -6 -6 -14z
m-401 -21 c-7 -9 -15 -13 -19 -10 -3 3 1 10 9 15 21 14 24 12 10 -5z m326 -23
c-15 -15 -15 -15 -4 10 7 15 15 23 17 17 2 -6 -4 -18 -13 -27z m344 18 c6 -11
7 -20 2 -20 -6 0 -12 9 -15 20 -3 11 -3 20 -1 20 2 0 8 -9 14 -20z m-374 -16
c-4 -9 -3 -22 2 -28 5 -6 3 -21 -4 -36 l-14 -25 -1 28 c-1 15 -2 33 -3 40 -1
11 14 36 23 37 2 0 0 -7 -3 -16z m976 -1 c-9 -4 -10 -8 -2 -18 9 -11 7 -12
-10 -8 -16 4 -18 8 -9 19 6 8 17 14 23 13 6 0 6 -3 -2 -6z m-421 -25 c4 -6 12
-7 18 -4 6 4 11 2 11 -3 0 -6 -11 -10 -24 -9 -14 1 -23 6 -20 10 2 4 -4 7 -13
7 -39 1 -53 5 -53 13 0 13 72 0 81 -14z m-131 -14 c0 -8 5 -14 10 -14 6 0 10
-6 10 -12 -1 -7 -10 -2 -20 11 -21 25 -27 46 -10 36 6 -3 10 -13 10 -21z
m-900 6 c0 -5 -5 -10 -11 -10 -5 0 -7 5 -4 10 3 6 8 10 11 10 2 0 4 -4 4 -10z
m820 6 c0 -2 -7 -9 -15 -16 -13 -11 -14 -10 -9 4 5 14 24 23 24 12z m-533 -38
c-3 -8 -6 -5 -6 6 -1 11 2 17 5 13 3 -3 4 -12 1 -19z m275 -1 c-7 -8 -9 -17
-5 -20 3 -4 1 -7 -5 -7 -15 0 -15 6 -1 32 6 11 13 17 16 14 3 -3 1 -12 -5 -19z
m415 4 c1 -11 -5 -22 -13 -25 -8 -3 -14 -1 -14 4 0 6 4 10 10 10 5 0 7 7 4 15
-4 8 -2 15 3 15 5 0 9 -9 10 -19z m-1114 -23 c-5 -27 -4 -30 11 -25 10 4 15 3
11 -3 -3 -5 4 -23 16 -40 18 -24 20 -33 10 -43 -10 -9 -11 -9 -6 4 4 10 -3 27
-19 43 -23 25 -25 26 -35 9 -6 -10 -11 -13 -11 -7 0 6 3 14 7 18 4 4 6 23 4
42 -1 19 2 34 8 34 6 0 8 -12 4 -32z m753 -20 c-4 -19 2 -22 28 -12 9 3 13 10
10 15 -9 15 3 10 17 -8 8 -9 9 -14 2 -10 -6 4 -21 -5 -33 -20 -14 -18 -19 -21
-16 -10 5 15 0 14 -25 -7 -31 -26 -56 -35 -44 -15 4 5 18 15 32 20 21 8 23 12
13 24 -7 8 -16 12 -21 9 -5 -3 -9 2 -9 11 0 8 7 18 16 22 9 3 13 12 10 22 -4
11 -1 10 9 -4 9 -11 14 -28 11 -37z m444 30 c0 -16 -3 -19 -11 -11 -6 6 -8 16
-5 22 11 17 16 13 16 -11z m-280 -19 c-10 -35 -17 -45 -25 -37 -7 7 15 68 25
68 5 0 5 -14 0 -31z m-825 -26 c-20 -20 -24 -16 -12 11 7 15 14 20 18 14 4 -6
1 -17 -6 -25z m82 22 c0 -8 -4 -15 -9 -15 -4 0 -8 -6 -8 -14 0 -8 -4 -18 -10
-21 -6 -4 -6 3 0 21 18 45 27 55 27 29z m707 -37 c6 -4 18 -5 26 -2 31 12 50
12 56 2 4 -7 2 -8 -4 -4 -17 10 -15 -9 1 -23 8 -6 18 -7 22 -3 5 4 4 1 0 -7
-6 -11 -4 -13 8 -8 11 4 17 1 17 -8 0 -9 -6 -12 -17 -8 -11 4 -14 3 -9 -5 11
-18 44 -14 49 6 4 16 5 16 6 -1 0 -10 -9 -21 -21 -26 -14 -5 -17 -10 -10 -15
15 -9 16 -26 2 -26 -6 0 -15 12 -20 26 -6 14 -15 22 -21 18 -8 -5 -8 -1 0 14
8 15 7 23 -4 32 -12 10 -15 9 -15 -4 0 -15 -4 -14 -32 5 -17 13 -28 18 -24 11
4 -7 2 -12 -3 -12 -6 0 -11 5 -11 12 0 6 -3 8 -6 5 -10 -10 17 -38 29 -30 6 4
8 0 4 -9 -3 -9 -3 -19 1 -22 10 -11 13 -48 2 -41 -5 3 -10 15 -10 25 0 10 -4
22 -10 25 -5 3 -10 1 -10 -5 0 -6 -5 -8 -11 -5 -6 4 -8 13 -5 21 3 8 2 13 -2
13 -20 -3 -33 2 -27 11 3 6 1 10 -4 10 -17 0 -13 17 5 24 8 3 12 2 9 -3 -3 -5
-1 -12 4 -15 5 -3 11 1 15 9 3 8 -3 19 -12 24 -10 6 -12 11 -4 11 6 0 13 8 13
18 1 9 4 6 6 -8 3 -14 10 -28 17 -32z m201 42 c4 -6 11 -8 16 -5 5 4 9 1 9 -4
0 -6 5 -11 11 -11 5 0 7 6 3 13 -5 9 -4 9 5 1 12 -11 5 -44 -10 -44 -11 0 0
-53 13 -61 6 -4 -2 -9 -17 -11 -19 -4 -25 -2 -21 8 3 7 0 15 -7 18 -7 2 -4 5
6 5 14 1 16 7 11 29 -9 37 -29 58 -39 41 -5 -7 -4 -10 3 -5 6 3 13 2 16 -3 4
-5 -1 -8 -9 -7 -9 1 -15 5 -15 9 0 4 0 14 0 22 0 17 16 20 25 5z m-462 -15
c-3 -9 -8 -14 -10 -11 -3 3 -2 9 2 15 9 16 15 13 8 -4z m57 -3 c0 -5 -7 -9
-15 -9 -8 0 -12 4 -9 9 3 4 9 8 15 8 5 0 9 -4 9 -8z m798 -72 c-1 -65 -4 -80
-8 -55 -1 6 -6 18 -11 28 -6 11 -6 17 1 17 5 0 10 18 10 40 0 22 2 40 5 40 3
0 4 -31 3 -70z m79 48 c-3 -8 -6 -5 -6 6 -1 11 2 17 5 13 3 -3 4 -12 1 -19z
m-3234 -11 c7 4 5 -2 -3 -13 -22 -29 -24 -30 -17 -11 4 11 1 17 -9 17 -12 0
-12 2 -2 14 11 12 13 12 16 0 2 -8 9 -11 15 -7z m1862 14 c3 -5 2 -12 -3 -15
-5 -3 -9 1 -9 9 0 17 3 19 12 6z m1157 -16 c-6 -35 -22 -42 -18 -8 4 34 4 33
15 33 4 0 6 -11 3 -25z m-1221 6 c6 10 9 8 9 -10 0 -15 -4 -21 -13 -18 -11 4
-12 -3 -7 -34 4 -21 3 -39 -1 -39 -5 0 -9 15 -10 33 l-1 32 -11 -27 c-12 -31
-24 -37 -24 -13 0 8 4 15 9 15 4 0 8 7 8 16 0 25 23 61 28 45 4 -11 6 -11 13
0z m552 -28 c-5 -12 -7 -12 -14 -1 -13 20 -11 28 5 22 8 -3 12 -12 9 -21z
m-703 7 c0 -5 -4 -10 -10 -10 -5 0 -10 5 -10 10 0 6 5 10 10 10 6 0 10 -4 10
-10z m627 -22 c-3 -8 -6 -5 -6 6 -1 11 2 17 5 13 3 -3 4 -12 1 -19z m843 -12
c0 -6 -5 -4 -10 4 -8 12 -10 12 -10 -5 0 -16 -2 -17 -9 -6 -14 22 -2 44 15 30
8 -6 14 -17 14 -23z m-3150 20 c0 -2 -7 -7 -16 -10 -8 -3 -12 -2 -9 4 6 10 25
14 25 6z m48 -29 c-1 -1 -12 -7 -23 -13 -18 -10 -21 -9 -23 10 -1 15 1 17 7 7
7 -10 11 -8 16 9 7 21 8 22 17 6 5 -10 8 -18 6 -19z m2838 8 c1 -8 -1 -17 -5
-19 -4 -3 -7 6 -7 19 0 25 8 25 12 0z m-956 11 c0 -3 -4 -8 -10 -11 -5 -3 -10
-1 -10 4 0 6 5 11 10 11 6 0 10 -2 10 -4z m1177 -36 c-1 -13 -5 -16 -13 -9 -8
7 -10 2 -7 -18 4 -22 2 -25 -6 -13 -10 13 -12 13 -21 0 -8 -12 -10 -12 -10 -1
0 8 -7 11 -18 9 -12 -4 -18 1 -18 13 0 11 6 19 14 19 7 0 11 -4 8 -9 -3 -5 0
-11 8 -14 15 -6 30 19 20 34 -3 5 2 9 11 9 10 0 13 5 9 13 -6 9 -3 8 8 -1 9
-7 16 -22 15 -32z m158 20 c-3 -5 -12 -10 -18 -10 -7 0 -6 4 3 10 19 12 23 12
15 0z m-3372 -12 c-4 -7 -8 -16 -8 -20 0 -3 -4 -10 -9 -15 -5 -5 -6 -3 -2 5 5
8 1 12 -11 12 -17 1 -17 2 1 15 24 18 40 19 29 3z m2415 -5 c-6 -7 -14 -13
-18 -13 -4 0 -10 6 -13 13 -3 7 4 12 18 12 18 0 21 -3 13 -12z m469 -15 c-3
-7 -5 -2 -5 12 0 14 2 19 5 13 2 -7 2 -19 0 -25z m645 -10 c-6 -6 -7 0 -4 19
5 21 7 23 10 9 2 -10 0 -22 -6 -28z m-1665 -10 c-3 -7 -5 -2 -5 12 0 14 2 19
5 13 2 -7 2 -19 0 -25z m513 25 c0 -5 -5 -15 -10 -23 -7 -12 -9 -10 -7 8 1 19
17 33 17 15z m961 -20 c-12 -20 -14 -14 -5 12 4 9 9 14 11 11 3 -2 0 -13 -6
-23z m-440 -6 c-10 -9 -11 -8 -5 6 3 10 9 15 12 12 3 -3 0 -11 -7 -18z m369 9
c0 -11 -19 -15 -25 -6 -3 5 1 10 9 10 9 0 16 -2 16 -4z m342 -21 c3 -13 1 -22
-3 -19 -9 5 -13 44 -5 44 2 0 6 -11 8 -25z m-1260 -14 c4 -26 2 -29 -14 -20
-15 8 -16 14 -8 29 14 27 17 25 22 -9z m-205 -3 c-3 -8 -6 -5 -6 6 -1 11 2 17
5 13 3 -3 4 -12 1 -19z m648 3 c-8 -14 -25 -14 -25 0 0 5 5 7 10 4 6 -3 10 -1
10 6 0 7 3 10 6 6 3 -3 3 -10 -1 -16z m505 15 c0 -3 -4 -8 -10 -11 -5 -3 -10
-1 -10 4 0 6 5 11 10 11 6 0 10 -2 10 -4z m50 -12 c0 -8 -19 -13 -24 -6 -3 5
1 9 9 9 8 0 15 -2 15 -3z m115 -14 c3 -6 -1 -7 -9 -4 -18 7 -21 14 -7 14 6 0
13 -4 16 -10z m-1345 -10 c0 -5 -5 -10 -11 -10 -5 0 -7 5 -4 10 3 6 8 10 11
10 2 0 4 -4 4 -10z m575 -8 c-3 -3 -11 0 -18 7 -9 10 -8 11 6 5 10 -3 15 -9
12 -12z"/>
<path d="M3690 220 c0 -5 5 -10 10 -10 6 0 10 5 10 10 0 6 -4 10 -10 10 -5 0
-10 -4 -10 -10z"/>
<path d="M3890 182 c0 -8 -5 -10 -12 -6 -10 5 -10 4 -1 -6 16 -17 35 -9 23 10
-7 11 -10 11 -10 2z"/>
<path d="M4300 1395 c0 -8 5 -15 10 -15 6 0 10 7 10 15 0 8 -4 15 -10 15 -5 0
-10 -7 -10 -15z"/>
<path d="M2460 1390 c8 -5 20 -10 25 -10 6 0 3 5 -5 10 -8 5 -19 10 -25 10 -5
0 -3 -5 5 -10z"/>
<path d="M2580 1370 c8 -5 22 -9 30 -9 10 0 8 3 -5 9 -27 12 -43 12 -25 0z"/>
<path d="M2528 1363 c6 -2 18 -2 25 0 6 3 1 5 -13 5 -14 0 -19 -2 -12 -5z"/>
<path d="M2533 1338 c14 -7 124 -5 132 4 2 2 -29 4 -71 4 -41 0 -68 -3 -61 -8z"/>
<path d="M2345 1325 c17 -7 35 -10 40 -6 6 5 41 7 78 6 38 -2 66 0 62 3 -3 4
-52 7 -108 8 -91 2 -99 0 -72 -11z"/>
<path d="M2720 1320 c8 -5 22 -9 30 -9 10 0 8 3 -5 9 -27 12 -43 12 -25 0z"/>
<path d="M2545 1309 c-2 -3 -39 -4 -82 -3 l-78 3 45 -19 c40 -16 78 -17 52 -1
-6 3 24 7 66 8 124 2 172 6 166 12 -8 8 -165 8 -169 0z m72 -5 c-3 -3 -12 -4
-19 -1 -8 3 -5 6 6 6 11 1 17 -2 13 -5z"/>
<path d="M2740 1289 c0 -3 -25 -5 -55 -4 -31 1 -58 -2 -61 -6 -2 -4 -21 -5
-42 -3 -29 5 -34 3 -22 -6 15 -12 5 -11 -50 6 -11 4 -20 2 -20 -4 0 -15 48
-23 95 -16 22 3 53 6 70 5 16 0 46 4 67 9 27 8 45 7 70 -3 l32 -13 -39 -1
c-22 -1 -69 -2 -105 -3 l-65 -1 34 -15 c18 -8 45 -14 60 -13 23 0 24 1 6 8
-14 6 -7 8 25 8 88 0 139 6 133 16 -3 5 8 6 28 2 19 -4 31 -4 27 0 -4 4 -32 9
-62 10 -30 2 -63 9 -73 15 -14 9 -10 10 22 5 22 -4 37 -3 32 1 -9 10 -107 13
-107 3z m-43 -15 c-3 -3 -12 -4 -19 -1 -8 3 -5 6 6 6 11 1 17 -2 13 -5z m80
-30 c-3 -3 -12 -4 -19 -1 -8 3 -5 6 6 6 11 1 17 -2 13 -5z"/>
<path d="M2615 1217 c33 -13 72 -29 86 -35 14 -5 31 -7 38 -2 14 8 -37 30 -70
30 -9 0 -19 5 -21 11 -2 5 -24 12 -48 15 l-45 5 60 -24z"/>
<path d="M2919 1224 c18 -8 36 -13 39 -10 6 6 -43 26 -61 25 -7 0 3 -7 22 -15z"/>
<path d="M2980 1230 c8 -5 22 -9 30 -9 10 0 8 3 -5 9 -27 12 -43 12 -25 0z"/>
<path d="M2829 1226 c-3 -3 -25 -8 -50 -10 -24 -3 -46 -5 -49 -6 -3 0 10 -7
29 -15 18 -8 38 -12 44 -8 7 4 3 10 -9 15 -15 6 -13 7 8 3 14 -3 33 -8 42 -11
9 -3 16 -1 16 4 0 6 -8 13 -17 16 -26 8 27 -1 57 -10 19 -5 22 -4 14 5 -12 13
-76 26 -85 17z"/>
<path d="M2980 1206 c0 -4 10 -11 23 -17 21 -9 21 -9 -3 -5 -14 2 -36 7 -50
11 l-25 6 25 -16 25 -16 -25 6 c-14 3 -38 8 -55 10 -30 5 -30 5 5 -11 31 -14
41 -14 122 1 48 10 88 19 88 20 0 2 -11 5 -25 7 -15 3 -22 1 -18 -5 6 -10 -15
-7 -64 8 -13 4 -23 4 -23 1z"/>
<path d="M2819 1171 c8 -5 20 -7 28 -4 7 3 13 0 13 -7 0 -8 -8 -10 -22 -6 -13
4 -41 9 -63 12 l-40 5 43 -19 c36 -15 51 -16 88 -8 l46 11 -29 12 c-34 15 -86
18 -64 4z"/>
<path d="M3059 1145 c44 -19 64 -19 27 0 -15 8 -36 15 -45 15 -9 -1 -1 -7 18
-15z"/>
<path d="M2910 1136 l-65 -12 33 -11 c17 -7 32 -9 32 -5 0 4 4 1 8 -6 5 -7 16
-10 26 -6 16 6 14 9 -10 21 -26 12 -27 13 -4 8 14 -3 41 -8 60 -11 l35 -5 -30
16 c-23 12 -25 14 -8 11 13 -2 26 0 29 5 7 11 -22 10 -106 -5z"/>
<path d="M3180 1130 c8 -5 20 -10 25 -10 6 0 3 5 -5 10 -8 5 -19 10 -25 10 -5
0 -3 -5 5 -10z"/>
<path d="M3038 1123 c6 -2 18 -2 25 0 6 3 1 5 -13 5 -14 0 -19 -2 -12 -5z"/>
<path d="M3128 1123 c7 -3 16 -2 19 1 4 3 -2 6 -13 5 -11 0 -14 -3 -6 -6z"/>
<path d="M4960 1126 c0 -2 7 -7 16 -10 8 -3 12 -2 9 4 -6 10 -25 14 -25 6z"/>
<path d="M5035 1120 c-20 -9 -19 -10 22 -14 18 -2 20 0 12 11 -6 7 -12 13 -13
12 0 0 -10 -4 -21 -9z"/>
<path d="M3081 1117 c2 -1 11 -8 21 -15 12 -10 18 -10 24 -1 4 7 3 9 -4 5 -6
-3 -13 -2 -17 4 -3 5 -11 10 -17 10 -6 0 -9 -1 -7 -3z"/>
<path d="M3049 1084 c18 -8 36 -13 39 -10 9 10 -5 17 -40 21 l-33 4 34 -15z"/>
<path d="M3145 1090 c-3 -5 1 -10 10 -10 9 0 13 5 10 10 -3 6 -8 10 -10 10 -2
0 -7 -4 -10 -10z"/>
<path d="M4205 1089 c-4 -6 -5 -12 -2 -15 2 -3 7 2 10 11 7 17 1 20 -8 4z"/>
<path d="M2985 1070 c44 -21 71 -24 79 -11 6 10 -61 31 -95 30 -20 0 -17 -4
16 -19z"/>
<path d="M5022 1076 c7 -8 15 -12 17 -11 5 6 -10 25 -20 25 -5 0 -4 -6 3 -14z"/>
<path d="M3190 1076 c0 -2 7 -7 16 -10 8 -3 12 -2 9 4 -6 10 -25 14 -25 6z"/>
<path d="M3098 1053 c-40 -6 -34 -17 20 -36 44 -16 51 -16 85 -2 46 19 47 25
5 25 -25 0 -29 -3 -18 -10 25 -16 -9 -12 -45 6 l-30 14 28 -5 c19 -4 26 -2 22
5 -6 10 -17 11 -67 3z"/>
<path d="M4425 1040 c-3 -5 -1 -10 4 -10 6 0 11 5 11 10 0 6 -2 10 -4 10 -3 0
-8 -4 -11 -10z"/>
<path d="M4739 1031 c17 -11 -3 -25 -21 -15 -7 4 -10 4 -6 -1 5 -5 -1 -15 -13
-23 -16 -11 -17 -17 -8 -28 6 -8 21 -13 33 -13 20 1 20 2 1 6 -33 8 -42 23
-13 23 35 0 53 -22 38 -49 -6 -12 -16 -21 -22 -21 -7 0 -6 5 2 15 10 12 9 15
-6 14 -30 -2 -73 -17 -51 -18 10 -1 16 -4 14 -8 -3 -5 5 -8 16 -9 12 0 31 -4
41 -9 14 -6 17 -5 12 4 -5 8 3 7 24 -4 17 -9 29 -19 26 -22 -3 -3 -12 0 -20 7
-13 10 -19 9 -31 -4 -15 -15 -14 -16 7 -16 35 0 56 -16 41 -31 -10 -10 -5 -15
24 -25 21 -7 40 -10 43 -7 3 3 -1 8 -8 10 -6 3 -10 9 -7 13 3 5 -6 7 -20 4
-19 -3 -23 -1 -19 11 3 8 10 12 15 9 5 -3 14 -2 20 2 8 4 3 12 -12 20 l-24 14
25 7 25 7 -30 7 c-30 7 -30 7 -3 8 31 1 47 -17 27 -31 -11 -8 -10 -8 4 -4 10
3 21 6 23 6 3 0 0 9 -6 19 -8 15 -7 19 7 17 9 -2 18 -12 20 -24 2 -16 -2 -22
-17 -22 -11 0 -20 -7 -20 -15 0 -8 7 -15 15 -15 8 0 15 5 15 10 0 6 7 10 15
10 8 0 15 -6 15 -12 0 -9 3 -9 9 1 7 11 13 12 23 3 11 -8 14 -7 14 8 0 15 -5
18 -22 14 -23 -6 -38 15 -28 41 6 14 20 19 54 16 11 0 11 1 2 5 -10 5 -10 9
-1 20 6 8 8 14 3 14 -5 0 -2 4 6 10 8 5 19 5 25 0 6 -5 17 -5 25 0 12 8 10 10
-7 10 -12 0 -24 4 -27 9 -4 5 -19 -3 -36 -17 -21 -19 -26 -28 -17 -34 7 -5 1
-7 -15 -4 -22 4 -26 1 -21 -12 3 -13 0 -11 -14 4 -21 25 -60 37 -67 20 -2 -6
-5 -3 -5 7 -1 15 4 17 21 11 20 -6 21 -5 9 10 -7 9 -23 14 -35 12 -12 -2 -33
2 -46 10 -14 7 -20 14 -15 14 13 0 -16 20 -30 20 -5 0 -4 -4 4 -9z m55 -106
c4 -10 -1 -15 -14 -15 -11 0 -20 7 -20 15 0 8 6 15 14 15 8 0 16 -7 20 -15z"/>
<path d="M4786 1031 c-4 -7 -5 -15 -2 -18 9 -9 19 4 14 18 -4 11 -6 11 -12 0z"/>
<path d="M4838 1033 c7 -3 16 -2 19 1 4 3 -2 6 -13 5 -11 0 -14 -3 -6 -6z"/>
<path d="M2965 1011 l-50 -19 48 -21 c53 -23 74 -26 96 -12 9 6 0 14 -33 26
-26 10 -45 20 -43 22 3 2 30 -6 60 -17 40 -15 62 -18 74 -12 14 9 11 12 -22
26 -60 25 -76 26 -130 7z"/>
<path d="M4310 1000 c0 -6 7 -10 15 -10 8 0 15 2 15 4 0 2 -7 6 -15 10 -8 3
-15 1 -15 -4z"/>
<path d="M4495 1000 c3 -5 8 -10 11 -10 2 0 4 5 4 10 0 6 -5 10 -11 10 -5 0
-7 -4 -4 -10z"/>
<path d="M2855 976 c-16 -8 -48 -17 -69 -21 -30 -5 -36 -9 -25 -16 10 -8 8 -9
-9 -4 -12 4 -39 1 -60 -6 -20 -7 -39 -14 -42 -14 -33 -7 -77 -18 -84 -23 -5
-3 19 -20 54 -37 63 -32 65 -32 109 -17 l44 15 -44 23 c-24 13 -40 23 -36 24
4 0 26 -9 48 -21 l41 -20 109 38 c60 21 109 41 109 44 0 5 -99 49 -110 49 -3
0 -18 -7 -35 -14z m25 -26 c8 -5 11 -10 5 -10 -5 0 -17 5 -25 10 -8 5 -10 10
-5 10 6 0 17 -5 25 -10z m50 -20 c8 -5 11 -10 5 -10 -5 0 -17 5 -25 10 -8 5
-10 10 -5 10 6 0 17 -5 25 -10z m-100 -20 c19 -11 31 -19 25 -19 -5 0 -26 8
-45 19 -19 11 -30 19 -25 19 6 0 26 -8 45 -19z"/>
<path d="M4570 980 c0 -5 7 -7 15 -4 8 4 15 8 15 10 0 2 -7 4 -15 4 -8 0 -15
-4 -15 -10z"/>
<path d="M4900 968 c0 -4 7 -8 15 -8 8 0 15 4 15 8 0 5 -7 9 -15 9 -8 0 -15
-4 -15 -9z"/>
<path d="M5050 960 c0 -5 7 -10 15 -10 8 0 15 -5 15 -12 0 -6 3 -8 6 -5 8 8
-14 37 -27 37 -5 0 -9 -4 -9 -10z"/>
<path d="M4285 950 c3 -5 10 -10 16 -10 5 0 9 5 9 10 0 6 -7 10 -16 10 -8 0
-12 -4 -9 -10z"/>
<path d="M4503 953 c-13 -2 -23 -9 -23 -14 0 -6 -4 -8 -9 -5 -5 3 -12 -1 -15
-9 -4 -12 -2 -14 11 -7 9 5 25 8 37 6 12 -3 15 -1 8 2 -10 5 -9 9 5 20 10 7
16 13 13 12 -3 0 -15 -3 -27 -5z"/>
<path d="M5000 945 c0 -8 4 -15 10 -15 5 0 7 7 4 15 -4 8 -8 15 -10 15 -2 0
-4 -7 -4 -15z"/>
<path d="M4340 941 c0 -5 7 -11 14 -14 10 -4 13 -1 9 9 -6 15 -23 19 -23 5z"/>
<path d="M4385 941 c-3 -5 -1 -12 5 -16 5 -3 10 1 10 9 0 18 -6 21 -15 7z"/>
<path d="M4417 934 c6 -15 23 -19 23 -5 0 5 -7 11 -14 14 -10 4 -13 1 -9 -9z"/>
<path d="M5043 933 c-7 -2 -13 -11 -13 -19 0 -8 -6 -14 -12 -14 -7 0 -5 -5 5
-11 9 -5 17 -17 17 -24 0 -8 5 -15 11 -15 5 0 7 5 4 10 -3 6 0 10 9 10 8 0 17
-6 19 -12 3 -8 6 -6 6 5 1 11 -6 17 -22 17 -13 0 -26 3 -30 6 -8 8 3 35 12 29
4 -2 8 2 8 10 0 8 -1 15 -1 14 -1 0 -7 -3 -13 -6z"/>
<path d="M4556 922 c-3 -5 1 -9 9 -9 8 0 12 4 9 9 -3 4 -7 8 -9 8 -2 0 -6 -4
-9 -8z"/>
<path d="M4940 910 c0 -9 14 -14 33 -11 7 1 11 -15 8 -31 0 -5 6 -8 14 -8 21
0 19 13 -8 38 -25 23 -47 29 -47 12z"/>
<path d="M4445 892 c-3 -3 -5 -12 -5 -20 0 -10 6 -12 18 -7 9 4 23 8 30 8 6 0
12 4 12 8 0 8 -47 18 -55 11z"/>
<path d="M4526 887 c3 -10 9 -15 12 -12 3 3 0 11 -7 18 -10 9 -11 8 -5 -6z"/>
<path d="M4586 892 c-3 -5 1 -9 9 -9 8 0 12 4 9 9 -3 4 -7 8 -9 8 -2 0 -6 -4
-9 -8z"/>
<path d="M4436 842 c-3 -5 1 -9 9 -9 8 0 12 4 9 9 -3 4 -7 8 -9 8 -2 0 -6 -4
-9 -8z"/>
<path d="M4470 835 c0 -8 6 -15 14 -15 8 0 16 7 20 15 4 10 -1 15 -14 15 -11
0 -20 -7 -20 -15z"/>
<path d="M4583 835 c-21 -23 -15 -37 7 -15 11 11 20 22 20 25 0 10 -15 4 -27
-10z"/>
<path d="M4770 840 c0 -5 5 -10 10 -10 6 0 10 5 10 10 0 6 -4 10 -10 10 -5 0
-10 -4 -10 -10z"/>
<path d="M3815 803 c1 -21 3 -45 4 -52 1 -11 4 -12 12 -4 7 7 9 25 5 47 -9 49
-26 55 -21 9z"/>
<path d="M4517 834 c-3 -4 0 -13 8 -21 11 -11 12 -19 5 -34 -7 -12 -7 -19 -1
-19 12 0 18 28 13 58 -4 22 -13 28 -25 16z"/>
<path d="M5060 830 c0 -5 -9 -10 -19 -10 -11 0 -22 -6 -24 -12 -4 -10 -6 -10
-6 0 -1 6 -5 12 -11 12 -5 0 -9 -3 -7 -7 1 -5 -2 -9 -8 -10 -5 -2 -10 1 -10 6
0 23 -15 21 -26 -3 -7 -15 -18 -25 -25 -22 -7 3 -14 0 -16 -6 -3 -7 -15 -7
-41 0 -20 6 -37 7 -37 2 0 -4 12 -11 27 -15 15 -3 32 -14 39 -23 7 -9 20 -17
30 -17 23 0 38 -53 21 -74 -6 -9 -8 -13 -3 -9 5 4 23 0 40 -10 55 -30 86 -41
86 -32 0 5 -8 11 -17 13 -10 3 -5 5 12 6 22 1 26 4 16 10 -8 5 -22 6 -30 2 -9
-4 -20 -7 -26 -6 -16 1 -51 24 -38 25 17 0 4 38 -16 43 -11 3 -9 5 7 6 20 1
29 -17 23 -52 -1 -4 19 -6 44 -5 l45 1 0 59 c0 40 -4 58 -12 58 -9 0 -8 4 2
10 13 9 13 10 0 10 -13 0 -13 2 -1 9 11 7 10 10 -4 12 -18 4 -18 5 -1 22 15
15 15 17 2 17 -9 0 -16 -4 -16 -10z m-15 -30 c3 -5 1 -10 -4 -10 -6 0 -11 5
-11 10 0 6 2 10 4 10 3 0 8 -4 11 -10z m-69 -48 c-4 -3 -20 -7 -36 -8 -21 -1
-27 2 -23 12 4 11 8 12 19 3 12 -10 13 -8 8 6 -5 13 -4 16 4 11 7 -4 12 -2 12
6 0 8 5 6 11 -5 6 -10 8 -21 5 -25z m69 -17 c0 -23 -1 -24 -12 -8 -10 13 -10
18 0 25 6 4 12 8 12 8 0 0 0 -11 0 -25z m-49 -10 c-8 -8 -16 -15 -19 -15 -2 0
-4 7 -4 15 0 8 9 15 19 15 17 0 18 -2 4 -15z m84 -39 c0 -2 -11 -11 -25 -20
-20 -13 -23 -13 -19 -2 3 8 13 17 22 19 10 3 18 5 20 6 1 0 2 -1 2 -3z"/>
<path d="M3855 820 c-16 -7 -17 -9 -3 -9 9 -1 18 -6 20 -13 3 -9 6 -9 12 0 4
7 2 12 -4 12 -6 0 -8 5 -5 10 7 11 7 11 -20 0z"/>
<path d="M4325 819 c-4 -6 -5 -12 -2 -15 2 -3 7 2 10 11 7 17 1 20 -8 4z"/>
<path d="M4371 825 c1 -19 18 -51 18 -35 0 8 -4 22 -9 30 -5 8 -9 11 -9 5z"/>
<path d="M4877 810 c3 -11 10 -23 16 -27 6 -4 8 0 4 9 -3 9 0 21 6 27 8 8 6
11 -10 11 -16 0 -20 -5 -16 -20z"/>
<path d="M3780 800 c-6 -11 -8 -20 -6 -20 3 0 10 9 16 20 6 11 8 20 6 20 -3 0
-10 -9 -16 -20z"/>
<path d="M4623 813 c-17 -2 -34 -11 -37 -19 -6 -16 9 -19 19 -4 4 6 10 8 14 5
5 -2 17 2 27 10 10 8 17 14 14 13 -3 -1 -19 -3 -37 -5z"/>
<path d="M3700 800 c0 -13 18 -22 24 -11 3 5 -1 11 -9 15 -8 3 -15 1 -15 -4z"/>
<path d="M3903 779 c1 -19 17 -27 17 -9 0 5 7 6 17 3 10 -4 14 -2 10 4 -4 6
-15 13 -26 16 -15 3 -19 0 -18 -14z"/>
<path d="M3976 781 c4 -17 3 -21 -6 -16 -8 5 -7 0 2 -14 14 -22 28 -28 28 -11
0 6 -5 10 -11 10 -5 0 -7 4 -4 10 3 5 1 18 -5 27 -9 15 -10 14 -4 -6z"/>
<path d="M4664 793 c7 -13 -4 -17 -31 -14 -7 1 -13 -3 -13 -9 0 -6 -4 -8 -10
-5 -5 3 -10 2 -10 -4 0 -6 13 -8 33 -4 42 8 55 20 38 36 -11 10 -13 10 -7 0z"/>
<path d="M4036 775 c4 -8 11 -15 16 -15 6 0 5 6 -2 15 -7 8 -14 15 -16 15 -2
0 -1 -7 2 -15z"/>
<path d="M4460 780 c0 -5 5 -10 11 -10 5 0 7 5 4 10 -3 6 -8 10 -11 10 -2 0
-4 -4 -4 -10z"/>
<path d="M4710 776 c0 -8 -6 -16 -12 -18 -7 -3 -3 -7 8 -10 16 -4 20 0 20 18
0 13 -4 24 -8 24 -4 0 -8 -6 -8 -14z"/>
<path d="M4068 755 c-6 -30 -2 -32 12 -6 6 11 6 22 1 25 -5 3 -11 -5 -13 -19z"/>
<path d="M4490 770 c0 -5 5 -10 11 -10 5 0 7 5 4 10 -3 6 -8 10 -11 10 -2 0
-4 -4 -4 -10z"/>
<path d="M4767 759 c4 -15 8 -17 14 -8 8 14 3 29 -11 29 -4 0 -6 -9 -3 -21z"/>
<path d="M3865 760 c3 -5 8 -10 11 -10 2 0 4 5 4 10 0 6 -5 10 -11 10 -5 0 -7
-4 -4 -10z"/>
<path d="M4795 761 c-6 -11 6 -21 36 -26 11 -2 29 -7 40 -10 11 -4 19 -2 19 4
0 6 -9 11 -20 11 -11 0 -20 5 -20 11 0 6 -7 9 -15 5 -8 -3 -15 -1 -15 4 0 13
-17 13 -25 1z"/>
<path d="M4751 744 c-1 -27 -11 -36 -27 -23 -16 13 -49 -3 -58 -28 -4 -10 -4
-14 0 -11 4 4 15 3 24 -2 14 -7 17 -6 16 8 -1 11 7 17 22 18 12 1 22 -4 21
-10 -3 -24 2 -36 14 -36 7 0 13 9 14 20 1 11 -2 18 -7 15 -4 -3 -10 2 -13 9
-3 8 -2 16 2 18 5 2 5 12 0 23 -7 20 -8 20 -8 -1z m-51 -39 c-7 -9 -15 -13
-19 -10 -3 3 1 10 9 15 21 14 24 12 10 -5z"/>
<path d="M1340 740 c0 -6 7 -10 15 -10 8 0 15 2 15 4 0 2 -7 6 -15 10 -8 3
-15 1 -15 -4z"/>
<path d="M3734 728 c0 -10 3 -18 7 -18 4 0 9 8 11 18 3 10 0 19 -6 19 -7 0
-12 -9 -12 -19z"/>
<path d="M4495 739 c-3 -4 2 -6 10 -5 21 3 28 13 10 13 -9 0 -18 -4 -20 -8z"/>
<path d="M4540 746 c0 -2 8 -10 18 -17 15 -13 16 -12 3 4 -13 16 -21 21 -21
13z"/>
<path d="M4646 736 c3 -9 1 -16 -5 -16 -6 0 -11 -4 -11 -10 0 -5 7 -7 15 -4
17 7 20 30 5 39 -6 3 -7 -1 -4 -9z"/>
<path d="M4330 729 c0 -20 27 -33 36 -17 4 6 3 8 -4 4 -6 -3 -15 2 -21 11 -9
16 -10 16 -11 2z"/>
<path d="M3810 719 c0 -5 5 -7 10 -4 6 3 10 8 10 11 0 2 -4 4 -10 4 -5 0 -10
-5 -10 -11z"/>
<path d="M4460 719 c0 -5 5 -7 10 -4 6 3 10 8 10 11 0 2 -4 4 -10 4 -5 0 -10
-5 -10 -11z"/>
<path d="M1355 710 c3 -5 8 -10 11 -10 2 0 4 5 4 10 0 6 -5 10 -11 10 -5 0 -7
-4 -4 -10z"/>
<path d="M4447 703 c16 -14 18 -22 9 -35 -14 -23 -4 -31 25 -18 23 10 23 10 2
6 -13 -2 -23 0 -23 5 0 5 11 9 25 9 16 0 25 -6 25 -15 0 -8 -5 -15 -12 -15 -6
0 -8 -3 -5 -6 4 -4 13 -1 22 6 11 9 15 9 15 1 0 -7 8 -10 19 -6 14 4 18 0 18
-17 -1 -74 3 -97 17 -92 18 7 30 -12 15 -22 -8 -5 -9 -3 -4 6 5 9 2 10 -14 5
-14 -4 -30 1 -48 15 -15 12 -29 17 -31 11 -2 -5 -10 -7 -19 -4 -11 4 -14 3 -9
-6 5 -7 15 -10 23 -7 15 6 68 -23 58 -32 -3 -3 -14 3 -25 13 -18 16 -20 16
-20 2 0 -10 -5 -17 -11 -17 -5 0 -7 -5 -3 -11 4 -8 9 -7 14 2 6 9 12 10 22 2
7 -6 17 -11 21 -11 5 0 11 -3 15 -6 3 -3 0 -6 -6 -6 -7 0 -12 -8 -12 -17 1
-16 2 -16 15 1 20 26 53 27 67 3 8 -16 12 -17 19 -6 7 11 9 11 9 -3 0 -12 5
-15 17 -11 13 5 15 2 11 -15 -4 -12 -2 -25 3 -28 5 -3 7 -9 4 -14 -3 -5 2 -13
11 -18 12 -7 13 -11 5 -17 -9 -5 -9 -10 0 -21 13 -15 34 -20 24 -5 -7 12 46 4
58 -8 5 -5 4 -12 -1 -15 -6 -3 -13 -2 -17 4 -4 7 -12 7 -25 0 -14 -7 -23 -6
-34 5 -18 18 -27 19 -24 3 4 -16 47 -40 59 -32 5 3 5 -6 -1 -20 -6 -17 -6 -26
0 -26 6 0 10 -5 10 -11 0 -8 -5 -8 -15 1 -8 7 -12 16 -9 22 6 9 -13 38 -25 38
-14 0 -10 -48 5 -54 8 -3 12 -11 8 -17 -4 -7 -3 -9 3 -6 20 12 100 -42 85 -57
-3 -4 1 -4 10 -1 9 4 19 2 23 -4 3 -6 0 -11 -7 -11 -10 0 -9 -3 2 -10 20 -12
32 8 18 33 -5 11 -8 30 -5 43 4 22 -3 29 -26 25 -4 -1 -10 5 -13 13 -3 9 -16
13 -32 11 -15 -2 -22 -2 -15 1 7 3 9 13 6 22 -3 10 -1 13 4 7 4 -5 17 -12 28
-13 11 -2 26 -9 33 -14 8 -8 12 -7 12 3 1 9 4 8 11 -4 7 -12 17 -16 32 -12 19
5 20 5 5 -5 -10 -6 -22 -19 -28 -30 -11 -20 -3 -53 10 -45 5 3 6 -3 3 -14 -4
-16 1 -18 38 -18 24 0 45 -5 47 -12 2 -7 9 -8 22 -1 13 7 20 6 24 -6 9 -24 7
-31 -9 -31 -11 0 -12 4 -4 13 8 10 3 13 -20 12 -17 -1 -28 -5 -25 -9 3 -5 1
-16 -4 -25 -8 -14 -9 -12 -9 11 0 15 -7 31 -14 36 -19 11 -20 7 -9 -29 5 -20
5 -30 -1 -27 -5 4 -9 -5 -9 -19 0 -14 5 -26 11 -26 5 0 7 6 3 12 -6 10 -4 10
8 0 13 -10 17 -10 21 0 4 10 6 10 6 1 1 -9 21 -13 66 -13 l64 0 0 290 c0 273
-1 290 -18 290 -10 0 -21 -3 -25 -7 -11 -11 -36 -12 -33 -1 1 6 -10 14 -26 19
-16 4 -25 4 -21 -2 3 -5 -6 -9 -20 -9 -14 0 -28 5 -31 10 -3 6 -19 10 -35 10
-30 0 -50 -28 -28 -41 10 -7 10 -11 -1 -21 -8 -7 -12 -8 -9 -3 6 13 -28 46
-38 37 -4 -4 -4 -1 0 6 4 6 2 12 -4 12 -6 0 -8 5 -5 11 5 7 14 4 26 -7 11 -10
19 -12 19 -6 0 7 -4 12 -10 12 -5 0 -10 5 -10 11 0 6 7 9 15 5 8 -3 15 -1 15
5 0 15 50 2 73 -18 9 -9 20 -13 24 -10 3 4 3 7 -2 7 -4 0 -3 6 3 13 8 9 4 15
-14 24 -13 6 -24 7 -24 3 0 -12 -42 -3 -50 10 -5 7 -11 6 -20 -5 -7 -8 -19
-15 -26 -15 -8 0 -14 -5 -14 -11 0 -8 -6 -7 -17 2 -16 13 -17 12 -5 -2 10 -14
10 -20 -3 -33 -21 -20 -23 -20 -21 2 0 9 -3 18 -9 19 -5 1 -9 -10 -8 -25 2
-17 -1 -22 -6 -14 -4 7 -12 12 -17 11 -5 -1 -11 0 -14 1 -22 8 -41 6 -51 -6
-6 -8 -16 -14 -22 -14 -6 0 -3 6 7 13 16 12 16 15 3 26 -10 8 -17 9 -22 1 -10
-16 -32 -12 -38 9 -3 14 0 17 13 14 13 -3 19 3 23 23 5 26 4 27 -9 10 -13 -18
-14 -18 -32 4 -10 13 -25 25 -33 26 -32 7 -54 13 -56 14 -2 2 -7 3 -12 4 -5 0
-13 4 -17 9 -4 4 -12 7 -17 7 -6 0 -1 -8 10 -17z m114 -40 c8 -9 9 -14 2 -10
-6 4 -13 1 -16 -5 -3 -7 -4 -3 -4 10 1 26 1 26 18 5z m74 -73 c3 -5 1 -10 -4
-10 -6 0 -11 5 -11 10 0 6 2 10 4 10 3 0 8 -4 11 -10z m45 -30 c-13 -8 -12
-10 3 -10 10 0 17 -8 17 -21 0 -16 -4 -19 -22 -13 -43 13 -52 26 -26 40 27 15
50 18 28 4z m118 -8 c2 -7 -1 -12 -8 -12 -6 0 -9 4 -6 9 4 5 1 12 -4 14 -6 3
-5 4 2 3 6 -1 14 -8 16 -14z m114 4 c7 4 10 4 6 -1 -4 -4 -3 -14 3 -21 8 -9 4
-16 -13 -25 -19 -9 -21 -9 -10 2 16 18 15 34 -2 20 -11 -9 -15 -8 -20 5 -10
27 -7 37 9 24 8 -6 20 -8 27 -4z m-302 -6 c0 -5 -4 -10 -10 -10 -5 0 -10 5
-10 10 0 6 5 10 10 10 6 0 10 -4 10 -10z m355 0 c-3 -5 -10 -10 -16 -10 -5 0
-9 5 -9 10 0 6 7 10 16 10 8 0 12 -4 9 -10z m-198 -15 c0 -8 -4 -12 -9 -9 -5
3 -6 10 -3 15 9 13 12 11 12 -6z m219 -43 c1 -6 -1 -10 -6 -7 -5 3 -16 -2 -24
-11 -9 -8 -22 -14 -29 -11 -6 2 3 11 21 21 33 17 35 36 4 36 -15 0 -15 2 -2
10 15 9 32 -8 36 -38z m-179 -2 c-6 -8 -12 -16 -13 -18 -1 -2 -31 -5 -66 -8
-44 -3 -58 -1 -48 6 12 8 11 10 -7 10 -13 0 -23 4 -23 10 0 5 6 7 13 5 6 -3
25 -2 40 3 15 4 47 7 72 7 38 0 42 -2 32 -15z m67 -2 c-5 -8 0 -9 14 -6 12 4
20 2 17 -2 -3 -5 2 -16 11 -24 14 -15 11 -20 -8 -17 -11 1 -10 -11 1 -28 8
-12 12 -12 25 -2 8 7 21 11 28 9 12 -4 -60 -38 -94 -45 -26 -4 -22 6 6 17 19
7 22 14 19 35 -4 20 -10 24 -24 20 -14 -5 -19 -1 -19 14 0 12 -4 21 -9 21 -12
0 -8 -32 6 -47 6 -7 16 -13 22 -13 5 0 13 -4 16 -10 4 -6 -6 -10 -24 -10 -23
0 -29 4 -25 15 4 10 -5 20 -27 31 -33 14 -33 15 -5 9 26 -5 28 -4 17 9 -14 17
-11 19 34 29 11 3 21 5 23 6 2 0 0 -4 -4 -11z m139 -44 c4 9 13 16 21 16 17 0
29 -27 15 -35 -5 -4 -8 -1 -7 6 2 6 -3 14 -9 16 -7 3 -13 -3 -13 -12 0 -13 -5
-16 -22 -10 -13 4 -31 7 -40 6 -10 0 -18 3 -18 6 0 3 8 12 18 19 14 11 19 10
33 -8 14 -18 17 -18 22 -4z m-266 -4 c-3 -11 0 -20 6 -20 7 0 4 -7 -5 -14 -21
-15 -23 -32 -5 -39 6 -3 2 -6 -10 -6 -16 -1 -21 3 -17 14 4 8 0 23 -7 32 -8 9
-9 14 -3 10 6 -3 17 5 24 18 16 30 24 32 17 5z m63 -40 c-11 -21 -35 -27 -44
-11 -4 5 4 7 16 4 21 -4 22 -3 6 10 -10 8 -15 17 -11 20 3 4 1 7 -5 7 -7 0
-12 5 -12 10 0 6 13 4 30 -5 26 -13 29 -19 20 -35z m166 -17 c16 -21 18 -47 4
-38 -6 4 -8 10 -5 15 3 5 -12 8 -34 7 -43 -3 -44 -1 -9 19 31 16 29 16 44 -3z
m-166 -22 c0 -5 -11 -11 -24 -13 -15 -3 -23 -1 -20 6 5 13 44 19 44 7z m25 -1
c-8 -13 18 -13 31 0 6 6 16 3 27 -10 9 -11 14 -20 11 -20 -4 0 -1 -6 5 -14 9
-11 9 -15 0 -18 -9 -3 -9 -9 0 -26 8 -14 8 -22 1 -22 -5 0 -10 6 -10 13 0 8
-4 7 -11 -3 -8 -12 -9 -10 -4 9 5 15 2 26 -6 31 -10 7 -10 12 0 23 24 30 -9
28 -38 -2 -23 -23 -31 -27 -35 -15 -6 17 13 64 26 64 5 0 6 -4 3 -10z m182
-32 c-3 -8 -6 -5 -6 6 -1 11 2 17 5 13 3 -3 4 -12 1 -19z m11 -28 c12 0 48
-28 40 -31 -15 -6 -46 -5 -42 2 2 4 -5 13 -16 19 -11 6 -20 16 -20 22 0 9 3 9
12 0 7 -7 18 -12 26 -12z m-68 -7 c0 -10 -4 -14 -8 -8 -4 6 -11 13 -16 18 -5
4 -2 7 7 7 10 0 17 -8 17 -17z m-230 -53 c0 -5 -4 -10 -10 -10 -5 0 -10 5 -10
10 0 6 5 10 10 10 6 0 10 -4 10 -10z m58 -34 c-7 -8 -15 -12 -17 -11 -5 6 10
25 20 25 5 0 4 -6 -3 -14z m160 -27 c-6 -16 -12 -28 -14 -26 -5 5 13 57 20 57
3 0 0 -14 -6 -31z m32 -1 c0 -18 -2 -20 -9 -8 -6 8 -7 18 -5 22 9 14 14 9 14
-14z m10 -132 c0 -3 -4 -8 -10 -11 -5 -3 -10 -1 -10 4 0 6 5 11 10 11 6 0 10
-2 10 -4z m60 -27 c0 -18 -18 -9 -23 12 -4 16 -3 18 9 8 8 -6 14 -15 14 -20z"/>
<path d="M4650 540 c0 -5 5 -10 11 -10 5 0 7 5 4 10 -3 6 -8 10 -11 10 -2 0
-4 -4 -4 -10z"/>
<path d="M4810 319 c0 -5 5 -7 10 -4 6 3 10 8 10 11 0 2 -4 4 -10 4 -5 0 -10
-5 -10 -11z"/>
<path d="M4520 709 c0 -5 5 -7 10 -4 6 3 10 8 10 11 0 2 -4 4 -10 4 -5 0 -10
-5 -10 -11z"/>
<path d="M3621 684 c0 -11 3 -14 6 -6 3 7 2 16 -1 19 -3 4 -6 -2 -5 -13z"/>
<path d="M3856 678 c-20 -28 -20 -36 -1 -54 8 -9 15 -12 15 -7 0 5 -5 14 -12
21 -9 9 -9 12 1 12 7 0 11 6 8 14 -3 7 0 19 6 25 6 6 8 11 5 11 -4 0 -14 -10
-22 -22z"/>
<path d="M4060 689 c0 -5 5 -7 10 -4 6 3 10 8 10 11 0 2 -4 4 -10 4 -5 0 -10
-5 -10 -11z"/>
<path d="M4840 691 c0 -6 4 -13 10 -16 6 -3 7 1 4 9 -7 18 -14 21 -14 7z"/>
<path d="M4920 680 c0 -11 5 -20 10 -20 6 0 10 9 10 20 0 11 -4 20 -10 20 -5
0 -10 -9 -10 -20z"/>
<path d="M3675 680 c3 -5 8 -10 11 -10 2 0 4 5 4 10 0 6 -5 10 -11 10 -5 0 -7
-4 -4 -10z"/>
<path d="M4878 683 c7 -3 16 -2 19 1 4 3 -2 6 -13 5 -11 0 -14 -3 -6 -6z"/>
<path d="M3950 650 c-6 -11 -16 -17 -22 -14 -7 4 -8 3 -4 -4 4 -7 3 -12 -2
-12 -5 0 -14 10 -19 23 -10 21 -11 20 -11 -9 1 -27 5 -31 25 -30 13 0 26 9 29
19 10 32 23 17 19 -23 -3 -32 0 -42 15 -50 11 -6 20 -18 20 -28 0 -14 2 -15
10 -2 5 9 5 17 -1 20 -5 4 -11 16 -14 28 -2 11 -9 30 -15 41 -7 14 -7 21 0 21
5 0 10 5 10 10 0 6 -7 10 -16 10 -8 0 -12 5 -9 10 3 6 4 10 1 10 -3 0 -10 -9
-16 -20z"/>
<path d="M4401 654 c0 -11 3 -14 6 -6 3 7 2 16 -1 19 -3 4 -6 -2 -5 -13z"/>
<path d="M3577 642 c-16 -17 -17 -24 -7 -43 11 -20 13 -20 22 -5 5 9 8 28 6
42 -3 26 -3 26 -21 6z"/>
<path d="M3620 645 c-11 -13 -10 -14 4 -9 9 3 16 10 16 15 0 13 -6 11 -20 -6z"/>
<path d="M3710 646 c0 -8 4 -17 9 -20 5 -4 7 3 4 14 -6 23 -13 26 -13 6z"/>
<path d="M4306 647 c3 -10 9 -15 12 -12 3 3 0 11 -7 18 -10 9 -11 8 -5 -6z"/>
<path d="M4653 645 c0 -8 4 -15 9 -15 4 0 8 4 8 9 0 6 -4 12 -8 15 -5 3 -9 -1
-9 -9z"/>
<path d="M4702 653 c-6 -2 -10 -9 -6 -14 8 -14 21 -11 21 6 0 8 -1 15 -1 14
-1 0 -7 -3 -14 -6z"/>
<path d="M3680 636 c0 -8 5 -18 10 -21 6 -4 7 -11 4 -17 -4 -6 -2 -8 4 -5 11
8 5 44 -9 53 -5 3 -9 -2 -9 -10z"/>
<path d="M3656 614 c-4 -15 -3 -31 2 -36 7 -7 10 3 10 26 0 43 -3 45 -12 10z"/>
<path d="M3841 604 c0 -11 3 -14 6 -6 3 7 2 16 -1 19 -3 4 -6 -2 -5 -13z"/>
<path d="M4303 598 c-2 -18 0 -20 7 -8 12 18 13 30 2 30 -4 0 -9 -10 -9 -22z"/>
<path d="M4501 604 c0 -11 3 -14 6 -6 3 7 2 16 -1 19 -3 4 -6 -2 -5 -13z"/>
<path d="M4005 602 c6 -4 10 -16 9 -28 -1 -11 5 -21 12 -21 19 0 17 44 -2 51
-21 8 -31 7 -19 -2z"/>
<path d="M3809 598 c-9 -28 -6 -63 7 -82 8 -14 12 -31 8 -37 -5 -8 -3 -9 6 -4
10 6 12 4 7 -9 -6 -15 -5 -15 17 1 13 10 22 22 19 26 -3 4 -11 3 -19 -4 -12
-10 -13 -6 -7 22 5 30 4 32 -9 22 -15 -13 -28 -8 -28 9 0 5 4 7 9 4 5 -3 14 1
22 10 10 13 9 16 -9 21 -12 3 -19 9 -16 14 3 5 3 9 0 9 -3 0 -6 -1 -7 -2z"/>
<path d="M4052 563 c-1 -21 2 -44 7 -52 6 -9 9 1 9 28 0 22 4 45 7 51 3 5 0
10 -8 10 -9 0 -14 -13 -15 -37z"/>
<path d="M3930 570 c0 -11 7 -20 15 -20 8 0 15 -7 15 -15 0 -8 5 -15 10 -15
17 0 11 18 -11 34 -12 8 -18 19 -14 25 3 6 1 11 -4 11 -6 0 -11 -9 -11 -20z"/>
<path d="M4270 555 c0 -20 5 -35 12 -35 6 0 19 -7 29 -16 11 -10 19 -12 24 -5
3 6 1 11 -5 11 -6 0 -16 14 -21 30 -6 17 -15 30 -21 30 -5 0 -6 5 -3 10 3 6 1
10 -4 10 -6 0 -11 -16 -11 -35z"/>
<path d="M3405 569 c-4 -6 -5 -12 -2 -15 2 -3 7 2 10 11 7 17 1 20 -8 4z"/>
<path d="M4128 563 c-10 -13 -10 -15 0 -9 7 4 19 2 27 -4 19 -16 20 -3 1 15
-12 12 -16 12 -28 -2z"/>
<path d="M4430 566 c7 -7 13 -7 20 0 6 6 3 10 -10 10 -13 0 -16 -4 -10 -10z"/>
<path d="M3691 562 c-1 -7 -5 -11 -9 -8 -4 2 -9 -4 -9 -15 -2 -17 0 -18 13 -4
9 8 13 21 11 28 -4 9 -6 9 -6 -1z"/>
<path d="M4535 550 c10 -11 20 -20 22 -20 1 0 3 9 3 20 0 14 -7 20 -22 20 -20
0 -21 -1 -3 -20z"/>
<path d="M3525 540 c3 -5 8 -10 11 -10 2 0 4 5 4 10 0 6 -5 10 -11 10 -5 0 -7
-4 -4 -10z"/>
<path d="M3772 527 c5 -24 -16 -46 -30 -32 -3 3 0 5 6 5 7 0 12 5 12 10 0 6
-7 6 -19 -2 -24 -15 -5 -41 21 -27 11 6 18 4 22 -8 6 -14 8 -14 21 3 12 17 11
20 -7 27 -12 4 -18 13 -14 22 3 8 0 17 -6 21 -7 5 -9 -2 -6 -19z"/>
<path d="M4101 542 c-1 -8 -6 -10 -13 -6 -10 6 -10 4 0 -8 10 -13 10 -17 0
-21 -10 -4 -10 -6 0 -6 15 -1 26 23 19 41 -4 10 -6 10 -6 0z"/>
<path d="M4031 530 c0 -8 4 -22 9 -30 12 -18 12 -2 0 25 -6 13 -9 15 -9 5z"/>
<path d="M4127 533 c-3 -3 -2 -16 4 -30 12 -31 12 -53 0 -35 -7 11 -9 11 -14
-2 -5 -11 -1 -16 13 -16 10 0 22 5 25 10 11 18 26 10 24 -12 -4 -24 7 -48 20
-48 13 0 7 63 -6 67 -8 3 -9 14 -3 33 5 18 5 32 -1 35 -5 4 -9 -5 -9 -19 0
-14 -5 -28 -12 -32 -7 -4 -8 -3 -4 5 4 6 0 14 -9 17 -12 5 -13 9 -5 14 8 5 7
9 -3 13 -8 3 -17 3 -20 0z m73 -103 c0 -5 -5 -10 -11 -10 -5 0 -7 5 -4 10 3 6
8 10 11 10 2 0 4 -4 4 -10z"/>
<path d="M4390 531 c0 -5 5 -13 10 -16 6 -3 10 -2 10 4 0 5 -4 13 -10 16 -5 3
-10 2 -10 -4z"/>
<path d="M3705 520 c3 -5 8 -10 11 -10 2 0 4 5 4 10 0 6 -5 10 -11 10 -5 0 -7
-4 -4 -10z"/>
<path d="M3399 514 c-1 -5 -1 -13 0 -18 1 -4 -4 -15 -10 -22 -9 -12 -9 -18 0
-27 7 -7 12 -7 11 -2 -2 6 -2 17 -1 25 1 13 2 13 11 0 8 -11 9 -7 4 15 -7 32
-13 44 -15 29z"/>
<path d="M4426 502 c-3 -5 1 -9 9 -9 8 0 12 4 9 9 -3 4 -7 8 -9 8 -2 0 -6 -4
-9 -8z"/>
<path d="M4290 491 c0 -5 5 -13 10 -16 6 -3 10 -2 10 4 0 5 -4 13 -10 16 -5 3
-10 2 -10 -4z"/>
<path d="M4395 490 c-3 -5 -1 -10 4 -10 6 0 11 5 11 10 0 6 -2 10 -4 10 -3 0
-8 -4 -11 -10z"/>
<path d="M4060 479 c0 -5 5 -7 10 -4 6 3 10 8 10 11 0 2 -4 4 -10 4 -5 0 -10
-5 -10 -11z"/>
<path d="M4282 449 c2 -7 10 -15 17 -17 8 -3 12 1 9 9 -2 7 -10 15 -17 17 -8
3 -12 -1 -9 -9z"/>
<path d="M4324 444 c3 -9 6 -18 6 -20 0 -2 5 -4 11 -4 8 0 9 4 0 13 -6 8 -8
17 -4 20 3 4 1 7 -6 7 -8 0 -11 -6 -7 -16z"/>
<path d="M4091 434 c0 -11 3 -14 6 -6 3 7 2 16 -1 19 -3 4 -6 -2 -5 -13z"/>
<path d="M4369 424 c-7 -8 -13 -35 -14 -60 -2 -42 6 -56 20 -34 4 6 11 8 16 5
11 -7 1 24 -15 45 -8 11 -4 10 17 -3 34 -22 36 -12 2 15 -20 16 -23 23 -14 34
6 8 9 14 6 14 -2 0 -10 -7 -18 -16z m11 -75 c0 -5 -4 -9 -10 -9 -5 0 -10 7
-10 16 0 8 5 12 10 9 6 -3 10 -10 10 -16z"/>
<path d="M4482 420 c0 -14 2 -19 5 -12 2 6 2 18 0 25 -3 6 -5 1 -5 -13z"/>
<path d="M4554 408 c-16 -19 -16 -21 -1 -9 15 12 23 11 55 -5 20 -10 40 -23
43 -28 13 -17 19 14 7 34 -9 14 -20 20 -35 17 -12 -2 -20 0 -17 4 12 20 -34 7
-52 -13z"/>
<path d="M4436 411 c-3 -5 1 -24 9 -42 l15 -34 -4 30 c-2 17 -5 32 -6 35 -1 3
-2 8 -1 13 1 10 -7 9 -13 -2z"/>
<path d="M4055 380 c-10 -11 -15 -23 -12 -27 7 -6 36 25 37 40 0 11 -6 8 -25
-13z"/>
<path d="M4556 385 c-18 -14 -16 -15 25 -14 30 2 35 3 16 6 -15 2 -25 9 -22
14 8 12 3 11 -19 -6z"/>
<path d="M4171 366 c-6 -16 -10 -31 -7 -33 7 -8 28 37 23 50 -3 7 -10 -1 -16
-17z"/>
<path d="M4210 351 c0 -39 1 -38 23 4 14 29 14 31 -4 31 -15 0 -19 -7 -19 -35z"/>
<path d="M4666 361 c-3 -5 1 -14 9 -21 12 -10 15 -10 15 3 0 19 -16 31 -24 18z"/>
<path d="M4610 350 c0 -5 7 -10 15 -10 8 0 15 -4 15 -10 0 -5 -4 -10 -10 -10
-5 0 -10 -8 -10 -17 0 -15 2 -16 10 -3 8 12 10 9 10 -12 0 -27 14 -35 36 -20
14 9 10 33 -11 66 -17 25 -55 36 -55 16z"/>
<path d="M4270 332 c-13 -14 -12 -15 3 -9 10 4 17 2 17 -5 0 -6 3 -9 6 -5 3 3
2 12 -3 20 -7 13 -10 13 -23 -1z"/>
<path d="M3179 318 c0 -2 -2 -18 -5 -37 -4 -30 -3 -32 13 -20 14 12 16 12 8 0
-5 -10 -4 -12 3 -7 7 4 12 14 12 22 0 8 -4 12 -10 9 -5 -3 -7 0 -4 8 3 8 1 18
-5 22 -6 3 -11 5 -12 3z"/>
<path d="M3361 304 c0 -11 3 -14 6 -6 3 7 2 16 -1 19 -3 4 -6 -2 -5 -13z"/>
<path d="M3207 243 c-10 -9 -9 -23 1 -23 5 0 9 7 9 15 0 17 -1 18 -10 8z"/>
<path d="M4683 178 c1 -37 7 -45 20 -31 4 3 3 11 -2 17 -5 6 -11 20 -14 31 -3
11 -5 3 -4 -17z"/>
<path d="M4765 160 c3 -5 11 -10 16 -10 6 0 7 5 4 10 -3 6 -11 10 -16 10 -6 0
-7 -4 -4 -10z"/>
<path d="M4544 142 c10 -12 23 -19 27 -16 5 3 9 0 9 -7 0 -7 3 -10 6 -6 3 3 1
14 -5 24 -6 10 -11 14 -11 10 0 -4 -10 -2 -22 4 -23 12 -23 12 -4 -9z"/>
<path d="M3396 137 c3 -10 9 -15 12 -12 3 3 0 11 -7 18 -10 9 -11 8 -5 -6z"/>
<path d="M1313 88 c2 -7 -2 -21 -11 -30 -8 -10 -10 -18 -5 -18 6 0 13 7 17 15
3 8 11 12 19 9 8 -3 14 2 14 10 0 8 -4 13 -9 10 -4 -3 -8 0 -8 5 0 6 -5 11
-11 11 -6 0 -9 -6 -6 -12z"/>
<path d="M3717 79 c-9 -6 -17 -6 -17 -2 0 12 -20 -20 -20 -32 0 -5 5 -3 10 5
8 13 11 13 19 1 7 -11 11 -9 21 9 14 26 11 32 -13 19z"/>
<path d="M4892 70 c0 -14 2 -19 5 -12 2 6 2 18 0 25 -3 6 -5 1 -5 -13z"/>
<path d="M2940 30 c0 -16 5 -30 11 -30 5 0 8 4 4 9 -3 5 4 12 15 16 11 3 20
11 20 17 0 6 -3 8 -6 5 -4 -3 -15 -2 -25 4 -17 8 -19 6 -19 -21z"/>
<path d="M4126 43 c-6 -14 -5 -15 5 -6 7 7 10 15 7 18 -3 3 -9 -2 -12 -12z"/>
<path d="M3541 23 c-10 -22 -10 -25 4 -19 9 3 19 6 21 6 2 0 4 6 4 14 0 26
-17 26 -29 -1z"/>
<path d="M4138 28 c-22 -23 -22 -28 -1 -28 9 0 13 3 10 7 -4 3 -2 12 5 20 17
21 5 22 -14 1z"/>
<path d="M3386 24 c-4 -9 -4 -19 -2 -21 8 -8 26 8 26 23 0 19 -16 18 -24 -2z"/>
<path d="M3756 12 c-2 -4 4 -9 15 -9 10 -1 19 2 19 8 0 11 -27 12 -34 1z"/>
</g>
</svg>
